<svg xmlns="http://www.w3.org/2000/svg" xmlns:xlink="http://www.w3.org/1999/xlink" width="50" zoomAndPan="magnify" viewBox="0 0 37.5 37.499999" height="50" preserveAspectRatio="xMidYMid meet" version="1.0"><defs><clipPath id="39089cd4d3"><path d="M 6 3.75 L 31.464844 3.75 L 31.464844 35.25 L 6 35.25 Z M 6 3.75 " clip-rule="nonzero"/></clipPath><clipPath id="6ddb9333df"><path d="M 4.460938 4.460938 L 24 4.460938 L 24 20 L 4.460938 20 Z M 4.460938 4.460938 " clip-rule="nonzero"/></clipPath><clipPath id="b96e406369"><path d="M 8 16.46875 L 32.953125 16.46875 L 32.953125 32.953125 L 8 32.953125 Z M 8 16.46875 " clip-rule="nonzero"/></clipPath></defs><g clip-path="url(#39089cd4d3)"><path fill="#ffffff" d="M 18.277344 28.257812 L 19.328125 28.257812 L 19.800781 30.441406 L 18.804688 32.867188 L 17.804688 30.441406 Z M 24.796875 27.484375 C 25.628906 27.464844 26.320312 28.136719 26.335938 28.976562 C 26.335938 28.992188 26.335938 29.007812 26.335938 29.023438 C 26.335938 29.863281 25.667969 30.546875 24.835938 30.554688 C 24.003906 30.558594 23.324219 29.878906 23.324219 29.035156 C 23.324219 29.03125 23.324219 29.027344 23.324219 29.023438 C 23.3125 28.1875 23.972656 27.5 24.796875 27.484375 Z M 20.5625 27.042969 L 21.105469 27.273438 L 20.136719 29.609375 L 19.800781 28.058594 Z M 17.042969 27.042969 L 17.785156 28.058594 L 17.449219 29.609375 L 16.484375 27.273438 Z M 18.804688 26.296875 L 20.074219 26.835938 L 19.410156 27.742188 L 18.195312 27.742188 L 17.515625 26.835938 Z M 22.40625 24.113281 L 21.308594 26.796875 L 19.359375 25.976562 Z M 15.179688 24.113281 L 18.242188 25.976562 L 16.296875 26.796875 Z M 14.503906 23.800781 L 18.449219 33.351562 C 18.527344 33.550781 18.75 33.644531 18.945312 33.566406 C 19.042969 33.523438 19.117188 33.449219 19.15625 33.351562 L 23.101562 23.800781 L 24.570312 24.277344 L 24.570312 27.003906 C 23.472656 27.144531 22.691406 28.164062 22.832031 29.277344 C 22.972656 30.390625 23.980469 31.183594 25.082031 31.039062 C 26.1875 30.898438 26.964844 29.878906 26.824219 28.761719 C 26.707031 27.84375 25.992188 27.121094 25.082031 27.003906 L 25.082031 24.445312 L 28.074219 25.421875 C 28.882812 25.683594 29.480469 26.371094 29.636719 27.214844 L 30.785156 33.511719 C 30.886719 34.074219 30.519531 34.613281 29.964844 34.714844 C 29.898438 34.726562 29.832031 34.734375 29.769531 34.734375 L 7.816406 34.734375 C 7.25 34.726562 6.796875 34.257812 6.800781 33.6875 C 6.800781 33.628906 6.808594 33.566406 6.820312 33.507812 L 7.96875 27.210938 C 8.125 26.371094 8.722656 25.683594 9.523438 25.417969 L 12.519531 24.445312 L 12.519531 25.714844 C 11.75 25.820312 11.121094 26.40625 10.949219 27.175781 L 10.070312 31.105469 C 10.007812 31.367188 10.078125 31.648438 10.257812 31.855469 C 10.480469 32.109375 10.773438 32.296875 11.101562 32.390625 C 11.199219 32.683594 11.511719 32.84375 11.804688 32.742188 C 12.09375 32.644531 12.246094 32.324219 12.152344 32.03125 C 12.054688 31.738281 11.742188 31.582031 11.449219 31.679688 C 11.347656 31.714844 11.253906 31.78125 11.1875 31.871094 C 10.980469 31.796875 10.792969 31.671875 10.644531 31.507812 C 10.570312 31.429688 10.539062 31.320312 10.558594 31.21875 L 11.441406 27.289062 C 11.609375 26.546875 12.339844 26.082031 13.074219 26.25 C 13.582031 26.371094 13.980469 26.773438 14.097656 27.289062 L 14.992188 31.21875 C 15.015625 31.320312 14.980469 31.429688 14.90625 31.507812 C 14.761719 31.671875 14.578125 31.796875 14.367188 31.871094 C 14.183594 31.625 13.835938 31.578125 13.589844 31.769531 C 13.347656 31.953125 13.300781 32.304688 13.488281 32.550781 C 13.675781 32.796875 14.023438 32.84375 14.265625 32.65625 C 14.351562 32.589844 14.417969 32.496094 14.453125 32.390625 C 14.777344 32.296875 15.074219 32.109375 15.300781 31.855469 C 15.480469 31.648438 15.546875 31.367188 15.484375 31.105469 L 14.605469 27.175781 C 14.433594 26.40625 13.808594 25.820312 13.03125 25.714844 L 13.03125 24.277344 Z M 16.230469 21.425781 C 16.695312 21.746094 17.246094 21.914062 17.804688 21.914062 L 19.785156 21.914062 C 20.351562 21.917969 20.90625 21.746094 21.375 21.425781 L 21.375 22.441406 C 21.375 22.949219 21.582031 23.441406 21.953125 23.789062 L 18.804688 25.714844 L 15.65625 23.789062 C 16.023438 23.441406 16.230469 22.949219 16.230469 22.441406 Z M 22.121094 20.792969 C 23.539062 21.03125 24.574219 22.273438 24.574219 23.726562 L 24.574219 23.738281 L 23.136719 23.273438 C 22.992188 23.222656 22.839844 23.242188 22.710938 23.320312 L 22.421875 23.507812 C 22.085938 23.257812 21.886719 22.863281 21.882812 22.441406 L 21.882812 21 C 21.960938 20.929688 22.042969 20.859375 22.121094 20.792969 Z M 15.484375 20.792969 C 15.5625 20.859375 15.640625 20.933594 15.722656 21 L 15.722656 22.441406 C 15.71875 22.863281 15.519531 23.261719 15.179688 23.507812 L 14.875 23.320312 C 14.746094 23.242188 14.597656 23.222656 14.457031 23.269531 L 13.03125 23.734375 L 13.03125 23.722656 C 13.03125 22.273438 14.070312 21.03125 15.488281 20.792969 Z M 25.519531 12.441406 C 25.605469 12.441406 25.683594 12.5 25.707031 12.582031 C 25.832031 13.058594 25.84375 13.558594 25.742188 14.042969 C 25.6875 14.46875 25.453125 14.847656 25.097656 15.082031 L 25.097656 12.746094 C 25.191406 12.617188 25.3125 12.519531 25.453125 12.457031 C 25.472656 12.449219 25.5 12.445312 25.523438 12.441406 Z M 12.058594 12.433594 C 12.089844 12.433594 12.121094 12.441406 12.148438 12.457031 C 12.285156 12.519531 12.402344 12.621094 12.488281 12.746094 L 12.488281 15.082031 C 12.136719 14.84375 11.902344 14.464844 11.84375 14.042969 C 11.742188 13.558594 11.753906 13.058594 11.878906 12.582031 C 11.902344 12.5 11.972656 12.441406 12.058594 12.433594 Z M 13.996094 7.921875 C 16.867188 9.492188 20.175781 10.039062 23.386719 9.46875 C 23.945312 9.367188 24.476562 9.742188 24.578125 10.304688 C 24.585938 10.363281 24.589844 10.425781 24.589844 10.488281 L 24.589844 16.535156 C 24.589844 17.09375 24.394531 17.632812 24.035156 18.054688 C 23.1875 19.046875 22.269531 19.972656 21.292969 20.832031 C 20.871094 21.199219 20.335938 21.398438 19.785156 21.398438 L 17.804688 21.398438 C 17.253906 21.398438 16.71875 21.199219 16.296875 20.832031 C 15.324219 19.972656 14.414062 19.046875 13.574219 18.054688 C 13.214844 17.632812 13.015625 17.09375 13.015625 16.535156 L 13.015625 10.347656 C 13.039062 10.324219 13.0625 10.292969 13.085938 10.265625 C 13.628906 9.601562 13.945312 8.78125 13.996094 7.921875 Z M 19.484375 3.824219 C 17.394531 3.78125 15.351562 4.457031 13.691406 5.742188 C 12.589844 5.722656 11.664062 6.5625 11.558594 7.667969 C 11.4375 8.46875 11.515625 9.285156 11.796875 10.039062 C 11.902344 10.339844 12.179688 10.539062 12.492188 10.542969 L 12.492188 12.054688 C 12.445312 12.03125 12.402344 12.003906 12.355469 11.984375 C 12 11.828125 11.585938 11.988281 11.429688 12.34375 C 11.410156 12.378906 11.402344 12.414062 11.390625 12.449219 C 11.25 13 11.238281 13.574219 11.355469 14.132812 C 11.449219 14.804688 11.878906 15.386719 12.492188 15.671875 L 12.492188 16.535156 C 12.492188 17.21875 12.738281 17.878906 13.183594 18.390625 C 13.765625 19.082031 14.382812 19.738281 15.027344 20.363281 C 13.542969 20.792969 12.523438 22.164062 12.523438 23.722656 L 12.523438 23.902344 L 9.375 24.925781 C 8.386719 25.246094 7.652344 26.085938 7.460938 27.121094 L 6.3125 33.414062 C 6.160156 34.257812 6.707031 35.070312 7.542969 35.222656 C 7.632812 35.242188 7.726562 35.25 7.816406 35.25 L 29.769531 35.25 C 30.621094 35.257812 31.3125 34.570312 31.320312 33.710938 C 31.320312 33.613281 31.3125 33.511719 31.292969 33.414062 L 30.140625 27.121094 C 29.953125 26.085938 29.21875 25.246094 28.230469 24.925781 L 25.082031 23.902344 L 25.082031 23.722656 C 25.082031 22.160156 24.050781 20.785156 22.5625 20.363281 C 23.210938 19.738281 23.835938 19.082031 24.421875 18.390625 C 24.863281 17.875 25.101562 17.21875 25.097656 16.535156 L 25.097656 15.671875 C 25.71875 15.390625 26.15625 14.808594 26.25 14.132812 C 26.367188 13.574219 26.355469 13 26.214844 12.449219 C 26.121094 12.070312 25.738281 11.839844 25.359375 11.9375 C 25.316406 11.949219 25.273438 11.964844 25.234375 11.984375 C 25.1875 12.003906 25.144531 12.03125 25.097656 12.054688 L 25.097656 11.59375 C 25.53125 11.359375 25.832031 10.945312 25.925781 10.460938 C 26.128906 9.332031 26.0625 8.167969 25.738281 7.070312 C 25.558594 6.460938 25.183594 5.929688 24.675781 5.5625 C 23.15625 4.46875 21.351562 3.859375 19.484375 3.824219 " fill-opacity="1" fill-rule="nonzero"/></g><path fill="#ffffff" d="M 25.109375 12.078125 C 25.210938 12.148438 25.324219 12.179688 25.4375 12.179688 C 25.628906 12.179688 25.816406 12.085938 25.933594 11.914062 L 27.609375 9.398438 C 27.792969 9.125 27.71875 8.757812 27.445312 8.574219 C 27.171875 8.394531 26.804688 8.464844 26.625 8.738281 L 24.945312 11.257812 C 24.761719 11.53125 24.835938 11.898438 25.109375 12.078125 " fill-opacity="1" fill-rule="nonzero"/><path fill="#ffffff" d="M 26.699219 13.683594 C 26.8125 13.800781 26.964844 13.859375 27.117188 13.859375 C 27.269531 13.859375 27.421875 13.800781 27.535156 13.683594 L 30.894531 10.328125 C 31.125 10.09375 31.125 9.71875 30.894531 9.488281 C 30.664062 9.257812 30.289062 9.257812 30.054688 9.488281 L 26.699219 12.84375 C 26.464844 13.078125 26.464844 13.453125 26.699219 13.683594 " fill-opacity="1" fill-rule="nonzero"/><path fill="#ffffff" d="M 28.464844 14.449219 C 28.195312 14.632812 28.121094 15 28.300781 15.273438 C 28.417969 15.445312 28.605469 15.539062 28.796875 15.539062 C 28.910156 15.539062 29.023438 15.503906 29.125 15.4375 L 31.644531 13.757812 C 31.914062 13.574219 31.988281 13.207031 31.808594 12.9375 C 31.625 12.664062 31.257812 12.589844 30.984375 12.769531 L 28.464844 14.449219 " fill-opacity="1" fill-rule="nonzero"/><g clip-path="url(#6ddb9333df)"><path fill="#ffffff" d="M 6.242188 18.113281 L 6.242188 17.519531 L 9.210938 17.519531 L 9.210938 18.113281 C 9.210938 18.441406 8.945312 18.707031 8.617188 18.707031 L 6.835938 18.707031 C 6.507812 18.707031 6.242188 18.441406 6.242188 18.113281 Z M 5.648438 14.554688 L 8.617188 14.554688 C 8.945312 14.554688 9.210938 14.289062 9.210938 13.960938 L 9.210938 13.367188 C 9.210938 12.058594 8.144531 10.992188 6.835938 10.992188 L 6.242188 10.992188 L 7.132812 9.804688 L 20.789062 9.804688 L 21.71875 10.992188 L 21.082031 10.992188 C 19.769531 10.992188 18.707031 12.058594 18.707031 13.367188 L 18.707031 13.960938 C 18.707031 14.289062 18.972656 14.554688 19.300781 14.554688 L 22.265625 14.554688 L 22.265625 16.332031 L 5.648438 16.332031 Z M 5.648438 12.179688 L 6.835938 12.179688 C 7.492188 12.179688 8.023438 12.710938 8.023438 13.367188 L 5.648438 13.367188 Z M 8.449219 7.191406 C 8.796875 6.269531 9.691406 5.648438 10.671875 5.648438 L 17.242188 5.648438 C 18.226562 5.648438 19.121094 6.269531 19.484375 7.238281 L 20.140625 8.617188 L 7.773438 8.617188 Z M 22.265625 13.367188 L 19.894531 13.367188 C 19.894531 12.710938 20.425781 12.179688 21.082031 12.179688 L 22.265625 12.179688 Z M 21.671875 18.113281 C 21.671875 18.441406 21.40625 18.707031 21.082031 18.707031 L 19.300781 18.707031 C 18.972656 18.707031 18.707031 18.441406 18.707031 18.113281 L 18.707031 17.519531 L 21.671875 17.519531 Z M 10.398438 18.113281 L 10.398438 17.519531 L 17.519531 17.519531 L 17.519531 18.113281 C 17.519531 19.097656 18.320312 19.894531 19.300781 19.894531 L 21.082031 19.894531 C 22.0625 19.894531 22.859375 19.097656 22.859375 18.113281 L 22.859375 17.519531 C 23.1875 17.519531 23.453125 17.253906 23.453125 16.925781 L 23.453125 11.488281 C 23.453125 11.351562 23.410156 11.226562 23.328125 11.121094 L 21.589844 8.898438 L 20.578125 6.773438 C 20.058594 5.390625 18.71875 4.464844 17.242188 4.464844 L 10.671875 4.464844 C 9.195312 4.464844 7.859375 5.390625 7.359375 6.726562 L 6.324219 8.90625 L 4.582031 11.230469 C 4.578125 11.234375 4.578125 11.238281 4.574219 11.242188 C 4.566406 11.253906 4.558594 11.265625 4.550781 11.28125 C 4.539062 11.296875 4.527344 11.316406 4.519531 11.332031 C 4.511719 11.347656 4.507812 11.363281 4.503906 11.375 C 4.496094 11.394531 4.488281 11.417969 4.480469 11.441406 C 4.480469 11.453125 4.476562 11.464844 4.472656 11.476562 C 4.464844 11.511719 4.460938 11.550781 4.460938 11.585938 L 4.460938 16.925781 C 4.460938 17.253906 4.726562 17.519531 5.054688 17.519531 L 5.054688 18.113281 C 5.054688 19.097656 5.855469 19.894531 6.835938 19.894531 L 8.617188 19.894531 C 9.597656 19.894531 10.398438 19.097656 10.398438 18.113281 " fill-opacity="1" fill-rule="nonzero"/></g><path fill="#ffffff" d="M 24.582031 22.316406 C 24.75 22.316406 24.910156 22.246094 25.023438 22.121094 C 25.023438 22.121094 25.023438 22.121094 25.023438 22.113281 C 25.242188 21.875 25.21875 21.503906 24.980469 21.28125 C 24.75 21.070312 24.351562 21.085938 24.144531 21.320312 C 24.035156 21.4375 23.976562 21.59375 23.988281 21.746094 C 23.992188 21.90625 24.058594 22.054688 24.179688 22.160156 C 24.289062 22.257812 24.433594 22.316406 24.582031 22.316406 " fill-opacity="1" fill-rule="nonzero"/><path fill="#ffffff" d="M 16.558594 12.179688 L 15.964844 13.367188 L 11.949219 13.367188 L 11.355469 12.179688 Z M 11.054688 14.226562 C 11.15625 14.425781 11.359375 14.554688 11.582031 14.554688 L 16.332031 14.554688 C 16.558594 14.554688 16.761719 14.425781 16.863281 14.226562 L 17.621094 12.710938 C 17.804688 12.339844 17.785156 11.90625 17.570312 11.554688 C 17.351562 11.203125 16.972656 10.992188 16.558594 10.992188 L 11.355469 10.992188 C 10.945312 10.992188 10.566406 11.203125 10.347656 11.554688 C 10.128906 11.90625 10.109375 12.339844 10.296875 12.710938 L 11.054688 14.226562 " fill-opacity="1" fill-rule="nonzero"/><g clip-path="url(#b96e406369)"><path fill="#ffffff" d="M 20.066406 29.441406 L 20.085938 25.535156 C 20.335938 25.664062 20.613281 25.734375 20.902344 25.734375 C 21.09375 25.734375 21.289062 25.707031 21.476562 25.640625 C 21.527344 25.625 21.574219 25.605469 21.621094 25.582031 L 24.613281 28.757812 Z M 20.367188 23.695312 C 20.421875 23.585938 20.503906 23.5 20.605469 23.441406 C 20.636719 23.421875 20.671875 23.40625 20.710938 23.394531 C 20.769531 23.371094 20.835938 23.363281 20.898438 23.363281 C 20.972656 23.363281 21.042969 23.378906 21.109375 23.402344 C 21.269531 23.460938 21.402344 23.589844 21.460938 23.761719 C 21.511719 23.914062 21.503906 24.074219 21.433594 24.21875 C 21.363281 24.359375 21.242188 24.464844 21.09375 24.515625 C 20.785156 24.621094 20.445312 24.457031 20.339844 24.148438 C 20.285156 23.996094 20.296875 23.835938 20.367188 23.695312 Z M 18.882812 29.269531 L 17.425781 28.445312 C 17.777344 27.589844 17.882812 26.632812 17.6875 25.679688 L 18.898438 25.265625 Z M 16.382812 27.855469 L 14.789062 26.953125 C 14.808594 26.859375 14.816406 26.761719 14.816406 26.664062 L 16.546875 26.070312 C 16.648438 26.683594 16.585938 27.296875 16.382812 27.855469 Z M 13.230469 27.207031 C 13.082031 27.257812 12.921875 27.242188 12.777344 27.175781 C 12.777344 27.175781 12.773438 27.171875 12.773438 27.171875 C 12.753906 27.164062 12.738281 27.152344 12.71875 27.140625 C 12.691406 27.121094 12.664062 27.101562 12.636719 27.074219 C 12.625 27.066406 12.617188 27.058594 12.605469 27.046875 C 12.59375 27.035156 12.585938 27.023438 12.574219 27.007812 C 12.5625 26.996094 12.550781 26.976562 12.539062 26.960938 C 12.53125 26.949219 12.527344 26.941406 12.519531 26.929688 C 12.484375 26.867188 12.460938 26.796875 12.453125 26.726562 C 12.449219 26.722656 12.449219 26.71875 12.449219 26.714844 C 12.445312 26.683594 12.445312 26.652344 12.445312 26.621094 C 12.445312 26.597656 12.449219 26.574219 12.453125 26.550781 C 12.453125 26.550781 12.453125 26.546875 12.453125 26.542969 C 12.457031 26.519531 12.464844 26.496094 12.46875 26.472656 C 12.480469 26.445312 12.488281 26.417969 12.503906 26.390625 C 12.503906 26.386719 12.503906 26.382812 12.503906 26.382812 C 12.507812 26.378906 12.507812 26.375 12.511719 26.375 C 12.527344 26.34375 12.542969 26.3125 12.5625 26.289062 C 12.566406 26.285156 12.566406 26.28125 12.570312 26.28125 C 12.589844 26.253906 12.613281 26.226562 12.640625 26.203125 C 12.644531 26.199219 12.652344 26.195312 12.660156 26.1875 C 12.683594 26.167969 12.707031 26.152344 12.730469 26.136719 C 12.734375 26.132812 12.742188 26.128906 12.746094 26.128906 C 12.777344 26.109375 12.8125 26.09375 12.847656 26.082031 C 12.910156 26.058594 12.972656 26.050781 13.039062 26.050781 C 13.285156 26.050781 13.515625 26.203125 13.601562 26.449219 C 13.707031 26.761719 13.539062 27.097656 13.230469 27.207031 Z M 14.191406 30.011719 C 12.332031 30.648438 10.304688 29.652344 9.667969 27.792969 C 9.359375 26.894531 9.421875 25.929688 9.839844 25.074219 C 10.257812 24.21875 10.984375 23.582031 11.886719 23.273438 C 12.265625 23.144531 12.652344 23.082031 13.035156 23.082031 C 14.324219 23.082031 15.542969 23.789062 16.167969 24.945312 L 14.433594 25.539062 C 14.269531 25.332031 14.0625 25.164062 13.824219 25.046875 C 13.394531 24.835938 12.914062 24.804688 12.460938 24.957031 C 12.011719 25.113281 11.648438 25.429688 11.441406 25.859375 C 11.230469 26.285156 11.199219 26.769531 11.351562 27.21875 C 11.507812 27.667969 11.828125 28.03125 12.253906 28.242188 C 12.503906 28.363281 12.769531 28.425781 13.035156 28.425781 C 13.230469 28.425781 13.425781 28.390625 13.613281 28.328125 C 13.839844 28.25 14.039062 28.132812 14.207031 27.984375 L 15.796875 28.886719 C 15.390625 29.390625 14.847656 29.789062 14.191406 30.011719 Z M 32.695312 19.925781 C 32.035156 18 30.230469 16.707031 28.203125 16.707031 C 27.6875 16.707031 27.167969 16.796875 26.664062 16.960938 C 26.019531 17.140625 25.726562 17.847656 25.773438 18.261719 C 25.78125 18.507812 25.8125 18.730469 25.839844 18.933594 C 25.863281 19.117188 25.886719 19.285156 25.882812 19.421875 C 25.882812 19.578125 25.863281 19.691406 25.816406 19.773438 C 25.8125 19.78125 25.804688 19.792969 25.796875 19.804688 C 25.714844 19.933594 25.691406 20.097656 25.734375 20.25 C 25.773438 20.40625 25.871094 20.535156 26.007812 20.613281 C 26.273438 20.78125 26.660156 20.675781 26.820312 20.410156 C 26.832031 20.386719 26.84375 20.371094 26.855469 20.347656 C 26.996094 20.078125 27.070312 19.773438 27.070312 19.421875 C 27.070312 19.140625 27.03125 18.878906 27.003906 18.671875 C 26.980469 18.507812 26.957031 18.363281 26.960938 18.269531 C 26.972656 18.191406 26.980469 18.148438 26.972656 18.125 C 26.992188 18.121094 27.015625 18.109375 27.046875 18.089844 C 27.425781 17.960938 27.8125 17.894531 28.203125 17.894531 C 29.722656 17.894531 31.074219 18.863281 31.574219 20.304688 C 31.699219 20.683594 31.761719 21.070312 31.761719 21.460938 C 31.761719 22.980469 30.796875 24.335938 29.351562 24.828125 C 29.097656 24.917969 28.832031 24.972656 28.5625 25 L 28.792969 21.5 C 28.816406 21.171875 28.566406 20.886719 28.238281 20.867188 C 27.910156 20.851562 27.628906 21.09375 27.609375 21.421875 L 27.378906 24.925781 C 26.542969 24.726562 25.792969 24.230469 25.289062 23.507812 C 25.109375 23.253906 24.722656 23.1875 24.464844 23.367188 C 24.332031 23.460938 24.25 23.597656 24.21875 23.753906 C 24.195312 23.914062 24.230469 24.066406 24.320312 24.199219 C 25.035156 25.207031 26.105469 25.890625 27.300781 26.121094 L 27.140625 28.570312 L 26.078125 28.578125 L 22.484375 24.769531 C 22.488281 24.757812 22.496094 24.75 22.5 24.738281 C 22.707031 24.3125 22.738281 23.828125 22.585938 23.378906 C 22.269531 22.449219 21.253906 21.953125 20.324219 22.269531 C 19.59375 22.519531 19.128906 23.203125 19.121094 23.9375 L 17.304688 24.558594 C 16.269531 22.441406 13.789062 21.367188 11.503906 22.148438 C 10.300781 22.5625 9.332031 23.414062 8.773438 24.550781 C 8.21875 25.691406 8.136719 26.976562 8.546875 28.179688 C 9.21875 30.148438 11.066406 31.390625 13.042969 31.390625 C 13.550781 31.390625 14.066406 31.308594 14.574219 31.136719 C 15.515625 30.8125 16.292969 30.222656 16.84375 29.476562 L 18.875 30.625 L 18.871094 31.410156 C 18.871094 31.527344 18.90625 31.640625 18.96875 31.734375 L 18.492188 31.765625 C 18.164062 31.789062 17.917969 32.074219 17.941406 32.398438 C 17.964844 32.710938 18.226562 32.953125 18.535156 32.953125 C 18.546875 32.953125 18.5625 32.953125 18.574219 32.953125 L 20.628906 32.808594 C 20.957031 32.785156 21.203125 32.5 21.179688 32.175781 C 21.15625 31.847656 20.871094 31.609375 20.546875 31.625 L 20.003906 31.660156 C 20.039062 31.585938 20.058594 31.503906 20.058594 31.414062 L 20.0625 30.640625 L 25.863281 29.765625 L 27.40625 29.753906 L 28.140625 30.71875 L 27.75 31.515625 L 26.859375 31.390625 C 26.535156 31.347656 26.234375 31.578125 26.191406 31.902344 C 26.148438 32.226562 26.375 32.523438 26.699219 32.570312 L 28.015625 32.746094 C 28.042969 32.75 28.066406 32.75 28.09375 32.75 C 28.09375 32.75 28.09375 32.753906 28.09375 32.753906 C 28.09375 32.753906 28.097656 32.753906 28.097656 32.753906 C 28.097656 32.753906 28.097656 32.75 28.101562 32.75 C 28.132812 32.75 28.160156 32.75 28.191406 32.742188 C 28.203125 32.742188 28.214844 32.738281 28.226562 32.734375 C 28.246094 32.730469 28.265625 32.726562 28.285156 32.71875 C 28.296875 32.714844 28.308594 32.710938 28.316406 32.707031 C 28.34375 32.699219 28.367188 32.6875 28.390625 32.671875 C 28.394531 32.671875 28.398438 32.667969 28.402344 32.667969 C 28.429688 32.648438 28.457031 32.632812 28.480469 32.609375 C 28.484375 32.605469 28.492188 32.597656 28.496094 32.59375 C 28.515625 32.578125 28.53125 32.5625 28.546875 32.542969 C 28.554688 32.53125 28.558594 32.523438 28.566406 32.515625 C 28.578125 32.5 28.59375 32.480469 28.601562 32.460938 C 28.609375 32.453125 28.617188 32.445312 28.621094 32.433594 C 28.625 32.429688 28.625 32.425781 28.628906 32.421875 L 29.367188 30.914062 C 29.464844 30.710938 29.441406 30.472656 29.304688 30.292969 L 28.304688 28.976562 L 28.484375 26.195312 C 28.90625 26.171875 29.328125 26.089844 29.738281 25.953125 C 31.664062 25.289062 32.949219 23.484375 32.949219 21.460938 C 32.949219 20.933594 32.863281 20.417969 32.695312 19.925781 " fill-opacity="1" fill-rule="nonzero"/></g></svg>