<svg xmlns="http://www.w3.org/2000/svg" xmlns:xlink="http://www.w3.org/1999/xlink" width="50" zoomAndPan="magnify" viewBox="0 0 37.5 37.499999" height="50" preserveAspectRatio="xMidYMid meet" version="1.0"><defs><clipPath id="3eefc03f7a"><path d="M 12 17 L 36.234375 17 L 36.234375 26 L 12 26 Z M 12 17 " clip-rule="nonzero"/></clipPath><clipPath id="7ec4b50bbb"><path d="M 0.984375 6.46875 L 36.234375 6.46875 L 36.234375 31.21875 L 0.984375 31.21875 Z M 0.984375 6.46875 " clip-rule="nonzero"/></clipPath></defs><g clip-path="url(#3eefc03f7a)"><path fill="#ffffff" d="M 16.4375 20.171875 L 17.132812 20.171875 L 17.578125 19.210938 L 16.203125 19.210938 Z M 17.476562 20.722656 L 16.011719 20.722656 L 15.507812 18.660156 L 18.429688 18.660156 Z M 18.410156 20.292969 L 23.242188 20.683594 L 22.917969 19.1875 L 18.902344 19.1875 Z M 23.933594 21.292969 L 17.601562 20.78125 L 18.550781 18.636719 L 23.351562 18.636719 Z M 24.632812 20.855469 L 28.976562 21.035156 C 27.203125 20.015625 25.921875 19.554688 24.289062 19.320312 Z M 31.082031 21.671875 L 24.195312 21.390625 L 23.59375 18.679688 L 23.972656 18.726562 C 26.40625 19.011719 28.035156 19.789062 30.1875 21.117188 Z M 34.699219 25.320312 L 35.683594 25.320312 C 35.566406 23.546875 34.351562 22.007812 32.640625 21.535156 C 32.339844 21.453125 32.109375 21.386719 31.914062 21.335938 C 30.992188 21.089844 30.960938 21.074219 29.503906 20.304688 C 29.125 20.101562 28.644531 19.847656 28.023438 19.523438 C 25.253906 18.082031 23.4375 18.09375 18.027344 18.136719 C 17.058594 18.140625 15.972656 18.152344 14.746094 18.152344 C 14.625 18.34375 14.507812 18.523438 14.398438 18.695312 C 13.613281 19.914062 13.179688 20.585938 13.179688 21.757812 C 13.179688 21.886719 13.179688 22.023438 13.175781 22.164062 C 13.152344 23.105469 13.125 24.152344 14.027344 24.648438 C 14.121094 24.085938 14.410156 23.550781 14.847656 23.128906 C 15.40625 22.582031 16.140625 22.300781 16.90625 22.34375 C 17.640625 22.382812 18.339844 22.714844 18.824219 23.261719 C 19.285156 23.785156 19.53125 24.464844 19.539062 25.234375 L 29.144531 25.234375 L 29.15625 25.019531 C 29.246094 23.21875 30.730469 22.28125 32.0625 22.347656 C 33.351562 22.394531 34.632812 23.335938 34.699219 25.320312 Z M 36.234375 25.871094 L 34.152344 25.871094 L 34.160156 25.589844 C 34.203125 23.660156 33.046875 22.933594 32.042969 22.898438 C 30.957031 22.855469 29.769531 23.597656 29.699219 25.054688 L 29.648438 25.785156 L 18.972656 25.785156 L 18.992188 25.492188 C 19.039062 24.75 18.839844 24.105469 18.417969 23.632812 C 18.035156 23.191406 17.472656 22.921875 16.878906 22.894531 C 16.261719 22.871094 15.675781 23.089844 15.222656 23.527344 C 14.792969 23.9375 14.535156 24.507812 14.535156 25.046875 L 14.535156 25.425781 L 14.183594 25.308594 C 12.570312 24.777344 12.605469 23.257812 12.632812 22.152344 C 12.636719 22.015625 12.636719 21.882812 12.636719 21.757812 C 12.636719 20.421875 13.128906 19.660156 13.945312 18.394531 C 14.078125 18.1875 14.21875 17.96875 14.371094 17.726562 L 14.449219 17.601562 L 14.597656 17.601562 C 15.882812 17.601562 17.011719 17.589844 18.023438 17.585938 C 23.53125 17.542969 25.386719 17.527344 28.269531 19.035156 C 28.894531 19.359375 29.375 19.613281 29.753906 19.816406 C 31.1875 20.574219 31.1875 20.574219 32.050781 20.804688 C 32.246094 20.855469 32.484375 20.921875 32.785156 21.003906 C 34.816406 21.570312 36.234375 23.457031 36.234375 25.597656 L 36.234375 25.871094 " fill-opacity="1" fill-rule="nonzero"/></g><path fill="#ffffff" d="M 16.773438 26.402344 C 16.285156 26.402344 15.800781 26.144531 15.613281 25.625 C 15.226562 24.535156 16.015625 23.917969 16.792969 23.917969 C 17.40625 23.917969 18.007812 24.304688 18.007812 25.15625 C 18.007812 25.984375 17.390625 26.402344 16.773438 26.402344 Z M 16.773438 23.199219 C 14.929688 23.199219 14.132812 25.589844 15.613281 26.722656 C 15.972656 26.996094 16.375 27.117188 16.761719 27.117188 C 17.761719 27.117188 18.699219 26.304688 18.699219 25.15625 C 18.699219 24.078125 17.835938 23.199219 16.773438 23.199219 " fill-opacity="1" fill-rule="nonzero"/><path fill="#ffffff" d="M 31.933594 26.402344 C 30.292969 26.402344 30.273438 23.910156 31.933594 23.910156 C 33.597656 23.910156 33.578125 26.402344 31.933594 26.402344 Z M 31.933594 23.199219 C 30.871094 23.199219 30.003906 24.078125 30.003906 25.15625 C 30.003906 26.445312 30.980469 27.097656 31.949219 27.097656 C 32.910156 27.097656 33.863281 26.457031 33.863281 25.15625 C 33.863281 24.078125 33 23.199219 31.933594 23.199219 " fill-opacity="1" fill-rule="nonzero"/><path fill="#ffffff" d="M 7.164062 10.835938 L 5.484375 10.835938 L 5.484375 13.074219 L 5.96875 13.074219 L 5.96875 12.207031 L 7.019531 12.207031 L 7.019531 11.765625 L 5.96875 11.765625 L 5.96875 11.28125 L 7.164062 11.28125 L 7.164062 10.835938 " fill-opacity="1" fill-rule="nonzero"/><path fill="#ffffff" d="M 8.875 12.660156 C 8.78125 12.660156 8.6875 12.640625 8.605469 12.605469 C 7.96875 12.308594 8.128906 11.253906 8.871094 11.253906 C 9.625 11.253906 9.769531 12.328125 9.144531 12.605469 C 9.0625 12.640625 8.96875 12.660156 8.875 12.660156 Z M 8.875 10.792969 C 8.269531 10.792969 7.703125 11.257812 7.703125 11.964844 C 7.703125 12.628906 8.21875 13.113281 8.871094 13.113281 C 10.175781 13.113281 10.472656 11.367188 9.34375 10.890625 C 9.191406 10.828125 9.03125 10.792969 8.875 10.792969 " fill-opacity="1" fill-rule="nonzero"/><path fill="#ffffff" d="M 11.550781 11.929688 C 11.441406 11.929688 11.324219 11.925781 11.210938 11.925781 L 11.210938 11.28125 C 11.332031 11.28125 11.457031 11.273438 11.574219 11.273438 C 11.851562 11.273438 12.074219 11.316406 12.074219 11.609375 C 12.074219 11.890625 11.839844 11.929688 11.550781 11.929688 Z M 11.46875 10.832031 C 11.269531 10.832031 11.03125 10.835938 10.726562 10.835938 L 10.726562 13.074219 L 11.210938 13.074219 L 11.210938 12.359375 L 11.589844 12.359375 L 12.0625 13.074219 L 12.628906 13.074219 L 12.09375 12.277344 C 12.6875 12.050781 12.660156 11.316406 12.34375 11.035156 C 12.148438 10.859375 11.945312 10.832031 11.46875 10.832031 " fill-opacity="1" fill-rule="nonzero"/><path fill="#ffffff" d="M 5.253906 15.140625 C 5.136719 15.140625 5.015625 15.132812 4.898438 15.132812 L 4.898438 14.492188 C 5.015625 14.492188 5.128906 14.488281 5.234375 14.488281 C 5.539062 14.488281 5.757812 14.523438 5.757812 14.808594 C 5.757812 15.097656 5.527344 15.140625 5.253906 15.140625 Z M 5.417969 14.046875 L 4.414062 14.046875 L 4.414062 16.285156 L 4.898438 16.285156 L 4.898438 15.566406 L 5.277344 15.566406 L 5.75 16.285156 L 6.316406 16.285156 L 5.777344 15.484375 C 6.457031 15.226562 6.476562 14.046875 5.417969 14.046875 " fill-opacity="1" fill-rule="nonzero"/><path fill="#ffffff" d="M 8.597656 14.046875 L 6.9375 14.046875 L 6.9375 16.285156 L 8.613281 16.285156 L 8.613281 15.847656 L 7.417969 15.847656 L 7.417969 15.378906 L 8.453125 15.378906 L 8.453125 14.9375 L 7.417969 14.9375 L 7.417969 14.484375 L 8.597656 14.484375 L 8.597656 14.046875 " fill-opacity="1" fill-rule="nonzero"/><path fill="#ffffff" d="M 11.253906 14.046875 L 10.777344 14.046875 L 10.777344 15.425781 L 9.746094 14.046875 L 9.296875 14.046875 L 9.296875 16.285156 L 9.777344 16.285156 L 9.777344 14.859375 L 10.84375 16.285156 L 11.253906 16.285156 L 11.253906 14.046875 " fill-opacity="1" fill-rule="nonzero"/><path fill="#ffffff" d="M 13.703125 14.046875 L 11.878906 14.046875 L 11.878906 14.5 L 12.546875 14.5 L 12.546875 16.285156 L 13.03125 16.285156 L 13.03125 14.5 L 13.703125 14.5 L 13.703125 14.046875 " fill-opacity="1" fill-rule="nonzero"/><g clip-path="url(#7ec4b50bbb)"><path fill="#ffffff" d="M 8.191406 30.640625 L 35.675781 30.640625 C 35.539062 29.644531 34.699219 28.875 33.683594 28.875 L 9.925781 28.875 L 9.925781 18.503906 L 12.273438 18.503906 C 12.417969 18.265625 12.574219 18.019531 12.738281 17.761719 L 2.792969 17.761719 C 2.695312 17.761719 2.554688 17.765625 2.4375 17.648438 C 2.234375 17.441406 2.234375 17.183594 2.246094 14.023438 C 2.25 12.996094 2.257812 11.664062 2.257812 9.9375 C 2.253906 9.839844 2.242188 9.703125 2.355469 9.585938 C 2.566406 9.359375 2.765625 9.359375 7.816406 9.375 C 9.625 9.382812 12.058594 9.390625 15.320312 9.390625 C 15.425781 9.390625 15.5625 9.390625 15.679688 9.507812 C 15.882812 9.714844 15.882812 9.945312 15.871094 12.75 C 15.863281 13.632812 15.859375 14.765625 15.859375 16.226562 L 16.589844 16.222656 L 16.589844 9.460938 C 16.589844 9.011719 16.230469 8.648438 15.789062 8.648438 L 9.925781 8.648438 L 9.925781 7.691406 C 9.925781 7.335938 9.640625 7.046875 9.292969 7.046875 L 8.824219 7.046875 C 8.472656 7.046875 8.191406 7.335938 8.191406 7.691406 L 8.191406 8.648438 L 2.328125 8.648438 C 1.882812 8.648438 1.527344 9.011719 1.527344 9.460938 L 1.527344 17.691406 C 1.527344 18.140625 1.882812 18.503906 2.328125 18.503906 L 8.191406 18.503906 Z M 36.234375 31.191406 L 7.648438 31.191406 L 7.648438 19.054688 L 2.328125 19.054688 C 1.585938 19.054688 0.984375 18.445312 0.984375 17.691406 L 0.984375 9.460938 C 0.984375 8.707031 1.585938 8.097656 2.328125 8.097656 L 7.648438 8.097656 L 7.648438 7.691406 C 7.648438 7.035156 8.175781 6.496094 8.824219 6.496094 L 9.292969 6.496094 C 9.941406 6.496094 10.46875 7.035156 10.46875 7.691406 L 10.46875 8.097656 L 15.789062 8.097656 C 16.527344 8.097656 17.132812 8.707031 17.132812 9.460938 L 17.132812 16.769531 L 15.316406 16.777344 L 15.316406 16.503906 C 15.316406 14.910156 15.324219 13.6875 15.328125 12.746094 C 15.335938 11.117188 15.339844 10.214844 15.292969 9.941406 C 12.042969 9.941406 9.621094 9.933594 7.8125 9.925781 C 4.585938 9.917969 3.183594 9.914062 2.796875 9.976562 C 2.796875 11.683594 2.792969 13.007812 2.789062 14.027344 C 2.78125 15.933594 2.777344 16.910156 2.828125 17.210938 L 13.738281 17.210938 L 13.269531 17.945312 C 13.046875 18.289062 12.84375 18.605469 12.660156 18.921875 L 12.582031 19.054688 L 10.46875 19.054688 L 10.46875 28.324219 L 33.683594 28.324219 C 35.089844 28.324219 36.234375 29.488281 36.234375 30.914062 L 36.234375 31.191406 " fill-opacity="1" fill-rule="nonzero"/></g></svg>