<svg xmlns="http://www.w3.org/2000/svg" xmlns:xlink="http://www.w3.org/1999/xlink" width="50" zoomAndPan="magnify" viewBox="0 0 37.5 37.499999" height="50" preserveAspectRatio="xMidYMid meet" version="1.0"><defs><clipPath id="bb727c5c7b"><path d="M 6 3.75 L 31.464844 3.75 L 31.464844 35.25 L 6 35.25 Z M 6 3.75 " clip-rule="nonzero"/></clipPath></defs><g clip-path="url(#bb727c5c7b)"><path fill="#009dff" d="M 18.277344 28.257812 L 19.328125 28.257812 L 19.800781 30.441406 L 18.804688 32.867188 L 17.804688 30.441406 Z M 24.796875 27.484375 C 25.628906 27.464844 26.320312 28.136719 26.335938 28.976562 C 26.335938 28.992188 26.335938 29.007812 26.335938 29.023438 C 26.335938 29.863281 25.667969 30.546875 24.835938 30.554688 C 24.003906 30.558594 23.324219 29.878906 23.324219 29.035156 C 23.324219 29.03125 23.324219 29.027344 23.324219 29.023438 C 23.3125 28.1875 23.972656 27.5 24.796875 27.484375 Z M 20.5625 27.042969 L 21.105469 27.273438 L 20.136719 29.609375 L 19.800781 28.058594 Z M 17.042969 27.042969 L 17.785156 28.058594 L 17.449219 29.609375 L 16.484375 27.273438 Z M 18.804688 26.296875 L 20.074219 26.835938 L 19.410156 27.742188 L 18.195312 27.742188 L 17.515625 26.835938 Z M 22.40625 24.113281 L 21.308594 26.796875 L 19.359375 25.976562 Z M 15.179688 24.113281 L 18.242188 25.976562 L 16.296875 26.796875 Z M 14.503906 23.800781 L 18.449219 33.351562 C 18.527344 33.550781 18.75 33.644531 18.945312 33.566406 C 19.042969 33.523438 19.117188 33.449219 19.15625 33.351562 L 23.101562 23.800781 L 24.570312 24.277344 L 24.570312 27.003906 C 23.472656 27.144531 22.691406 28.164062 22.832031 29.277344 C 22.972656 30.390625 23.980469 31.183594 25.082031 31.039062 C 26.1875 30.898438 26.964844 29.878906 26.824219 28.761719 C 26.707031 27.84375 25.992188 27.121094 25.082031 27.003906 L 25.082031 24.445312 L 28.074219 25.421875 C 28.882812 25.683594 29.480469 26.371094 29.636719 27.214844 L 30.785156 33.511719 C 30.886719 34.074219 30.519531 34.613281 29.964844 34.714844 C 29.898438 34.726562 29.832031 34.734375 29.769531 34.734375 L 7.816406 34.734375 C 7.25 34.726562 6.796875 34.257812 6.800781 33.6875 C 6.800781 33.628906 6.808594 33.566406 6.820312 33.507812 L 7.96875 27.210938 C 8.125 26.371094 8.722656 25.683594 9.523438 25.417969 L 12.519531 24.445312 L 12.519531 25.714844 C 11.75 25.820312 11.121094 26.40625 10.949219 27.175781 L 10.070312 31.105469 C 10.007812 31.367188 10.078125 31.648438 10.257812 31.855469 C 10.480469 32.109375 10.773438 32.296875 11.101562 32.390625 C 11.199219 32.683594 11.511719 32.84375 11.804688 32.742188 C 12.09375 32.644531 12.246094 32.324219 12.152344 32.03125 C 12.054688 31.738281 11.742188 31.582031 11.449219 31.679688 C 11.347656 31.714844 11.253906 31.78125 11.1875 31.871094 C 10.980469 31.796875 10.792969 31.671875 10.644531 31.507812 C 10.570312 31.429688 10.539062 31.320312 10.558594 31.21875 L 11.441406 27.289062 C 11.609375 26.546875 12.339844 26.082031 13.074219 26.25 C 13.582031 26.371094 13.980469 26.773438 14.097656 27.289062 L 14.992188 31.21875 C 15.015625 31.320312 14.980469 31.429688 14.90625 31.507812 C 14.761719 31.671875 14.578125 31.796875 14.367188 31.871094 C 14.183594 31.625 13.835938 31.578125 13.589844 31.769531 C 13.347656 31.953125 13.300781 32.304688 13.488281 32.550781 C 13.675781 32.796875 14.023438 32.84375 14.265625 32.65625 C 14.351562 32.589844 14.417969 32.496094 14.453125 32.390625 C 14.777344 32.296875 15.074219 32.109375 15.300781 31.855469 C 15.480469 31.648438 15.546875 31.367188 15.484375 31.105469 L 14.605469 27.175781 C 14.433594 26.40625 13.808594 25.820312 13.03125 25.714844 L 13.03125 24.277344 Z M 16.230469 21.425781 C 16.695312 21.746094 17.246094 21.914062 17.804688 21.914062 L 19.785156 21.914062 C 20.351562 21.917969 20.90625 21.746094 21.375 21.425781 L 21.375 22.441406 C 21.375 22.949219 21.582031 23.441406 21.953125 23.789062 L 18.804688 25.714844 L 15.65625 23.789062 C 16.023438 23.441406 16.230469 22.949219 16.230469 22.441406 Z M 22.121094 20.792969 C 23.539062 21.03125 24.574219 22.273438 24.574219 23.726562 L 24.574219 23.738281 L 23.136719 23.273438 C 22.992188 23.222656 22.839844 23.242188 22.710938 23.320312 L 22.421875 23.507812 C 22.085938 23.257812 21.886719 22.863281 21.882812 22.441406 L 21.882812 21 C 21.960938 20.929688 22.042969 20.859375 22.121094 20.792969 Z M 15.484375 20.792969 C 15.5625 20.859375 15.640625 20.933594 15.722656 21 L 15.722656 22.441406 C 15.71875 22.863281 15.519531 23.261719 15.179688 23.507812 L 14.875 23.320312 C 14.746094 23.242188 14.597656 23.222656 14.457031 23.269531 L 13.03125 23.734375 L 13.03125 23.722656 C 13.03125 22.273438 14.070312 21.03125 15.488281 20.792969 Z M 25.519531 12.441406 C 25.605469 12.441406 25.683594 12.5 25.707031 12.582031 C 25.832031 13.058594 25.84375 13.558594 25.742188 14.042969 C 25.6875 14.46875 25.453125 14.847656 25.097656 15.082031 L 25.097656 12.746094 C 25.191406 12.617188 25.3125 12.519531 25.453125 12.457031 C 25.472656 12.449219 25.5 12.445312 25.523438 12.441406 Z M 12.058594 12.433594 C 12.089844 12.433594 12.121094 12.441406 12.148438 12.457031 C 12.285156 12.519531 12.402344 12.621094 12.488281 12.746094 L 12.488281 15.082031 C 12.136719 14.84375 11.902344 14.464844 11.84375 14.042969 C 11.742188 13.558594 11.753906 13.058594 11.878906 12.582031 C 11.902344 12.5 11.972656 12.441406 12.058594 12.433594 Z M 13.996094 7.921875 C 16.867188 9.492188 20.175781 10.039062 23.386719 9.46875 C 23.945312 9.367188 24.476562 9.742188 24.578125 10.304688 C 24.585938 10.363281 24.589844 10.425781 24.589844 10.488281 L 24.589844 16.535156 C 24.589844 17.09375 24.394531 17.632812 24.035156 18.054688 C 23.1875 19.046875 22.269531 19.972656 21.292969 20.832031 C 20.871094 21.199219 20.335938 21.398438 19.785156 21.398438 L 17.804688 21.398438 C 17.253906 21.398438 16.71875 21.199219 16.296875 20.832031 C 15.324219 19.972656 14.414062 19.046875 13.574219 18.054688 C 13.214844 17.632812 13.015625 17.09375 13.015625 16.535156 L 13.015625 10.347656 C 13.039062 10.324219 13.0625 10.292969 13.085938 10.265625 C 13.628906 9.601562 13.945312 8.78125 13.996094 7.921875 Z M 19.484375 3.824219 C 17.394531 3.78125 15.351562 4.457031 13.691406 5.742188 C 12.589844 5.722656 11.664062 6.5625 11.558594 7.667969 C 11.4375 8.46875 11.515625 9.285156 11.796875 10.039062 C 11.902344 10.339844 12.179688 10.539062 12.492188 10.542969 L 12.492188 12.054688 C 12.445312 12.03125 12.402344 12.003906 12.355469 11.984375 C 12 11.828125 11.585938 11.988281 11.429688 12.34375 C 11.410156 12.378906 11.402344 12.414062 11.390625 12.449219 C 11.25 13 11.238281 13.574219 11.355469 14.132812 C 11.449219 14.804688 11.878906 15.386719 12.492188 15.671875 L 12.492188 16.535156 C 12.492188 17.21875 12.738281 17.878906 13.183594 18.390625 C 13.765625 19.082031 14.382812 19.738281 15.027344 20.363281 C 13.542969 20.792969 12.523438 22.164062 12.523438 23.722656 L 12.523438 23.902344 L 9.375 24.925781 C 8.386719 25.246094 7.652344 26.085938 7.460938 27.121094 L 6.3125 33.414062 C 6.160156 34.257812 6.707031 35.070312 7.542969 35.222656 C 7.632812 35.242188 7.726562 35.25 7.816406 35.25 L 29.769531 35.25 C 30.621094 35.257812 31.3125 34.570312 31.320312 33.710938 C 31.320312 33.613281 31.3125 33.511719 31.292969 33.414062 L 30.140625 27.121094 C 29.953125 26.085938 29.21875 25.246094 28.230469 24.925781 L 25.082031 23.902344 L 25.082031 23.722656 C 25.082031 22.160156 24.050781 20.785156 22.5625 20.363281 C 23.210938 19.738281 23.835938 19.082031 24.421875 18.390625 C 24.863281 17.875 25.101562 17.21875 25.097656 16.535156 L 25.097656 15.671875 C 25.71875 15.390625 26.15625 14.808594 26.25 14.132812 C 26.367188 13.574219 26.355469 13 26.214844 12.449219 C 26.121094 12.070312 25.738281 11.839844 25.359375 11.9375 C 25.316406 11.949219 25.273438 11.964844 25.234375 11.984375 C 25.1875 12.003906 25.144531 12.03125 25.097656 12.054688 L 25.097656 11.59375 C 25.53125 11.359375 25.832031 10.945312 25.925781 10.460938 C 26.128906 9.332031 26.0625 8.167969 25.738281 7.070312 C 25.558594 6.460938 25.183594 5.929688 24.675781 5.5625 C 23.15625 4.46875 21.351562 3.859375 19.484375 3.824219 " fill-opacity="1" fill-rule="nonzero"/></g></svg>