<svg xmlns="http://www.w3.org/2000/svg" xmlns:xlink="http://www.w3.org/1999/xlink" width="50" zoomAndPan="magnify" viewBox="0 0 37.5 37.499999" height="50" preserveAspectRatio="xMidYMid meet" version="1.0"><defs><clipPath id="9db3a2fb2e"><path d="M 18 6 L 29.1875 6 L 29.1875 23 L 18 23 Z M 18 6 " clip-rule="nonzero"/></clipPath><clipPath id="bbbb1e5ad4"><path d="M 8.1875 3.75 L 22 3.75 L 22 33 L 8.1875 33 Z M 8.1875 3.75 " clip-rule="nonzero"/></clipPath></defs><g clip-path="url(#9db3a2fb2e)"><path fill="#009dff" d="M 28.957031 9.992188 C 29.136719 9.355469 29.0625 8.683594 28.742188 8.101562 C 28.421875 7.519531 27.894531 7.101562 27.257812 6.917969 C 26.625 6.734375 25.957031 6.8125 25.378906 7.132812 C 24.800781 7.457031 24.382812 7.984375 24.199219 8.625 C 24.019531 9.25 24.101562 9.914062 24.394531 10.46875 C 23.882812 10.398438 23.378906 10.714844 23.230469 11.230469 C 23.074219 11.777344 23.378906 12.347656 23.90625 12.53125 L 23 15.035156 L 22.097656 15.507812 C 21.675781 15.726562 21.34375 16.089844 21.15625 16.527344 L 20.867188 17.207031 L 19.972656 17.410156 C 19.535156 17.507812 19.203125 17.859375 19.128906 18.304688 L 18.890625 19.722656 C 18.863281 19.886719 18.960938 20.046875 19.117188 20.089844 L 27.222656 22.425781 C 27.253906 22.433594 27.28125 22.4375 27.3125 22.4375 C 27.441406 22.4375 27.558594 22.363281 27.609375 22.238281 L 28.15625 20.90625 C 28.328125 20.488281 28.230469 20.015625 27.910156 19.695312 L 27.261719 19.050781 L 27.371094 18.320312 C 27.445312 17.847656 27.351562 17.363281 27.109375 16.953125 L 26.59375 16.070312 L 27.144531 13.46875 C 27.222656 13.484375 27.300781 13.496094 27.378906 13.496094 C 27.84375 13.496094 28.269531 13.191406 28.402344 12.722656 C 28.480469 12.445312 28.449219 12.15625 28.3125 11.90625 C 28.199219 11.703125 28.027344 11.546875 27.816406 11.453125 C 28.359375 11.136719 28.777344 10.621094 28.953125 9.992188 Z M 24.527344 12.71875 L 25.523438 13.003906 L 26.523438 13.292969 L 26.007812 15.71875 L 23.683594 15.046875 Z M 27.558594 20.660156 L 27.125 21.722656 L 19.574219 19.546875 L 19.765625 18.410156 C 19.796875 18.226562 19.933594 18.082031 20.113281 18.042969 L 21.089844 17.824219 L 23.917969 18.636719 L 26.75 19.453125 L 27.457031 20.160156 C 27.589844 20.289062 27.628906 20.484375 27.558594 20.65625 Z M 26.734375 18.222656 L 26.652344 18.75 L 21.539062 17.277344 L 21.75 16.785156 C 21.878906 16.484375 22.109375 16.234375 22.398438 16.082031 L 23.296875 15.613281 L 26.039062 16.402344 L 26.554688 17.28125 C 26.71875 17.5625 26.785156 17.898438 26.734375 18.222656 Z M 27.78125 12.542969 C 27.71875 12.765625 27.488281 12.894531 27.265625 12.832031 L 26.988281 12.753906 L 24.414062 12.011719 L 24.140625 11.929688 C 23.917969 11.867188 23.789062 11.632812 23.851562 11.410156 C 23.882812 11.300781 23.953125 11.210938 24.050781 11.15625 C 24.148438 11.105469 24.261719 11.089844 24.371094 11.121094 L 27.496094 12.023438 C 27.605469 12.054688 27.691406 12.125 27.746094 12.222656 C 27.800781 12.320312 27.8125 12.433594 27.78125 12.542969 Z M 28.335938 9.816406 C 28.128906 10.535156 27.5 11.058594 26.761719 11.136719 L 25.609375 10.804688 L 25.460938 10.761719 C 24.871094 10.300781 24.617188 9.523438 24.820312 8.800781 C 24.957031 8.332031 25.265625 7.941406 25.691406 7.703125 C 26.117188 7.464844 26.613281 7.40625 27.082031 7.542969 C 27.550781 7.675781 27.941406 7.988281 28.175781 8.417969 C 28.414062 8.847656 28.46875 9.34375 28.335938 9.816406 Z M 28.335938 9.816406 " fill-opacity="1" fill-rule="nonzero"/></g><g clip-path="url(#bbbb1e5ad4)"><path fill="#009dff" d="M 21.226562 27.929688 L 19.933594 26.886719 C 19.714844 26.710938 19.570312 26.460938 19.523438 26.183594 L 19.449219 25.75 C 19.355469 25.195312 18.902344 24.78125 18.34375 24.746094 L 18.101562 24.730469 L 17.574219 23.804688 C 16.902344 22.628906 16.445312 21.359375 16.222656 20.027344 L 15.816406 17.648438 L 16.464844 17.539062 C 16.800781 17.480469 17.0625 17.238281 17.148438 16.90625 C 17.234375 16.578125 17.125 16.238281 16.859375 16.019531 L 15.769531 15.128906 L 15.574219 13.976562 L 16.183594 10.324219 C 16.253906 9.921875 16.140625 9.511719 15.875 9.203125 C 15.613281 8.890625 15.226562 8.71875 14.824219 8.71875 L 14.175781 8.722656 L 13.980469 8.582031 C 13.714844 8.394531 13.535156 8.121094 13.46875 7.804688 L 13.996094 7.714844 C 14.171875 7.683594 14.292969 7.515625 14.261719 7.339844 L 13.953125 5.519531 C 13.921875 5.339844 13.753906 5.222656 13.578125 5.253906 L 12.675781 5.40625 L 12.523438 4.523438 C 12.503906 4.414062 12.4375 4.324219 12.339844 4.28125 L 11.308594 3.808594 C 11.1875 3.753906 11.046875 3.777344 10.949219 3.871094 L 10.132812 4.660156 C 10.058594 4.734375 10.019531 4.839844 10.039062 4.949219 L 10.1875 5.835938 L 9.285156 5.988281 C 9.109375 6.019531 8.988281 6.1875 9.019531 6.363281 L 9.328125 8.183594 C 9.359375 8.363281 9.527344 8.480469 9.703125 8.449219 L 10.230469 8.359375 C 10.273438 8.679688 10.191406 9 10.007812 9.265625 L 9.867188 9.464844 L 9.253906 9.675781 C 8.871094 9.804688 8.566406 10.101562 8.417969 10.480469 C 8.273438 10.859375 8.300781 11.285156 8.496094 11.640625 L 10.277344 14.886719 L 10.472656 16.035156 L 9.738281 17.242188 C 9.558594 17.535156 9.566406 17.890625 9.757812 18.175781 C 9.921875 18.417969 10.183594 18.554688 10.464844 18.554688 C 10.511719 18.554688 10.5625 18.550781 10.613281 18.542969 L 11.257812 18.429688 L 11.664062 20.808594 C 11.890625 22.140625 11.878906 23.492188 11.632812 24.824219 L 11.4375 25.875 L 11.214844 25.96875 C 10.703125 26.191406 10.410156 26.730469 10.503906 27.285156 L 10.578125 27.71875 C 10.625 27.996094 10.566406 28.277344 10.421875 28.515625 L 9.546875 29.933594 C 9.34375 30.253906 9.351562 30.652344 9.5625 30.964844 C 9.710938 31.1875 9.933594 31.324219 10.179688 31.367188 L 10.285156 31.972656 C 10.386719 32.574219 10.910156 33.003906 11.5 33.003906 C 11.566406 33.003906 11.636719 33 11.707031 32.984375 L 20.195312 31.53125 C 20.863281 31.414062 21.316406 30.773438 21.203125 30.101562 L 21.101562 29.5 C 21.320312 29.375 21.484375 29.167969 21.550781 28.910156 C 21.644531 28.542969 21.523438 28.167969 21.226562 27.929688 Z M 15.101562 15.035156 L 11.074219 15.726562 L 10.960938 15.042969 L 14.984375 14.351562 Z M 9.910156 7.753906 L 9.710938 6.574219 L 10.617188 6.417969 C 10.792969 6.386719 10.910156 6.21875 10.878906 6.042969 L 10.703125 5.007812 L 11.242188 4.492188 L 11.917969 4.800781 L 12.09375 5.835938 C 12.121094 6.011719 12.289062 6.132812 12.464844 6.101562 L 13.371094 5.945312 L 13.570312 7.125 L 13.042969 7.21875 C 12.867188 7.246094 12.746094 7.414062 12.777344 7.59375 L 12.824219 7.863281 C 12.886719 8.238281 13.054688 8.578125 13.308594 8.851562 L 12.019531 9.070312 L 10.726562 9.292969 C 10.875 8.953125 10.921875 8.574219 10.859375 8.199219 L 10.8125 7.929688 C 10.785156 7.769531 10.648438 7.660156 10.496094 7.660156 C 10.476562 7.660156 10.460938 7.660156 10.441406 7.664062 Z M 9.023438 10.714844 C 9.097656 10.511719 9.257812 10.355469 9.460938 10.289062 L 10.148438 10.050781 L 14.101562 9.375 L 14.828125 9.367188 L 14.835938 9.367188 C 15.046875 9.367188 15.246094 9.460938 15.386719 9.621094 C 15.523438 9.785156 15.585938 10.003906 15.546875 10.214844 L 14.96875 13.695312 L 10.757812 14.417969 L 9.0625 11.328125 C 8.960938 11.140625 8.945312 10.914062 9.023438 10.714844 Z M 10.503906 17.902344 C 10.382812 17.921875 10.316406 17.84375 10.292969 17.8125 C 10.269531 17.777344 10.222656 17.6875 10.289062 17.582031 L 11.011719 16.398438 L 15.382812 15.648438 L 16.453125 16.523438 C 16.546875 16.601562 16.535156 16.703125 16.523438 16.742188 C 16.515625 16.78125 16.476562 16.878906 16.355469 16.898438 Z M 17.011719 24.128906 L 17.398438 24.800781 L 12.125 25.707031 L 12.265625 24.941406 C 12.527344 23.535156 12.539062 22.109375 12.296875 20.699219 L 11.894531 18.320312 L 15.179688 17.757812 L 15.585938 20.136719 C 15.824219 21.546875 16.304688 22.886719 17.011719 24.128906 Z M 10.097656 30.605469 C 10.074219 30.566406 9.996094 30.429688 10.09375 30.273438 L 10.96875 28.859375 C 11.199219 28.484375 11.285156 28.042969 11.210938 27.609375 L 11.140625 27.175781 C 11.09375 26.917969 11.230469 26.667969 11.46875 26.566406 L 11.816406 26.417969 L 17.925781 25.367188 L 18.300781 25.394531 C 18.558594 25.410156 18.769531 25.601562 18.8125 25.859375 L 18.886719 26.292969 C 18.960938 26.726562 19.1875 27.117188 19.527344 27.390625 L 20.820312 28.433594 C 20.964844 28.546875 20.9375 28.703125 20.925781 28.746094 C 20.914062 28.792969 20.863281 28.941406 20.683594 28.96875 L 10.398438 30.734375 C 10.222656 30.761719 10.125 30.640625 10.097656 30.605469 Z M 20.085938 30.890625 L 11.597656 32.34375 C 11.277344 32.402344 10.972656 32.183594 10.917969 31.863281 L 10.828125 31.320312 L 20.472656 29.664062 L 20.566406 30.207031 C 20.621094 30.527344 20.40625 30.835938 20.085938 30.890625 Z M 20.085938 30.890625 " fill-opacity="1" fill-rule="nonzero"/></g><path fill="#009dff" d="M 18.757812 15.671875 C 18.789062 15.683594 18.816406 15.6875 18.847656 15.6875 C 18.988281 15.6875 19.117188 15.59375 19.15625 15.449219 L 19.679688 13.621094 C 19.726562 13.449219 19.628906 13.269531 19.457031 13.21875 C 19.285156 13.171875 19.105469 13.269531 19.058594 13.441406 L 18.535156 15.273438 C 18.488281 15.445312 18.585938 15.625 18.757812 15.671875 Z M 18.757812 15.671875 " fill-opacity="1" fill-rule="nonzero"/><path fill="#009dff" d="M 19.691406 16.191406 C 19.753906 16.292969 19.859375 16.347656 19.96875 16.347656 C 20.023438 16.347656 20.082031 16.332031 20.136719 16.300781 L 21.175781 15.667969 C 21.332031 15.574219 21.378906 15.375 21.285156 15.222656 C 21.195312 15.066406 20.996094 15.019531 20.84375 15.109375 L 19.800781 15.746094 C 19.648438 15.835938 19.601562 16.035156 19.691406 16.191406 Z M 19.691406 16.191406 " fill-opacity="1" fill-rule="nonzero"/><path fill="#009dff" d="M 17.175781 14.953125 C 17.222656 15.082031 17.347656 15.160156 17.476562 15.160156 C 17.515625 15.160156 17.554688 15.15625 17.59375 15.140625 C 17.757812 15.074219 17.839844 14.886719 17.777344 14.722656 L 17.40625 13.753906 C 17.34375 13.585938 17.15625 13.503906 16.988281 13.566406 C 16.824219 13.632812 16.742188 13.820312 16.804688 13.988281 Z M 17.175781 14.953125 " fill-opacity="1" fill-rule="nonzero"/></svg>