<svg xmlns="http://www.w3.org/2000/svg" xmlns:xlink="http://www.w3.org/1999/xlink" width="50" zoomAndPan="magnify" viewBox="0 0 37.5 37.499999" height="50" preserveAspectRatio="xMidYMid meet" version="1.0"><defs><clipPath id="f433423942"><path d="M 5.121094 3.097656 L 32.121094 3.097656 L 32.121094 34.597656 L 5.121094 34.597656 Z M 5.121094 3.097656 " clip-rule="nonzero"/></clipPath></defs><g clip-path="url(#f433423942)"><path fill="#009dff" d="M 28.871094 13.773438 C 28.640625 13.773438 28.414062 13.816406 28.203125 13.90625 C 27.988281 13.996094 27.796875 14.125 27.632812 14.292969 C 27.46875 14.460938 27.34375 14.652344 27.253906 14.871094 C 27.164062 15.085938 27.121094 15.3125 27.121094 15.550781 L 27.121094 21.132812 C 27.121094 21.371094 27.164062 21.597656 27.253906 21.8125 C 27.34375 22.03125 27.46875 22.222656 27.632812 22.390625 C 27.796875 22.558594 27.988281 22.6875 28.203125 22.777344 C 28.414062 22.867188 28.640625 22.910156 28.871094 22.910156 L 30.371094 22.910156 C 30.601562 22.910156 30.828125 22.867188 31.039062 22.777344 C 31.253906 22.6875 31.445312 22.558594 31.609375 22.390625 C 31.773438 22.222656 31.898438 22.03125 31.988281 21.8125 C 32.078125 21.597656 32.121094 21.371094 32.121094 21.132812 L 32.121094 15.550781 C 32.121094 15.3125 32.078125 15.085938 31.988281 14.871094 C 31.898438 14.652344 31.773438 14.460938 31.609375 14.292969 C 31.445312 14.125 31.253906 13.996094 31.039062 13.90625 C 30.828125 13.816406 30.601562 13.773438 30.371094 13.773438 L 30.121094 13.773438 L 30.121094 9.964844 C 30.121094 9.726562 30.078125 9.5 29.988281 9.285156 C 29.898438 9.066406 29.773438 8.875 29.609375 8.707031 C 29.445312 8.539062 29.253906 8.414062 29.039062 8.324219 C 28.828125 8.230469 28.601562 8.1875 28.371094 8.1875 L 20.121094 8.1875 L 20.121094 6.15625 L 21.121094 6.15625 C 21.257812 6.15625 21.378906 6.105469 21.476562 6.007812 C 21.574219 5.90625 21.621094 5.789062 21.621094 5.648438 L 21.621094 3.617188 C 21.621094 3.476562 21.574219 3.355469 21.476562 3.257812 C 21.378906 3.160156 21.257812 3.109375 21.121094 3.109375 L 16.121094 3.109375 C 15.984375 3.109375 15.863281 3.160156 15.765625 3.257812 C 15.671875 3.355469 15.621094 3.476562 15.621094 3.617188 L 15.621094 5.648438 C 15.621094 5.789062 15.671875 5.90625 15.765625 6.007812 C 15.863281 6.105469 15.984375 6.15625 16.121094 6.15625 L 17.121094 6.15625 L 17.121094 8.1875 L 8.871094 8.1875 C 8.640625 8.1875 8.414062 8.230469 8.203125 8.324219 C 7.988281 8.414062 7.796875 8.539062 7.632812 8.707031 C 7.46875 8.875 7.34375 9.066406 7.253906 9.285156 C 7.164062 9.5 7.121094 9.726562 7.121094 9.964844 L 7.121094 13.773438 L 6.871094 13.773438 C 6.640625 13.773438 6.414062 13.816406 6.203125 13.90625 C 5.988281 13.996094 5.796875 14.125 5.632812 14.292969 C 5.46875 14.460938 5.34375 14.652344 5.253906 14.871094 C 5.164062 15.085938 5.121094 15.3125 5.121094 15.550781 L 5.121094 21.132812 C 5.121094 21.371094 5.164062 21.597656 5.253906 21.8125 C 5.34375 22.03125 5.46875 22.222656 5.632812 22.390625 C 5.796875 22.558594 5.988281 22.6875 6.203125 22.777344 C 6.414062 22.867188 6.640625 22.910156 6.871094 22.910156 L 8.371094 22.910156 C 8.601562 22.910156 8.828125 22.867188 9.039062 22.777344 C 9.253906 22.6875 9.445312 22.558594 9.609375 22.390625 C 9.773438 22.222656 9.898438 22.03125 9.988281 21.8125 C 10.078125 21.597656 10.121094 21.371094 10.121094 21.132812 L 10.121094 15.550781 C 10.121094 15.3125 10.078125 15.085938 9.988281 14.871094 C 9.898438 14.652344 9.773438 14.460938 9.609375 14.292969 C 9.445312 14.125 9.253906 13.996094 9.039062 13.90625 C 8.828125 13.816406 8.601562 13.773438 8.371094 13.773438 L 8.121094 13.773438 L 8.121094 9.964844 C 8.121094 9.753906 8.195312 9.574219 8.339844 9.425781 C 8.488281 9.277344 8.664062 9.203125 8.871094 9.203125 L 17.121094 9.203125 L 17.121094 11.742188 L 15.371094 11.742188 C 15.140625 11.742188 14.914062 11.785156 14.703125 11.875 C 14.488281 11.96875 14.296875 12.09375 14.132812 12.261719 C 13.96875 12.429688 13.84375 12.621094 13.753906 12.839844 C 13.664062 13.054688 13.621094 13.28125 13.621094 13.519531 L 13.621094 21.132812 C 13.621094 21.371094 13.664062 21.597656 13.753906 21.8125 C 13.84375 22.03125 13.96875 22.222656 14.132812 22.390625 C 14.296875 22.558594 14.488281 22.6875 14.703125 22.777344 C 14.914062 22.867188 15.140625 22.910156 15.371094 22.910156 L 17.121094 22.910156 L 17.121094 23.925781 L 15.371094 23.925781 C 15.140625 23.925781 14.914062 23.972656 14.703125 24.0625 C 14.488281 24.152344 14.296875 24.28125 14.132812 24.449219 C 13.96875 24.613281 13.84375 24.808594 13.753906 25.023438 C 13.664062 25.242188 13.621094 25.46875 13.621094 25.703125 L 13.621094 27.480469 C 13.621094 27.621094 13.671875 27.742188 13.765625 27.839844 C 13.863281 27.941406 13.984375 27.988281 14.121094 27.988281 L 15.621094 27.988281 L 15.621094 29.003906 C 15.621094 29.144531 15.671875 29.265625 15.765625 29.363281 C 15.863281 29.464844 15.984375 29.511719 16.121094 29.511719 L 17.121094 29.511719 L 17.121094 31.542969 L 8.574219 31.542969 C 8.238281 31.542969 7.914062 31.597656 7.597656 31.707031 C 7.28125 31.820312 6.988281 31.980469 6.726562 32.1875 C 6.460938 32.398438 6.238281 32.644531 6.058594 32.929688 C 5.875 33.214844 5.742188 33.523438 5.664062 33.851562 L 5.636719 33.960938 C 5.617188 34.035156 5.617188 34.113281 5.632812 34.1875 C 5.648438 34.265625 5.679688 34.332031 5.726562 34.394531 C 5.773438 34.457031 5.832031 34.503906 5.902344 34.539062 C 5.972656 34.574219 6.042969 34.589844 6.121094 34.589844 L 31.121094 34.589844 C 31.199219 34.589844 31.269531 34.574219 31.339844 34.539062 C 31.410156 34.503906 31.46875 34.457031 31.515625 34.394531 C 31.5625 34.332031 31.59375 34.265625 31.609375 34.1875 C 31.625 34.113281 31.625 34.035156 31.605469 33.960938 L 31.578125 33.851562 C 31.5 33.523438 31.367188 33.214844 31.183594 32.929688 C 31.003906 32.644531 30.78125 32.398438 30.515625 32.1875 C 30.253906 31.980469 29.960938 31.820312 29.644531 31.707031 C 29.328125 31.597656 29.003906 31.542969 28.667969 31.542969 L 20.121094 31.542969 L 20.121094 29.511719 L 21.121094 29.511719 C 21.257812 29.511719 21.378906 29.464844 21.476562 29.363281 C 21.574219 29.265625 21.621094 29.144531 21.621094 29.003906 L 21.621094 27.988281 L 23.121094 27.988281 C 23.257812 27.988281 23.378906 27.941406 23.476562 27.839844 C 23.574219 27.742188 23.621094 27.621094 23.621094 27.480469 L 23.621094 25.703125 C 23.621094 25.46875 23.578125 25.242188 23.488281 25.023438 C 23.398438 24.808594 23.273438 24.613281 23.109375 24.449219 C 22.945312 24.28125 22.753906 24.152344 22.539062 24.0625 C 22.328125 23.972656 22.101562 23.925781 21.871094 23.925781 L 20.121094 23.925781 L 20.121094 22.910156 L 21.871094 22.910156 C 22.101562 22.910156 22.328125 22.867188 22.539062 22.777344 C 22.753906 22.6875 22.945312 22.558594 23.109375 22.390625 C 23.273438 22.222656 23.398438 22.03125 23.488281 21.8125 C 23.578125 21.597656 23.621094 21.371094 23.621094 21.132812 L 23.621094 13.519531 C 23.621094 13.28125 23.578125 13.054688 23.488281 12.839844 C 23.398438 12.621094 23.273438 12.429688 23.109375 12.261719 C 22.945312 12.09375 22.753906 11.96875 22.539062 11.875 C 22.328125 11.785156 22.101562 11.742188 21.871094 11.742188 L 20.121094 11.742188 L 20.121094 9.203125 L 28.371094 9.203125 C 28.578125 9.203125 28.753906 9.277344 28.902344 9.425781 C 29.046875 9.574219 29.121094 9.753906 29.121094 9.964844 L 29.121094 13.773438 Z M 8.371094 14.789062 C 8.578125 14.789062 8.753906 14.863281 8.902344 15.011719 C 9.046875 15.160156 9.121094 15.339844 9.121094 15.550781 L 9.121094 21.132812 C 9.121094 21.34375 9.046875 21.523438 8.902344 21.671875 C 8.753906 21.820312 8.578125 21.894531 8.371094 21.894531 L 6.871094 21.894531 C 6.664062 21.894531 6.488281 21.820312 6.339844 21.671875 C 6.195312 21.523438 6.121094 21.34375 6.121094 21.132812 L 6.121094 15.550781 C 6.121094 15.339844 6.195312 15.160156 6.339844 15.011719 C 6.488281 14.863281 6.664062 14.789062 6.871094 14.789062 Z M 28.667969 32.558594 C 29.027344 32.558594 29.359375 32.648438 29.667969 32.832031 C 29.980469 33.011719 30.222656 33.261719 30.402344 33.574219 L 6.839844 33.574219 C 7.019531 33.261719 7.261719 33.011719 7.574219 32.832031 C 7.882812 32.648438 8.214844 32.558594 8.574219 32.558594 Z M 18.121094 31.542969 L 18.121094 29.511719 L 19.121094 29.511719 L 19.121094 31.542969 Z M 20.621094 28.496094 L 16.621094 28.496094 L 16.621094 27.988281 L 20.621094 27.988281 Z M 21.871094 24.941406 C 22.078125 24.941406 22.253906 25.015625 22.402344 25.167969 C 22.546875 25.316406 22.621094 25.496094 22.621094 25.703125 L 22.621094 26.972656 L 14.621094 26.972656 L 14.621094 25.703125 C 14.621094 25.496094 14.695312 25.316406 14.839844 25.167969 C 14.988281 25.015625 15.164062 24.941406 15.371094 24.941406 Z M 18.121094 23.925781 L 18.121094 22.910156 L 19.121094 22.910156 L 19.121094 23.925781 Z M 21.871094 12.757812 C 22.078125 12.757812 22.253906 12.832031 22.402344 12.980469 C 22.546875 13.128906 22.621094 13.308594 22.621094 13.519531 L 22.621094 21.132812 C 22.621094 21.34375 22.546875 21.523438 22.402344 21.671875 C 22.253906 21.820312 22.078125 21.894531 21.871094 21.894531 L 15.371094 21.894531 C 15.164062 21.894531 14.988281 21.820312 14.839844 21.671875 C 14.695312 21.523438 14.621094 21.34375 14.621094 21.132812 L 14.621094 13.519531 C 14.621094 13.308594 14.695312 13.128906 14.839844 12.980469 C 14.988281 12.832031 15.164062 12.757812 15.371094 12.757812 Z M 18.121094 11.742188 L 18.121094 6.15625 L 19.121094 6.15625 L 19.121094 11.742188 Z M 16.621094 5.140625 L 16.621094 4.125 L 20.621094 4.125 L 20.621094 5.140625 Z M 30.371094 14.789062 C 30.578125 14.789062 30.753906 14.863281 30.902344 15.011719 C 31.046875 15.160156 31.121094 15.339844 31.121094 15.550781 L 31.121094 21.132812 C 31.121094 21.34375 31.046875 21.523438 30.902344 21.671875 C 30.753906 21.820312 30.578125 21.894531 30.371094 21.894531 L 28.871094 21.894531 C 28.664062 21.894531 28.488281 21.820312 28.339844 21.671875 C 28.195312 21.523438 28.121094 21.34375 28.121094 21.132812 L 28.121094 15.550781 C 28.121094 15.339844 28.195312 15.160156 28.339844 15.011719 C 28.488281 14.863281 28.664062 14.789062 28.871094 14.789062 Z M 30.371094 14.789062 " fill-opacity="1" fill-rule="nonzero"/></g></svg>