<svg xmlns="http://www.w3.org/2000/svg" xmlns:xlink="http://www.w3.org/1999/xlink" width="50" zoomAndPan="magnify" viewBox="0 0 37.5 37.499999" height="50" preserveAspectRatio="xMidYMid meet" version="1.0"><defs><clipPath id="41e5e54e31"><path d="M 4.574219 4.574219 L 34.574219 4.574219 L 34.574219 34.574219 L 4.574219 34.574219 Z M 4.574219 4.574219 " clip-rule="nonzero"/></clipPath></defs><path fill="#ffffff" d="M 17.351562 12.480469 C 13.011719 12.480469 9.480469 16.011719 9.480469 20.351562 C 9.480469 24.691406 13.011719 28.222656 17.351562 28.222656 C 21.691406 28.222656 25.21875 24.691406 25.21875 20.351562 C 25.21875 16.011719 21.691406 12.480469 17.351562 12.480469 Z M 17.351562 27.746094 C 13.273438 27.746094 9.957031 24.429688 9.957031 20.351562 C 9.957031 16.273438 13.273438 12.957031 17.351562 12.957031 C 21.425781 12.957031 24.746094 16.273438 24.746094 20.351562 C 24.746094 24.429688 21.425781 27.746094 17.351562 27.746094 Z M 17.351562 27.746094 " fill-opacity="1" fill-rule="nonzero"/><path fill="#ffffff" d="M 21.46875 16.011719 C 21.460938 16.003906 21.453125 15.996094 21.441406 15.988281 C 21.097656 15.664062 20.71875 15.382812 20.308594 15.148438 C 20.300781 15.144531 20.292969 15.140625 20.285156 15.136719 C 19.960938 14.953125 19.617188 14.796875 19.257812 14.679688 C 19.253906 14.675781 19.246094 14.675781 19.238281 14.671875 C 18.644531 14.472656 18.011719 14.363281 17.351562 14.363281 C 14.535156 14.363281 12.136719 16.277344 11.511719 19.019531 C 11.496094 19.089844 11.511719 19.164062 11.558594 19.222656 C 11.601562 19.277344 11.671875 19.308594 11.742188 19.308594 L 14.140625 19.308594 C 14.554688 19.308594 14.890625 19.777344 14.890625 20.351562 C 14.890625 20.925781 14.554688 21.394531 14.140625 21.394531 L 11.742188 21.394531 C 11.671875 21.394531 11.601562 21.425781 11.558594 21.484375 C 11.511719 21.539062 11.496094 21.613281 11.511719 21.683594 C 12.136719 24.425781 14.535156 26.339844 17.351562 26.339844 C 18.011719 26.339844 18.644531 26.230469 19.238281 26.03125 C 19.246094 26.03125 19.253906 26.027344 19.257812 26.027344 C 19.617188 25.90625 19.960938 25.753906 20.285156 25.570312 C 20.292969 25.566406 20.296875 25.5625 20.304688 25.558594 C 20.714844 25.324219 21.097656 25.042969 21.441406 24.71875 C 21.449219 24.710938 21.460938 24.703125 21.46875 24.691406 C 22.621094 23.601562 23.339844 22.058594 23.339844 20.351562 C 23.339844 18.644531 22.617188 17.101562 21.46875 16.011719 Z M 20.433594 15.785156 C 20.652344 15.933594 20.859375 16.097656 21.054688 16.273438 L 21.054688 24.433594 C 20.859375 24.609375 20.652344 24.769531 20.433594 24.917969 Z M 19.957031 25.207031 C 19.777344 25.304688 19.589844 25.390625 19.398438 25.46875 L 19.398438 15.238281 C 19.589844 15.3125 19.777344 15.402344 19.957031 15.5 Z M 12.050781 21.871094 L 14.140625 21.871094 C 14.816406 21.871094 15.367188 21.191406 15.367188 20.351562 C 15.367188 19.515625 14.816406 18.835938 14.140625 18.835938 L 12.050781 18.835938 C 12.722656 16.46875 14.859375 14.839844 17.351562 14.839844 C 17.894531 14.839844 18.421875 14.921875 18.921875 15.070312 L 18.921875 25.632812 C 18.421875 25.78125 17.898438 25.863281 17.351562 25.863281 C 14.859375 25.863281 12.722656 24.238281 12.050781 21.871094 Z M 21.527344 23.941406 L 21.527344 16.765625 C 22.359375 17.730469 22.863281 18.984375 22.863281 20.351562 C 22.863281 21.722656 22.359375 22.976562 21.527344 23.941406 Z M 21.527344 23.941406 " fill-opacity="1" fill-rule="nonzero"/><path fill="#ffffff" d="M 7.242188 8.425781 C 7.96875 8.425781 8.5625 7.832031 8.5625 7.105469 C 8.5625 6.378906 7.96875 5.785156 7.242188 5.785156 C 6.515625 5.785156 5.921875 6.378906 5.921875 7.105469 C 5.921875 7.832031 6.515625 8.425781 7.242188 8.425781 Z M 7.242188 6.261719 C 7.707031 6.261719 8.085938 6.640625 8.085938 7.105469 C 8.085938 7.570312 7.707031 7.949219 7.242188 7.949219 C 6.777344 7.949219 6.398438 7.570312 6.398438 7.105469 C 6.398438 6.640625 6.777344 6.261719 7.242188 6.261719 Z M 7.242188 6.261719 " fill-opacity="1" fill-rule="nonzero"/><path fill="#ffffff" d="M 10.105469 8.484375 L 14.945312 8.484375 C 15.078125 8.484375 15.183594 8.378906 15.183594 8.25 L 15.183594 5.960938 C 15.183594 5.828125 15.078125 5.722656 14.945312 5.722656 L 10.105469 5.722656 C 9.976562 5.722656 9.867188 5.828125 9.867188 5.960938 L 9.867188 8.25 C 9.867188 8.378906 9.976562 8.484375 10.105469 8.484375 Z M 10.34375 6.199219 L 14.707031 6.199219 L 14.707031 8.011719 L 10.34375 8.011719 Z M 10.34375 6.199219 " fill-opacity="1" fill-rule="nonzero"/><path fill="#ffffff" d="M 17.75 6.136719 C 17.75 6.210938 17.722656 6.273438 17.671875 6.328125 C 17.617188 6.382812 17.554688 6.40625 17.480469 6.40625 C 17.402344 6.40625 17.339844 6.382812 17.285156 6.328125 C 17.234375 6.273438 17.207031 6.210938 17.207031 6.136719 C 17.207031 6.058594 17.234375 5.996094 17.285156 5.941406 C 17.339844 5.890625 17.402344 5.863281 17.480469 5.863281 C 17.554688 5.863281 17.617188 5.890625 17.671875 5.941406 C 17.722656 5.996094 17.75 6.058594 17.75 6.136719 Z M 17.75 6.136719 " fill-opacity="1" fill-rule="nonzero"/><path fill="#ffffff" d="M 17.75 7.917969 C 17.75 7.992188 17.722656 8.054688 17.671875 8.109375 C 17.617188 8.164062 17.554688 8.1875 17.480469 8.1875 C 17.402344 8.1875 17.339844 8.164062 17.285156 8.109375 C 17.234375 8.054688 17.207031 7.992188 17.207031 7.917969 C 17.207031 7.839844 17.234375 7.777344 17.285156 7.722656 C 17.339844 7.671875 17.402344 7.644531 17.480469 7.644531 C 17.554688 7.644531 17.617188 7.671875 17.671875 7.722656 C 17.722656 7.777344 17.75 7.839844 17.75 7.917969 Z M 17.75 7.917969 " fill-opacity="1" fill-rule="nonzero"/><path fill="#ffffff" d="M 19.605469 6.136719 C 19.605469 6.210938 19.578125 6.273438 19.527344 6.328125 C 19.472656 6.382812 19.410156 6.40625 19.332031 6.40625 C 19.257812 6.40625 19.195312 6.382812 19.140625 6.328125 C 19.085938 6.273438 19.0625 6.210938 19.0625 6.136719 C 19.0625 6.058594 19.085938 5.996094 19.140625 5.941406 C 19.195312 5.890625 19.257812 5.863281 19.332031 5.863281 C 19.410156 5.863281 19.472656 5.890625 19.527344 5.941406 C 19.578125 5.996094 19.605469 6.058594 19.605469 6.136719 Z M 19.605469 6.136719 " fill-opacity="1" fill-rule="nonzero"/><path fill="#ffffff" d="M 19.605469 7.917969 C 19.605469 7.992188 19.578125 8.054688 19.527344 8.109375 C 19.472656 8.164062 19.410156 8.1875 19.332031 8.1875 C 19.257812 8.1875 19.195312 8.164062 19.140625 8.109375 C 19.085938 8.054688 19.0625 7.992188 19.0625 7.917969 C 19.0625 7.839844 19.085938 7.777344 19.140625 7.722656 C 19.195312 7.671875 19.257812 7.644531 19.332031 7.644531 C 19.410156 7.644531 19.472656 7.671875 19.527344 7.722656 C 19.578125 7.777344 19.605469 7.839844 19.605469 7.917969 Z M 19.605469 7.917969 " fill-opacity="1" fill-rule="nonzero"/><path fill="#ffffff" d="M 21.460938 6.136719 C 21.460938 6.210938 21.433594 6.273438 21.382812 6.328125 C 21.328125 6.382812 21.261719 6.40625 21.1875 6.40625 C 21.113281 6.40625 21.050781 6.382812 20.996094 6.328125 C 20.941406 6.273438 20.914062 6.210938 20.914062 6.136719 C 20.914062 6.058594 20.941406 5.996094 20.996094 5.941406 C 21.050781 5.890625 21.113281 5.863281 21.1875 5.863281 C 21.261719 5.863281 21.328125 5.890625 21.382812 5.941406 C 21.433594 5.996094 21.460938 6.058594 21.460938 6.136719 Z M 21.460938 6.136719 " fill-opacity="1" fill-rule="nonzero"/><path fill="#ffffff" d="M 21.460938 7.917969 C 21.460938 7.992188 21.433594 8.054688 21.382812 8.109375 C 21.328125 8.164062 21.261719 8.1875 21.1875 8.1875 C 21.113281 8.1875 21.050781 8.164062 20.996094 8.109375 C 20.941406 8.054688 20.914062 7.992188 20.914062 7.917969 C 20.914062 7.839844 20.941406 7.777344 20.996094 7.722656 C 21.050781 7.671875 21.113281 7.644531 21.1875 7.644531 C 21.261719 7.644531 21.328125 7.671875 21.382812 7.722656 C 21.433594 7.777344 21.460938 7.839844 21.460938 7.917969 Z M 21.460938 7.917969 " fill-opacity="1" fill-rule="nonzero"/><path fill="#ffffff" d="M 23.042969 6.40625 C 23.191406 6.40625 23.316406 6.285156 23.316406 6.136719 C 23.316406 5.984375 23.191406 5.863281 23.042969 5.863281 C 22.894531 5.863281 22.769531 5.984375 22.769531 6.136719 C 22.769531 6.285156 22.894531 6.40625 23.042969 6.40625 Z M 23.042969 6.40625 " fill-opacity="1" fill-rule="nonzero"/><path fill="#ffffff" d="M 23.042969 8.1875 C 23.191406 8.1875 23.316406 8.066406 23.316406 7.917969 C 23.316406 7.765625 23.191406 7.644531 23.042969 7.644531 C 22.894531 7.644531 22.769531 7.765625 22.769531 7.917969 C 22.769531 8.066406 22.894531 8.1875 23.042969 8.1875 Z M 23.042969 8.1875 " fill-opacity="1" fill-rule="nonzero"/><path fill="#ffffff" d="M 25.171875 6.136719 C 25.171875 6.210938 25.144531 6.273438 25.089844 6.328125 C 25.039062 6.382812 24.972656 6.40625 24.898438 6.40625 C 24.824219 6.40625 24.757812 6.382812 24.707031 6.328125 C 24.652344 6.273438 24.625 6.210938 24.625 6.136719 C 24.625 6.058594 24.652344 5.996094 24.707031 5.941406 C 24.757812 5.890625 24.824219 5.863281 24.898438 5.863281 C 24.972656 5.863281 25.039062 5.890625 25.089844 5.941406 C 25.144531 5.996094 25.171875 6.058594 25.171875 6.136719 Z M 25.171875 6.136719 " fill-opacity="1" fill-rule="nonzero"/><path fill="#ffffff" d="M 25.171875 7.917969 C 25.171875 7.992188 25.144531 8.054688 25.089844 8.109375 C 25.039062 8.164062 24.972656 8.1875 24.898438 8.1875 C 24.824219 8.1875 24.757812 8.164062 24.707031 8.109375 C 24.652344 8.054688 24.625 7.992188 24.625 7.917969 C 24.625 7.839844 24.652344 7.777344 24.707031 7.722656 C 24.757812 7.671875 24.824219 7.644531 24.898438 7.644531 C 24.972656 7.644531 25.039062 7.671875 25.089844 7.722656 C 25.144531 7.777344 25.171875 7.839844 25.171875 7.917969 Z M 25.171875 7.917969 " fill-opacity="1" fill-rule="nonzero"/><path fill="#ffffff" d="M 27.027344 6.136719 C 27.027344 6.210938 27 6.273438 26.945312 6.328125 C 26.890625 6.382812 26.828125 6.40625 26.753906 6.40625 C 26.679688 6.40625 26.613281 6.382812 26.558594 6.328125 C 26.507812 6.273438 26.480469 6.210938 26.480469 6.136719 C 26.480469 6.058594 26.507812 5.996094 26.558594 5.941406 C 26.613281 5.890625 26.679688 5.863281 26.753906 5.863281 C 26.828125 5.863281 26.890625 5.890625 26.945312 5.941406 C 27 5.996094 27.027344 6.058594 27.027344 6.136719 Z M 27.027344 6.136719 " fill-opacity="1" fill-rule="nonzero"/><path fill="#ffffff" d="M 27.027344 7.917969 C 27.027344 7.992188 27 8.054688 26.945312 8.109375 C 26.890625 8.164062 26.828125 8.1875 26.753906 8.1875 C 26.679688 8.1875 26.613281 8.164062 26.558594 8.109375 C 26.507812 8.054688 26.480469 7.992188 26.480469 7.917969 C 26.480469 7.839844 26.507812 7.777344 26.558594 7.722656 C 26.613281 7.671875 26.679688 7.644531 26.753906 7.644531 C 26.828125 7.644531 26.890625 7.671875 26.945312 7.722656 C 27 7.777344 27.027344 7.839844 27.027344 7.917969 Z M 27.027344 7.917969 " fill-opacity="1" fill-rule="nonzero"/><path fill="#ffffff" d="M 28.878906 6.136719 C 28.878906 6.210938 28.855469 6.273438 28.800781 6.328125 C 28.746094 6.382812 28.683594 6.40625 28.609375 6.40625 C 28.53125 6.40625 28.46875 6.382812 28.414062 6.328125 C 28.363281 6.273438 28.335938 6.210938 28.335938 6.136719 C 28.335938 6.058594 28.363281 5.996094 28.414062 5.941406 C 28.46875 5.890625 28.53125 5.863281 28.609375 5.863281 C 28.683594 5.863281 28.746094 5.890625 28.800781 5.941406 C 28.855469 5.996094 28.878906 6.058594 28.878906 6.136719 Z M 28.878906 6.136719 " fill-opacity="1" fill-rule="nonzero"/><path fill="#ffffff" d="M 28.878906 7.917969 C 28.878906 7.992188 28.855469 8.054688 28.800781 8.109375 C 28.746094 8.164062 28.683594 8.1875 28.609375 8.1875 C 28.53125 8.1875 28.46875 8.164062 28.414062 8.109375 C 28.363281 8.054688 28.335938 7.992188 28.335938 7.917969 C 28.335938 7.839844 28.363281 7.777344 28.414062 7.722656 C 28.46875 7.671875 28.53125 7.644531 28.609375 7.644531 C 28.683594 7.644531 28.746094 7.671875 28.800781 7.722656 C 28.855469 7.777344 28.878906 7.839844 28.878906 7.917969 Z M 28.878906 7.917969 " fill-opacity="1" fill-rule="nonzero"/><g clip-path="url(#41e5e54e31)"><path fill="#ffffff" d="M 34.511719 27.558594 C 34.464844 27.507812 34.402344 27.480469 34.335938 27.480469 L 34.15625 27.480469 C 34.140625 25.867188 33.449219 24.71875 32.234375 24.304688 C 31.632812 24.097656 30.875 24.109375 30.125 24.277344 L 30.125 4.8125 C 30.125 4.683594 30.019531 4.574219 29.886719 4.574219 L 4.8125 4.574219 C 4.679688 4.574219 4.574219 4.683594 4.574219 4.8125 L 4.574219 31.867188 C 4.574219 32 4.679688 32.105469 4.8125 32.105469 L 24.199219 32.105469 L 24.375 34.355469 C 24.382812 34.480469 24.488281 34.574219 24.613281 34.574219 L 33.828125 34.574219 C 33.949219 34.574219 34.054688 34.480469 34.0625 34.355469 L 34.574219 27.738281 C 34.578125 27.671875 34.558594 27.605469 34.511719 27.558594 Z M 32.082031 24.753906 C 33.417969 25.210938 33.671875 26.570312 33.683594 27.480469 L 30.460938 27.480469 C 30.417969 27.226562 30.292969 26.8125 29.933594 26.445312 C 29.535156 26.039062 28.953125 25.796875 28.214844 25.722656 C 29.144531 24.859375 30.960938 24.371094 32.082031 24.753906 Z M 27.707031 26.171875 C 28.558594 26.171875 29.191406 26.375 29.585938 26.773438 C 29.835938 27.019531 29.933594 27.292969 29.976562 27.480469 L 24.953125 27.480469 C 25.238281 27.011719 25.988281 26.171875 27.707031 26.171875 Z M 29.648438 9 L 16.265625 9 L 16.265625 5.050781 L 29.648438 5.050781 Z M 15.789062 5.050781 L 15.789062 9 L 5.050781 9 L 5.050781 5.050781 Z M 5.050781 31.628906 L 5.050781 9.476562 L 29.648438 9.476562 L 29.648438 24.402344 C 28.8125 24.667969 28.042969 25.128906 27.589844 25.703125 C 25.402344 25.746094 24.625 27.015625 24.414062 27.480469 L 24.101562 27.480469 C 24.035156 27.480469 23.972656 27.507812 23.925781 27.558594 C 23.882812 27.605469 23.859375 27.671875 23.863281 27.738281 L 24.164062 31.628906 Z M 33.605469 34.097656 L 24.832031 34.097656 L 24.359375 27.957031 L 34.078125 27.957031 Z M 33.605469 34.097656 " fill-opacity="1" fill-rule="nonzero"/></g><path fill="#ffffff" d="M 30.742188 28.792969 L 27.695312 28.792969 C 27.300781 28.792969 26.980469 29.113281 26.980469 29.503906 L 26.980469 29.574219 C 26.980469 29.96875 27.300781 30.289062 27.695312 30.289062 L 30.742188 30.289062 C 31.136719 30.289062 31.457031 29.96875 31.457031 29.574219 L 31.457031 29.503906 C 31.457031 29.113281 31.136719 28.792969 30.742188 28.792969 Z M 30.980469 29.574219 C 30.980469 29.707031 30.875 29.8125 30.742188 29.8125 L 27.695312 29.8125 C 27.5625 29.8125 27.457031 29.707031 27.457031 29.574219 L 27.457031 29.503906 C 27.457031 29.375 27.5625 29.269531 27.695312 29.269531 L 30.742188 29.269531 C 30.875 29.269531 30.980469 29.375 30.980469 29.503906 Z M 30.980469 29.574219 " fill-opacity="1" fill-rule="nonzero"/></svg>