<svg xmlns="http://www.w3.org/2000/svg" xmlns:xlink="http://www.w3.org/1999/xlink" width="50" zoomAndPan="magnify" viewBox="0 0 37.5 37.499999" height="50" preserveAspectRatio="xMidYMid meet" version="1.0"><defs><clipPath id="e72d007478"><path d="M 0 18 L 37.007812 18 L 37.007812 22 L 0 22 Z M 0 18 " clip-rule="nonzero"/></clipPath><clipPath id="11fb163b59"><path d="M 0 23 L 37.007812 23 L 37.007812 27 L 0 27 Z M 0 23 " clip-rule="nonzero"/></clipPath><clipPath id="217f099ecb"><path d="M 0 28 L 37.007812 28 L 37.007812 31.828125 L 0 31.828125 Z M 0 28 " clip-rule="nonzero"/></clipPath><clipPath id="dea4ab9d58"><path d="M 11 5.578125 L 26 5.578125 L 26 19 L 11 19 Z M 11 5.578125 " clip-rule="nonzero"/></clipPath></defs><g clip-path="url(#e72d007478)"><path fill="#ffffff" d="M 30.128906 21.269531 C 29.148438 21.269531 28.222656 20.890625 27.53125 20.199219 C 26.453125 19.125 24.703125 19.125 23.628906 20.199219 C 22.195312 21.625 19.863281 21.625 18.429688 20.199219 C 17.355469 19.125 15.601562 19.125 14.527344 20.199219 C 13.09375 21.625 10.761719 21.625 9.328125 20.199219 C 8.808594 19.679688 8.113281 19.394531 7.378906 19.394531 C 6.640625 19.394531 5.949219 19.679688 5.425781 20.199219 C 3.992188 21.625 1.660156 21.625 0.230469 20.199219 C 0.0507812 20.019531 0.0507812 19.730469 0.230469 19.550781 C 0.40625 19.375 0.699219 19.375 0.878906 19.550781 C 1.953125 20.625 3.703125 20.625 4.777344 19.550781 C 5.472656 18.859375 6.394531 18.480469 7.378906 18.480469 C 8.359375 18.480469 9.285156 18.859375 9.976562 19.550781 C 11.054688 20.625 12.804688 20.625 13.878906 19.550781 C 15.3125 18.125 17.644531 18.125 19.078125 19.550781 C 20.152344 20.625 21.902344 20.625 22.980469 19.550781 C 24.414062 18.125 26.746094 18.125 28.179688 19.550781 C 28.699219 20.070312 29.390625 20.355469 30.128906 20.355469 C 30.867188 20.355469 31.558594 20.070312 32.078125 19.550781 C 33.511719 18.125 35.84375 18.125 37.277344 19.550781 C 37.457031 19.730469 37.457031 20.019531 37.277344 20.199219 C 37.101562 20.375 36.808594 20.375 36.628906 20.199219 C 35.554688 19.125 33.804688 19.125 32.730469 20.199219 C 32.035156 20.890625 31.109375 21.269531 30.128906 21.269531 " fill-opacity="1" fill-rule="nonzero"/></g><g clip-path="url(#11fb163b59)"><path fill="#ffffff" d="M 30.128906 26.371094 C 29.148438 26.371094 28.222656 25.992188 27.53125 25.300781 C 26.453125 24.226562 24.703125 24.226562 23.628906 25.300781 C 22.195312 26.726562 19.863281 26.726562 18.429688 25.300781 C 17.355469 24.226562 15.601562 24.226562 14.527344 25.300781 C 13.09375 26.726562 10.761719 26.726562 9.328125 25.300781 C 8.808594 24.78125 8.113281 24.492188 7.378906 24.492188 C 6.640625 24.492188 5.949219 24.78125 5.425781 25.300781 C 3.992188 26.726562 1.660156 26.726562 0.230469 25.300781 C 0.0507812 25.121094 0.0507812 24.832031 0.230469 24.652344 C 0.40625 24.472656 0.699219 24.472656 0.878906 24.652344 C 1.953125 25.722656 3.703125 25.722656 4.777344 24.652344 C 5.472656 23.960938 6.394531 23.578125 7.378906 23.578125 C 8.359375 23.578125 9.285156 23.960938 9.976562 24.652344 C 11.054688 25.726562 12.804688 25.726562 13.878906 24.652344 C 15.3125 23.222656 17.644531 23.222656 19.078125 24.652344 C 20.152344 25.726562 21.902344 25.726562 22.980469 24.652344 C 24.414062 23.222656 26.746094 23.222656 28.179688 24.652344 C 28.699219 25.171875 29.390625 25.457031 30.128906 25.457031 C 30.867188 25.457031 31.558594 25.171875 32.078125 24.652344 C 33.511719 23.222656 35.84375 23.222656 37.277344 24.652344 C 37.457031 24.832031 37.457031 25.121094 37.277344 25.300781 C 37.101562 25.476562 36.808594 25.476562 36.628906 25.300781 C 35.554688 24.226562 33.804688 24.226562 32.730469 25.300781 C 32.035156 25.992188 31.109375 26.371094 30.128906 26.371094 " fill-opacity="1" fill-rule="nonzero"/></g><g clip-path="url(#217f099ecb)"><path fill="#ffffff" d="M 30.128906 31.472656 C 29.1875 31.472656 28.246094 31.113281 27.53125 30.398438 C 27.007812 29.878906 26.316406 29.59375 25.578125 29.59375 C 24.84375 29.59375 24.148438 29.878906 23.628906 30.398438 C 22.195312 31.828125 19.863281 31.828125 18.429688 30.398438 C 17.90625 29.878906 17.214844 29.59375 16.476562 29.59375 C 15.742188 29.59375 15.050781 29.878906 14.527344 30.398438 C 13.09375 31.828125 10.761719 31.828125 9.328125 30.398438 C 8.808594 29.878906 8.113281 29.59375 7.378906 29.59375 C 6.640625 29.59375 5.949219 29.878906 5.425781 30.398438 C 3.992188 31.828125 1.660156 31.828125 0.230469 30.398438 C 0.0507812 30.222656 0.0507812 29.933594 0.230469 29.753906 C 0.40625 29.574219 0.699219 29.574219 0.878906 29.753906 C 1.953125 30.824219 3.703125 30.824219 4.777344 29.753906 C 5.472656 29.0625 6.394531 28.679688 7.378906 28.679688 C 8.359375 28.679688 9.285156 29.0625 9.976562 29.753906 C 11.054688 30.824219 12.804688 30.824219 13.878906 29.753906 C 14.574219 29.0625 15.496094 28.679688 16.476562 28.679688 C 17.460938 28.679688 18.382812 29.0625 19.078125 29.753906 C 20.152344 30.824219 21.902344 30.824219 22.980469 29.753906 C 23.675781 29.0625 24.597656 28.679688 25.578125 28.679688 C 26.5625 28.679688 27.484375 29.0625 28.179688 29.753906 C 28.699219 30.273438 29.390625 30.558594 30.128906 30.558594 C 30.867188 30.558594 31.558594 30.273438 32.078125 29.753906 C 32.773438 29.0625 33.699219 28.679688 34.679688 28.679688 C 35.660156 28.679688 36.585938 29.0625 37.277344 29.753906 C 37.457031 29.933594 37.457031 30.222656 37.277344 30.398438 C 37.101562 30.578125 36.808594 30.578125 36.628906 30.398438 C 36.109375 29.878906 35.417969 29.59375 34.679688 29.59375 C 33.941406 29.59375 33.25 29.878906 32.730469 30.398438 C 32.011719 31.113281 31.070312 31.472656 30.128906 31.472656 " fill-opacity="1" fill-rule="nonzero"/></g><g clip-path="url(#dea4ab9d58)"><path fill="#ffffff" d="M 12.457031 15.214844 L 12.457031 13.539062 L 20.492188 13.539062 L 20.492188 15.214844 Z M 23.230469 5.582031 C 21.722656 5.582031 20.492188 6.804688 20.492188 8.308594 L 20.492188 12.625 L 12.457031 12.625 L 12.457031 8.308594 C 12.457031 7.308594 13.273438 6.496094 14.277344 6.496094 C 15.28125 6.496094 16.097656 7.308594 16.097656 8.308594 L 16.097656 9.4375 C 16.097656 9.691406 16.300781 9.894531 16.554688 9.894531 C 16.808594 9.894531 17.011719 9.691406 17.011719 9.4375 L 17.011719 8.308594 C 17.011719 6.804688 15.785156 5.582031 14.277344 5.582031 C 12.769531 5.582031 11.539062 6.804688 11.539062 8.308594 L 11.539062 18.183594 C 11.539062 18.433594 11.746094 18.640625 12 18.640625 C 12.253906 18.640625 12.457031 18.433594 12.457031 18.183594 L 12.457031 16.128906 L 20.492188 16.128906 L 20.492188 18.183594 C 20.492188 18.433594 20.699219 18.640625 20.953125 18.640625 C 21.207031 18.640625 21.410156 18.433594 21.410156 18.183594 L 21.410156 15.710938 C 21.414062 15.699219 21.414062 15.6875 21.414062 15.671875 C 21.414062 15.660156 21.414062 15.644531 21.410156 15.632812 L 21.410156 13.121094 C 21.414062 13.109375 21.414062 13.097656 21.414062 13.082031 C 21.414062 13.070312 21.414062 13.054688 21.410156 13.042969 L 21.410156 8.308594 C 21.410156 7.308594 22.226562 6.496094 23.230469 6.496094 C 24.234375 6.496094 25.050781 7.308594 25.050781 8.308594 L 25.050781 9.4375 C 25.050781 9.691406 25.253906 9.894531 25.507812 9.894531 C 25.761719 9.894531 25.964844 9.691406 25.964844 9.4375 L 25.964844 8.308594 C 25.964844 6.804688 24.738281 5.582031 23.230469 5.582031 " fill-opacity="1" fill-rule="nonzero"/></g></svg>