<svg xmlns="http://www.w3.org/2000/svg" xmlns:xlink="http://www.w3.org/1999/xlink" width="500" zoomAndPan="magnify" viewBox="0 0 375 149.999998" height="200" preserveAspectRatio="xMidYMid meet" version="1.0"><defs><g/></defs><g fill="#007bff" fill-opacity="1"><g transform="translate(8.349527, 88.315315)"><g><path d="M 32 -54.484375 L 23.375 -27.578125 L 40.40625 -27.578125 Z M 1.140625 0 L 1.140625 -6.703125 L 10.09375 -7.9375 L 32.796875 -74 L 46.421875 -74 L 69.34375 -7.03125 L 75.484375 -6.359375 L 75.484375 0 L 38.8125 0 L 38.8125 -6.359375 L 46.65625 -7.484375 L 42.5625 -20.4375 L 21.109375 -20.4375 L 17.140625 -8.0625 L 24.96875 -6.703125 L 24.96875 0 Z M 1.140625 0 "/></g></g></g><g fill="#007bff" fill-opacity="1"><g transform="translate(85.525605, 88.315315)"><g><path d="M 2.609375 0 L 2.609375 -5.78125 L 7.828125 -7.03125 C 7.898438 -9.757812 7.9375 -12.65625 7.9375 -15.71875 C 7.9375 -18.78125 7.9375 -21.484375 7.9375 -23.828125 L 7.9375 -30.875 C 7.9375 -32.988281 7.914062 -34.6875 7.875 -35.96875 C 7.84375 -37.257812 7.804688 -38.472656 7.765625 -39.609375 C 7.734375 -40.742188 7.679688 -42.066406 7.609375 -43.578125 L 1.46875 -44.609375 L 1.46875 -49.265625 L 26.5625 -57.09375 L 28.609375 -55.84375 L 29.171875 -48.015625 C 32.273438 -51.640625 35.128906 -54.054688 37.734375 -55.265625 C 40.347656 -56.484375 43.242188 -57.09375 46.421875 -57.09375 C 51.335938 -57.09375 55.421875 -55.484375 58.671875 -52.265625 C 61.929688 -49.046875 63.5625 -44.335938 63.5625 -38.140625 L 63.5625 -23.828125 C 63.5625 -21.410156 63.5625 -18.648438 63.5625 -15.546875 C 63.5625 -12.441406 63.597656 -9.53125 63.671875 -6.8125 L 68.4375 -5.78125 L 68.4375 0 L 37 0 L 37 -5.78125 L 41.875 -6.921875 C 41.957031 -9.648438 42 -12.5625 42 -15.65625 C 42 -18.757812 42 -21.484375 42 -23.828125 L 42 -36.65625 C 42 -39.6875 41.597656 -41.828125 40.796875 -43.078125 C 40.003906 -44.328125 38.703125 -44.953125 36.890625 -44.953125 C 34.765625 -44.953125 32.304688 -43.96875 29.515625 -42 L 29.515625 -23.828125 C 29.515625 -21.484375 29.515625 -18.738281 29.515625 -15.59375 C 29.515625 -12.457031 29.550781 -9.492188 29.625 -6.703125 L 33.9375 -5.78125 L 33.9375 0 Z M 2.609375 0 "/></g></g></g><g fill="#007bff" fill-opacity="1"><g transform="translate(155.892015, 88.315315)"><g><path d="M 28.265625 -26.5625 C 30.535156 -26.5625 32.160156 -27.65625 33.140625 -29.84375 C 34.128906 -32.039062 34.625 -35.109375 34.625 -39.046875 C 34.625 -43.054688 34.09375 -46.117188 33.03125 -48.234375 C 31.96875 -50.359375 30.378906 -51.421875 28.265625 -51.421875 C 26.140625 -51.421875 24.582031 -50.359375 23.59375 -48.234375 C 22.613281 -46.117188 22.125 -43.054688 22.125 -39.046875 C 22.125 -35.109375 22.578125 -32.039062 23.484375 -29.84375 C 24.398438 -27.65625 25.992188 -26.5625 28.265625 -26.5625 Z M 12.484375 8.515625 C 12.484375 11.765625 13.675781 14.125 16.0625 15.59375 C 18.445312 17.070312 22.363281 17.8125 27.8125 17.8125 C 33.332031 17.8125 37.453125 17.09375 40.171875 15.65625 C 42.898438 14.21875 44.265625 12.441406 44.265625 10.328125 C 44.265625 9.046875 43.734375 7.796875 42.671875 6.578125 C 41.617188 5.367188 39.765625 4.765625 37.109375 4.765625 L 25.765625 4.765625 C 23.335938 4.765625 21.082031 4.671875 19 4.484375 C 16.925781 4.296875 15.054688 3.9375 13.390625 3.40625 C 12.785156 4.84375 12.484375 6.546875 12.484375 8.515625 Z M 28.265625 -20.890625 C 23.953125 -20.890625 20.242188 -21.34375 17.140625 -22.25 C 16.609375 -21.113281 16.34375 -19.675781 16.34375 -17.9375 C 16.34375 -16.71875 16.851562 -15.75 17.875 -15.03125 C 18.894531 -14.3125 20.578125 -13.953125 22.921875 -13.953125 L 35.53125 -13.953125 C 41.957031 -13.953125 47.023438 -13.210938 50.734375 -11.734375 C 54.441406 -10.265625 57.070312 -8.222656 58.625 -5.609375 C 60.175781 -3.003906 60.953125 0 60.953125 3.40625 C 60.953125 7.488281 59.609375 11.175781 56.921875 14.46875 C 54.234375 17.757812 50.238281 20.367188 44.9375 22.296875 C 39.644531 24.234375 33.140625 25.203125 25.421875 25.203125 C 18.835938 25.203125 13.765625 24.554688 10.203125 23.265625 C 6.648438 21.984375 4.191406 20.335938 2.828125 18.328125 C 1.472656 16.328125 0.796875 14.265625 0.796875 12.140625 C 0.796875 9.722656 1.550781 7.546875 3.0625 5.609375 C 4.570312 3.679688 6.726562 2.113281 9.53125 0.90625 C 7.1875 -0.15625 5.539062 -1.515625 4.59375 -3.171875 C 3.644531 -4.835938 3.171875 -6.582031 3.171875 -8.40625 C 3.171875 -11.351562 4.019531 -14.09375 5.71875 -16.625 C 7.425781 -19.164062 9.679688 -21.609375 12.484375 -23.953125 C 9.234375 -25.617188 6.867188 -27.753906 5.390625 -30.359375 C 3.910156 -32.972656 3.171875 -35.789062 3.171875 -38.8125 C 3.171875 -42.144531 4.019531 -45.191406 5.71875 -47.953125 C 7.425781 -50.710938 10.113281 -52.925781 13.78125 -54.59375 C 17.457031 -56.257812 22.285156 -57.09375 28.265625 -57.09375 C 32.804688 -57.09375 36.679688 -56.597656 39.890625 -55.609375 C 43.109375 -54.628906 45.703125 -53.304688 47.671875 -51.640625 L 60.375 -57.4375 L 62.203125 -56.296875 L 62.203125 -46.875 L 51.53125 -46.875 C 52.738281 -44.53125 53.34375 -41.84375 53.34375 -38.8125 C 53.34375 -35.632812 52.488281 -32.679688 50.78125 -29.953125 C 49.082031 -27.234375 46.398438 -25.039062 42.734375 -23.375 C 39.066406 -21.71875 34.242188 -20.890625 28.265625 -20.890625 Z M 28.265625 -20.890625 "/></g></g></g><g fill="#007bff" fill-opacity="1"><g transform="translate(218.654312, 88.315315)"><g><path d="M 31.671875 -50.96875 C 29.929688 -50.96875 28.453125 -49.679688 27.234375 -47.109375 C 26.023438 -44.535156 25.347656 -39.726562 25.203125 -32.6875 L 30.53125 -32.6875 C 33.257812 -32.6875 35.09375 -33.234375 36.03125 -34.328125 C 36.976562 -35.429688 37.453125 -37.421875 37.453125 -40.296875 C 37.453125 -44.222656 36.863281 -46.984375 35.6875 -48.578125 C 34.519531 -50.171875 33.179688 -50.96875 31.671875 -50.96875 Z M 32 1.8125 C 26.332031 1.8125 21.285156 0.640625 16.859375 -1.703125 C 12.429688 -4.046875 8.929688 -7.429688 6.359375 -11.859375 C 3.785156 -16.285156 2.5 -21.601562 2.5 -27.8125 C 2.5 -32.726562 3.367188 -37 5.109375 -40.625 C 6.847656 -44.257812 9.191406 -47.304688 12.140625 -49.765625 C 15.097656 -52.222656 18.390625 -54.054688 22.015625 -55.265625 C 25.648438 -56.484375 29.320312 -57.09375 33.03125 -57.09375 C 38.476562 -57.09375 43 -55.972656 46.59375 -53.734375 C 50.1875 -51.503906 52.890625 -48.515625 54.703125 -44.765625 C 56.523438 -41.023438 57.4375 -36.847656 57.4375 -32.234375 C 57.4375 -31.023438 57.394531 -29.984375 57.3125 -29.109375 C 57.238281 -28.242188 57.085938 -27.28125 56.859375 -26.21875 L 25.3125 -26.21875 C 25.914062 -20.695312 27.5625 -16.6875 30.25 -14.1875 C 32.9375 -11.6875 35.941406 -10.4375 39.265625 -10.4375 C 42.140625 -10.4375 44.617188 -10.945312 46.703125 -11.96875 C 48.785156 -12.988281 50.617188 -14.257812 52.203125 -15.78125 L 56.640625 -11.46875 C 54.210938 -6.851562 50.898438 -3.484375 46.703125 -1.359375 C 42.503906 0.753906 37.601562 1.8125 32 1.8125 Z M 32 1.8125 "/></g></g></g><g fill="#007bff" fill-opacity="1"><g transform="translate(278.35228, 88.315315)"><g><path d="M 3.0625 0 L 3.0625 -5.78125 L 8.171875 -6.921875 C 8.242188 -9.796875 8.300781 -12.632812 8.34375 -15.4375 C 8.382812 -18.238281 8.40625 -21.035156 8.40625 -23.828125 L 8.40625 -70.484375 L 2.265625 -71.625 L 2.265625 -76.71875 L 28.484375 -81.828125 L 30.421875 -80.578125 L 29.96875 -64.8125 L 29.96875 -23.828125 C 29.96875 -21.035156 29.984375 -18.21875 30.015625 -15.375 C 30.054688 -12.539062 30.113281 -9.6875 30.1875 -6.8125 L 35.296875 -5.78125 L 35.296875 0 Z M 3.0625 0 "/></g></g></g><g fill="#007bff" fill-opacity="1"><g transform="translate(316.259357, 88.315315)"><g><path d="M 23.375 1.8125 C 15.507812 1.8125 8.550781 -0.0390625 2.5 -3.75 L 3.0625 -18.28125 L 13.390625 -18.28125 L 15.203125 -6.46875 C 16.492188 -5.9375 17.816406 -5.535156 19.171875 -5.265625 C 20.535156 -5.003906 21.9375 -4.875 23.375 -4.875 C 26.25 -4.875 28.484375 -5.328125 30.078125 -6.234375 C 31.671875 -7.148438 32.46875 -8.664062 32.46875 -10.78125 C 32.46875 -12.289062 31.878906 -13.648438 30.703125 -14.859375 C 29.523438 -16.078125 27.046875 -17.175781 23.265625 -18.15625 L 16.796875 -19.859375 C 12.328125 -21.066406 8.921875 -23.203125 6.578125 -26.265625 C 4.234375 -29.335938 3.0625 -33.066406 3.0625 -37.453125 C 3.0625 -43.128906 5.234375 -47.820312 9.578125 -51.53125 C 13.929688 -55.238281 20.195312 -57.09375 28.375 -57.09375 C 31.851562 -57.09375 35.085938 -56.710938 38.078125 -55.953125 C 41.066406 -55.203125 44.113281 -54.066406 47.21875 -52.546875 L 46.3125 -39.71875 L 35.859375 -39.71875 L 33.375 -49.828125 C 32.613281 -49.972656 31.796875 -50.101562 30.921875 -50.21875 C 30.054688 -50.332031 29.019531 -50.390625 27.8125 -50.390625 C 25.6875 -50.390625 23.882812 -49.914062 22.40625 -48.96875 C 20.9375 -48.03125 20.203125 -46.578125 20.203125 -44.609375 C 20.203125 -43.398438 20.726562 -42.226562 21.78125 -41.09375 C 22.84375 -39.957031 25.34375 -38.859375 29.28125 -37.796875 L 35.640625 -36.09375 C 40.929688 -34.65625 44.726562 -32.421875 47.03125 -29.390625 C 49.34375 -26.367188 50.5 -22.625 50.5 -18.15625 C 50.5 -11.5 48.054688 -6.503906 43.171875 -3.171875 C 38.296875 0.148438 31.695312 1.8125 23.375 1.8125 Z M 23.375 1.8125 "/></g></g></g><g fill="#f3f6ff" fill-opacity="1"><g transform="translate(125.164229, 139.840898)"><g><path d="M 12.96875 -24.5 L 11.328125 -24.5 C 11.304688 -22.8125 11.285156 -21.128906 11.265625 -19.453125 C 11.253906 -17.773438 11.25 -16.171875 11.25 -14.640625 L 12.796875 -14.640625 C 14.160156 -14.640625 15.222656 -14.867188 15.984375 -15.328125 C 16.753906 -15.796875 17.300781 -16.410156 17.625 -17.171875 C 17.957031 -17.941406 18.125 -18.765625 18.125 -19.640625 C 18.125 -22.878906 16.40625 -24.5 12.96875 -24.5 Z M 1.34375 -24.671875 L 1.34375 -26.875 L 14.640625 -26.875 C 17.859375 -26.875 20.332031 -26.273438 22.0625 -25.078125 C 23.800781 -23.878906 24.671875 -22.210938 24.671875 -20.078125 C 24.671875 -19.179688 24.4375 -18.289062 23.96875 -17.40625 C 23.507812 -16.519531 22.742188 -15.742188 21.671875 -15.078125 C 20.609375 -14.410156 19.164062 -13.925781 17.34375 -13.625 C 18.894531 -13.425781 20.109375 -13.046875 20.984375 -12.484375 C 21.859375 -11.929688 22.515625 -11.210938 22.953125 -10.328125 C 23.390625 -9.441406 23.703125 -8.359375 23.890625 -7.078125 L 24.671875 -2.53125 L 27.78125 -2.203125 L 27.78125 0 C 27.125 0.132812 26.578125 0.25 26.140625 0.34375 C 25.703125 0.4375 25.269531 0.5 24.84375 0.53125 C 24.425781 0.5625 23.90625 0.578125 23.28125 0.578125 C 21.53125 0.578125 20.15625 0.273438 19.15625 -0.328125 C 18.164062 -0.929688 17.5625 -2.019531 17.34375 -3.59375 L 16.609375 -8.34375 C 16.421875 -9.707031 16.03125 -10.71875 15.4375 -11.375 C 14.851562 -12.03125 13.945312 -12.359375 12.71875 -12.359375 L 11.25 -12.359375 C 11.25 -10.609375 11.253906 -8.925781 11.265625 -7.3125 C 11.285156 -5.707031 11.304688 -4.113281 11.328125 -2.53125 L 14.515625 -2.203125 L 14.515625 0 L 1.34375 0 L 1.34375 -2.203125 L 4.421875 -2.53125 C 4.472656 -4.195312 4.5 -5.875 4.5 -7.5625 C 4.5 -9.257812 4.5 -10.96875 4.5 -12.6875 L 4.5 -14.1875 C 4.5 -15.882812 4.5 -17.582031 4.5 -19.28125 C 4.5 -20.988281 4.472656 -22.675781 4.421875 -24.34375 Z M 1.34375 -24.671875 "/></g></g></g><g fill="#f3f6ff" fill-opacity="1"><g transform="translate(153.105055, 139.840898)"><g><path d="M 11.296875 -18.28125 C 10.523438 -18.28125 9.816406 -17.8125 9.171875 -16.875 C 8.535156 -15.9375 8.175781 -14.210938 8.09375 -11.703125 L 11.578125 -11.703125 C 12.554688 -11.703125 13.21875 -11.898438 13.5625 -12.296875 C 13.90625 -12.691406 14.078125 -13.351562 14.078125 -14.28125 C 14.078125 -15.644531 13.800781 -16.648438 13.25 -17.296875 C 12.707031 -17.953125 12.054688 -18.28125 11.296875 -18.28125 Z M 11.375 0.609375 C 9.382812 0.609375 7.625 0.195312 6.09375 -0.625 C 4.5625 -1.457031 3.359375 -2.65625 2.484375 -4.21875 C 1.617188 -5.789062 1.1875 -7.671875 1.1875 -9.859375 C 1.1875 -12.148438 1.695312 -14.078125 2.71875 -15.640625 C 3.738281 -17.210938 5.050781 -18.398438 6.65625 -19.203125 C 8.269531 -20.003906 9.953125 -20.40625 11.703125 -20.40625 C 13.503906 -20.40625 15.035156 -20.023438 16.296875 -19.265625 C 17.566406 -18.503906 18.53125 -17.472656 19.1875 -16.171875 C 19.84375 -14.878906 20.171875 -13.398438 20.171875 -11.734375 C 20.171875 -10.941406 20.085938 -10.222656 19.921875 -9.578125 L 8.09375 -9.578125 C 8.226562 -7.421875 8.820312 -5.828125 9.875 -4.796875 C 10.925781 -3.773438 12.160156 -3.265625 13.578125 -3.265625 C 14.703125 -3.265625 15.65625 -3.476562 16.4375 -3.90625 C 17.226562 -4.332031 17.925781 -4.859375 18.53125 -5.484375 L 19.96875 -4.171875 C 19.113281 -2.566406 17.960938 -1.367188 16.515625 -0.578125 C 15.078125 0.210938 13.363281 0.609375 11.375 0.609375 Z M 11.375 0.609375 "/></g></g></g><g fill="#f3f6ff" fill-opacity="1"><g transform="translate(174.418634, 139.840898)"><g><path d="M 8.34375 0.609375 C 5.75 0.609375 3.378906 -0.015625 1.234375 -1.265625 L 1.34375 -6.265625 L 4.625 -6.265625 L 5.3125 -2.203125 C 5.800781 -2.015625 6.289062 -1.875 6.78125 -1.78125 C 7.28125 -1.6875 7.816406 -1.640625 8.390625 -1.640625 C 9.554688 -1.640625 10.453125 -1.835938 11.078125 -2.234375 C 11.710938 -2.628906 12.03125 -3.234375 12.03125 -4.046875 C 12.03125 -4.671875 11.796875 -5.210938 11.328125 -5.671875 C 10.867188 -6.140625 9.957031 -6.566406 8.59375 -6.953125 L 6.375 -7.609375 C 4.800781 -8.066406 3.582031 -8.8125 2.71875 -9.84375 C 1.863281 -10.882812 1.4375 -12.171875 1.4375 -13.703125 C 1.4375 -15.585938 2.171875 -17.175781 3.640625 -18.46875 C 5.109375 -19.757812 7.222656 -20.40625 9.984375 -20.40625 C 11.179688 -20.40625 12.289062 -20.257812 13.3125 -19.96875 C 14.332031 -19.6875 15.375 -19.273438 16.4375 -18.734375 L 16.15625 -14.28125 L 12.890625 -14.28125 L 12.0625 -17.796875 C 11.488281 -18.015625 10.738281 -18.125 9.8125 -18.125 C 8.882812 -18.125 8.140625 -17.929688 7.578125 -17.546875 C 7.023438 -17.160156 6.75 -16.585938 6.75 -15.828125 C 6.75 -15.285156 6.96875 -14.800781 7.40625 -14.375 C 7.84375 -13.957031 8.769531 -13.53125 10.1875 -13.09375 L 12.1875 -12.515625 C 14.125 -11.941406 15.515625 -11.125 16.359375 -10.0625 C 17.203125 -9 17.625 -7.703125 17.625 -6.171875 C 17.625 -4.015625 16.800781 -2.34375 15.15625 -1.15625 C 13.507812 0.0195312 11.238281 0.609375 8.34375 0.609375 Z M 8.34375 0.609375 "/></g></g></g><g fill="#f3f6ff" fill-opacity="1"><g transform="translate(193.032213, 139.840898)"><g><path d="M 11.578125 0.609375 C 9.453125 0.609375 7.609375 0.164062 6.046875 -0.71875 C 4.492188 -1.601562 3.296875 -2.84375 2.453125 -4.4375 C 1.609375 -6.03125 1.1875 -7.878906 1.1875 -9.984375 C 1.1875 -12.078125 1.640625 -13.898438 2.546875 -15.453125 C 3.460938 -17.015625 4.710938 -18.226562 6.296875 -19.09375 C 7.878906 -19.96875 9.640625 -20.40625 11.578125 -20.40625 C 13.515625 -20.40625 15.265625 -19.984375 16.828125 -19.140625 C 18.398438 -18.296875 19.648438 -17.085938 20.578125 -15.515625 C 21.503906 -13.953125 21.96875 -12.109375 21.96875 -9.984375 C 21.96875 -7.859375 21.546875 -6.003906 20.703125 -4.421875 C 19.859375 -2.835938 18.65625 -1.601562 17.09375 -0.71875 C 15.539062 0.164062 13.703125 0.609375 11.578125 0.609375 Z M 11.578125 -1.515625 C 12.722656 -1.515625 13.582031 -2.179688 14.15625 -3.515625 C 14.726562 -4.847656 15.015625 -6.960938 15.015625 -9.859375 C 15.015625 -12.773438 14.726562 -14.898438 14.15625 -16.234375 C 13.582031 -17.578125 12.722656 -18.25 11.578125 -18.25 C 10.398438 -18.25 9.523438 -17.578125 8.953125 -16.234375 C 8.378906 -14.898438 8.09375 -12.773438 8.09375 -9.859375 C 8.09375 -6.960938 8.378906 -4.847656 8.953125 -3.515625 C 9.523438 -2.179688 10.398438 -1.515625 11.578125 -1.515625 Z M 11.578125 -1.515625 "/></g></g></g><g fill="#f3f6ff" fill-opacity="1"><g transform="translate(216.145791, 139.840898)"><g><path d="M 1.109375 0 L 1.109375 -1.921875 L 3.359375 -2.375 C 3.378906 -3.382812 3.390625 -4.460938 3.390625 -5.609375 C 3.390625 -6.753906 3.390625 -7.75 3.390625 -8.59375 L 3.390625 -11 C 3.390625 -11.769531 3.382812 -12.398438 3.375 -12.890625 C 3.363281 -13.378906 3.347656 -13.832031 3.328125 -14.25 C 3.316406 -14.675781 3.296875 -15.160156 3.265625 -15.703125 L 0.78125 -16.078125 L 0.78125 -17.671875 L 8.828125 -20.40625 L 9.578125 -19.96875 L 9.9375 -15.140625 C 10.507812 -16.878906 11.3125 -18.191406 12.34375 -19.078125 C 13.382812 -19.960938 14.410156 -20.40625 15.421875 -20.40625 C 16.316406 -20.40625 17.09375 -20.15625 17.75 -19.65625 C 18.40625 -19.15625 18.816406 -18.398438 18.984375 -17.390625 C 18.953125 -16.328125 18.660156 -15.5 18.109375 -14.90625 C 17.566406 -14.320312 16.890625 -14.03125 16.078125 -14.03125 C 14.929688 -14.03125 13.878906 -14.671875 12.921875 -15.953125 L 12.6875 -16.28125 C 12.082031 -15.707031 11.523438 -14.984375 11.015625 -14.109375 C 10.515625 -13.234375 10.15625 -12.320312 9.9375 -11.375 L 9.9375 -8.59375 C 9.9375 -7.75 9.9375 -6.78125 9.9375 -5.6875 C 9.9375 -4.59375 9.953125 -3.570312 9.984375 -2.625 L 13.21875 -1.921875 L 13.21875 0 Z M 1.109375 0 "/></g></g></g><g fill="#f3f6ff" fill-opacity="1"><g transform="translate(235.168471, 139.840898)"><g><path d="M 8.921875 0.609375 C 7.085938 0.609375 5.648438 0.164062 4.609375 -0.71875 C 3.578125 -1.601562 3.0625 -3.054688 3.0625 -5.078125 C 3.0625 -5.785156 3.066406 -6.445312 3.078125 -7.0625 C 3.097656 -7.675781 3.109375 -8.375 3.109375 -9.15625 L 3.109375 -16.96875 L 0.453125 -16.96875 L 0.453125 -19.390625 L 3.484375 -19.796875 L 5.515625 -25.53125 L 9.6875 -25.53125 L 9.609375 -19.75 L 13.90625 -19.75 L 13.90625 -16.96875 L 9.609375 -16.96875 L 9.609375 -5.515625 C 9.609375 -4.566406 9.804688 -3.863281 10.203125 -3.40625 C 10.597656 -2.957031 11.097656 -2.734375 11.703125 -2.734375 C 12.410156 -2.734375 13.144531 -3.035156 13.90625 -3.640625 L 14.9375 -2.65625 C 14.382812 -1.625 13.625 -0.820312 12.65625 -0.25 C 11.6875 0.320312 10.441406 0.609375 8.921875 0.609375 Z M 8.921875 0.609375 "/></g></g></g></svg>