<svg xmlns="http://www.w3.org/2000/svg" xmlns:xlink="http://www.w3.org/1999/xlink" width="196" zoomAndPan="magnify" viewBox="0 0 147 66" height="88" preserveAspectRatio="xMidYMid meet" version="1.0"><defs><g/></defs><g fill="#007bff" fill-opacity="1"><g transform="translate(2.772001, 34.189732)"><g><path d="M 12.5625 -21.375 L 9.171875 -10.828125 L 15.859375 -10.828125 Z M 0.453125 0 L 0.453125 -2.625 L 3.96875 -3.125 L 12.875 -29.03125 L 18.21875 -29.03125 L 27.203125 -2.765625 L 29.609375 -2.5 L 29.609375 0 L 15.234375 0 L 15.234375 -2.5 L 18.296875 -2.9375 L 16.703125 -8.015625 L 8.28125 -8.015625 L 6.71875 -3.15625 L 9.796875 -2.625 L 9.796875 0 Z M 0.453125 0 "/></g></g></g><g fill="#007bff" fill-opacity="1"><g transform="translate(33.056509, 34.189732)"><g><path d="M 1.03125 0 L 1.03125 -2.265625 L 3.078125 -2.765625 C 3.109375 -3.828125 3.125 -4.957031 3.125 -6.15625 C 3.125 -7.363281 3.125 -8.429688 3.125 -9.359375 L 3.125 -12.109375 C 3.125 -12.941406 3.113281 -13.609375 3.09375 -14.109375 C 3.082031 -14.617188 3.066406 -15.09375 3.046875 -15.53125 C 3.035156 -15.976562 3.015625 -16.5 2.984375 -17.09375 L 0.578125 -17.5 L 0.578125 -19.328125 L 10.421875 -22.40625 L 11.21875 -21.90625 L 11.4375 -18.84375 C 12.65625 -20.257812 13.773438 -21.207031 14.796875 -21.6875 C 15.828125 -22.164062 16.96875 -22.40625 18.21875 -22.40625 C 20.144531 -22.40625 21.742188 -21.769531 23.015625 -20.5 C 24.296875 -19.238281 24.9375 -17.394531 24.9375 -14.96875 L 24.9375 -9.359375 C 24.9375 -8.398438 24.9375 -7.3125 24.9375 -6.09375 C 24.9375 -4.882812 24.953125 -3.742188 24.984375 -2.671875 L 26.859375 -2.265625 L 26.859375 0 L 14.515625 0 L 14.515625 -2.265625 L 16.4375 -2.71875 C 16.46875 -3.78125 16.484375 -4.921875 16.484375 -6.140625 C 16.484375 -7.359375 16.484375 -8.429688 16.484375 -9.359375 L 16.484375 -14.390625 C 16.484375 -15.578125 16.328125 -16.414062 16.015625 -16.90625 C 15.703125 -17.394531 15.1875 -17.640625 14.46875 -17.640625 C 13.632812 -17.640625 12.671875 -17.253906 11.578125 -16.484375 L 11.578125 -9.359375 C 11.578125 -8.429688 11.578125 -7.351562 11.578125 -6.125 C 11.578125 -4.894531 11.59375 -3.726562 11.625 -2.625 L 13.3125 -2.265625 L 13.3125 0 Z M 1.03125 0 "/></g></g></g><g fill="#007bff" fill-opacity="1"><g transform="translate(60.668849, 34.189732)"><g><path d="M 11.09375 -10.421875 C 11.976562 -10.421875 12.613281 -10.847656 13 -11.703125 C 13.382812 -12.566406 13.578125 -13.769531 13.578125 -15.3125 C 13.578125 -16.882812 13.367188 -18.085938 12.953125 -18.921875 C 12.535156 -19.753906 11.914062 -20.171875 11.09375 -20.171875 C 10.257812 -20.171875 9.648438 -19.753906 9.265625 -18.921875 C 8.878906 -18.085938 8.6875 -16.882812 8.6875 -15.3125 C 8.6875 -13.769531 8.863281 -12.566406 9.21875 -11.703125 C 9.570312 -10.847656 10.195312 -10.421875 11.09375 -10.421875 Z M 4.90625 3.34375 C 4.90625 4.613281 5.367188 5.535156 6.296875 6.109375 C 7.234375 6.691406 8.769531 6.984375 10.90625 6.984375 C 13.070312 6.984375 14.691406 6.703125 15.765625 6.140625 C 16.835938 5.578125 17.375 4.878906 17.375 4.046875 C 17.375 3.546875 17.164062 3.054688 16.75 2.578125 C 16.332031 2.109375 15.601562 1.875 14.5625 1.875 L 10.109375 1.875 C 9.160156 1.875 8.273438 1.832031 7.453125 1.75 C 6.640625 1.675781 5.90625 1.539062 5.25 1.34375 C 5.019531 1.90625 4.90625 2.570312 4.90625 3.34375 Z M 11.09375 -8.1875 C 9.394531 -8.1875 7.9375 -8.367188 6.71875 -8.734375 C 6.507812 -8.285156 6.40625 -7.71875 6.40625 -7.03125 C 6.40625 -6.5625 6.601562 -6.1875 7 -5.90625 C 7.40625 -5.625 8.070312 -5.484375 9 -5.484375 L 13.9375 -5.484375 C 16.457031 -5.484375 18.445312 -5.191406 19.90625 -4.609375 C 21.363281 -4.023438 22.394531 -3.222656 23 -2.203125 C 23.601562 -1.179688 23.90625 0 23.90625 1.34375 C 23.90625 2.9375 23.378906 4.378906 22.328125 5.671875 C 21.273438 6.960938 19.707031 7.988281 17.625 8.75 C 15.550781 9.507812 13 9.890625 9.96875 9.890625 C 7.382812 9.890625 5.394531 9.632812 4 9.125 C 2.613281 8.625 1.648438 7.976562 1.109375 7.1875 C 0.578125 6.40625 0.3125 5.597656 0.3125 4.765625 C 0.3125 3.816406 0.609375 2.960938 1.203125 2.203125 C 1.796875 1.441406 2.640625 0.828125 3.734375 0.359375 C 2.816406 -0.0546875 2.171875 -0.59375 1.796875 -1.25 C 1.429688 -1.90625 1.25 -2.585938 1.25 -3.296875 C 1.25 -4.453125 1.582031 -5.523438 2.25 -6.515625 C 2.914062 -7.515625 3.800781 -8.472656 4.90625 -9.390625 C 3.625 -10.046875 2.691406 -10.882812 2.109375 -11.90625 C 1.535156 -12.9375 1.25 -14.046875 1.25 -15.234375 C 1.25 -16.535156 1.582031 -17.726562 2.25 -18.8125 C 2.914062 -19.894531 3.96875 -20.765625 5.40625 -21.421875 C 6.851562 -22.078125 8.75 -22.40625 11.09375 -22.40625 C 12.875 -22.40625 14.394531 -22.207031 15.65625 -21.8125 C 16.914062 -21.425781 17.929688 -20.910156 18.703125 -20.265625 L 23.6875 -22.53125 L 24.40625 -22.09375 L 24.40625 -18.390625 L 20.21875 -18.390625 C 20.695312 -17.472656 20.9375 -16.421875 20.9375 -15.234375 C 20.9375 -13.984375 20.597656 -12.820312 19.921875 -11.75 C 19.253906 -10.6875 18.203125 -9.828125 16.765625 -9.171875 C 15.328125 -8.515625 13.4375 -8.1875 11.09375 -8.1875 Z M 11.09375 -8.1875 "/></g></g></g><g fill="#007bff" fill-opacity="1"><g transform="translate(85.297274, 34.189732)"><g><path d="M 12.421875 -20 C 11.742188 -20 11.164062 -19.492188 10.6875 -18.484375 C 10.207031 -17.472656 9.941406 -15.585938 9.890625 -12.828125 L 11.984375 -12.828125 C 13.046875 -12.828125 13.765625 -13.039062 14.140625 -13.46875 C 14.515625 -13.894531 14.703125 -14.675781 14.703125 -15.8125 C 14.703125 -17.351562 14.46875 -18.4375 14 -19.0625 C 13.539062 -19.6875 13.015625 -20 12.421875 -20 Z M 12.5625 0.71875 C 10.332031 0.71875 8.347656 0.257812 6.609375 -0.65625 C 4.878906 -1.582031 3.507812 -2.914062 2.5 -4.65625 C 1.488281 -6.394531 0.984375 -8.476562 0.984375 -10.90625 C 0.984375 -12.84375 1.320312 -14.519531 2 -15.9375 C 2.6875 -17.363281 3.609375 -18.554688 4.765625 -19.515625 C 5.921875 -20.484375 7.210938 -21.207031 8.640625 -21.6875 C 10.066406 -22.164062 11.503906 -22.40625 12.953125 -22.40625 C 15.097656 -22.40625 16.875 -21.960938 18.28125 -21.078125 C 19.6875 -20.203125 20.742188 -19.03125 21.453125 -17.5625 C 22.171875 -16.09375 22.53125 -14.453125 22.53125 -12.640625 C 22.53125 -12.171875 22.515625 -11.765625 22.484375 -11.421875 C 22.453125 -11.078125 22.394531 -10.695312 22.3125 -10.28125 L 9.9375 -10.28125 C 10.164062 -8.113281 10.804688 -6.539062 11.859375 -5.5625 C 12.921875 -4.582031 14.101562 -4.09375 15.40625 -4.09375 C 16.53125 -4.09375 17.5 -4.289062 18.3125 -4.6875 C 19.132812 -5.09375 19.859375 -5.59375 20.484375 -6.1875 L 22.21875 -4.5 C 21.269531 -2.6875 19.972656 -1.363281 18.328125 -0.53125 C 16.679688 0.300781 14.757812 0.71875 12.5625 0.71875 Z M 12.5625 0.71875 "/></g></g></g><g fill="#007bff" fill-opacity="1"><g transform="translate(108.723232, 34.189732)"><g><path d="M 1.203125 0 L 1.203125 -2.265625 L 3.203125 -2.71875 C 3.234375 -3.84375 3.253906 -4.953125 3.265625 -6.046875 C 3.285156 -7.148438 3.296875 -8.253906 3.296875 -9.359375 L 3.296875 -27.65625 L 0.890625 -28.09375 L 0.890625 -30.109375 L 11.171875 -32.109375 L 11.9375 -31.625 L 11.75 -25.421875 L 11.75 -9.359375 C 11.75 -8.253906 11.753906 -7.144531 11.765625 -6.03125 C 11.785156 -4.914062 11.8125 -3.796875 11.84375 -2.671875 L 13.84375 -2.265625 L 13.84375 0 Z M 1.203125 0 "/></g></g></g><g fill="#007bff" fill-opacity="1"><g transform="translate(123.598271, 34.189732)"><g><path d="M 9.171875 0.71875 C 6.085938 0.71875 3.359375 -0.0078125 0.984375 -1.46875 L 1.203125 -7.171875 L 5.25 -7.171875 L 5.96875 -2.53125 C 6.46875 -2.332031 6.984375 -2.179688 7.515625 -2.078125 C 8.054688 -1.972656 8.609375 -1.921875 9.171875 -1.921875 C 10.296875 -1.921875 11.171875 -2.097656 11.796875 -2.453125 C 12.421875 -2.804688 12.734375 -3.398438 12.734375 -4.234375 C 12.734375 -4.828125 12.503906 -5.359375 12.046875 -5.828125 C 11.585938 -6.304688 10.613281 -6.738281 9.125 -7.125 L 6.59375 -7.796875 C 4.84375 -8.265625 3.503906 -9.097656 2.578125 -10.296875 C 1.660156 -11.503906 1.203125 -12.972656 1.203125 -14.703125 C 1.203125 -16.921875 2.054688 -18.757812 3.765625 -20.21875 C 5.472656 -21.675781 7.929688 -22.40625 11.140625 -22.40625 C 12.503906 -22.40625 13.769531 -22.253906 14.9375 -21.953125 C 16.113281 -21.660156 17.3125 -21.21875 18.53125 -20.625 L 18.171875 -15.59375 L 14.078125 -15.59375 L 13.09375 -19.546875 C 12.789062 -19.609375 12.46875 -19.660156 12.125 -19.703125 C 11.789062 -19.742188 11.382812 -19.765625 10.90625 -19.765625 C 10.070312 -19.765625 9.363281 -19.578125 8.78125 -19.203125 C 8.207031 -18.835938 7.921875 -18.269531 7.921875 -17.5 C 7.921875 -17.019531 8.128906 -16.554688 8.546875 -16.109375 C 8.960938 -15.671875 9.941406 -15.242188 11.484375 -14.828125 L 13.984375 -14.15625 C 16.054688 -13.59375 17.546875 -12.71875 18.453125 -11.53125 C 19.359375 -10.34375 19.8125 -8.875 19.8125 -7.125 C 19.8125 -4.507812 18.851562 -2.546875 16.9375 -1.234375 C 15.03125 0.0664062 12.441406 0.71875 9.171875 0.71875 Z M 9.171875 0.71875 "/></g></g></g><g fill="#333333" fill-opacity="1"><g transform="translate(46.072263, 56.581113)"><g><path d="M 5.703125 -10.78125 L 4.984375 -10.78125 C 4.972656 -10.039062 4.960938 -9.300781 4.953125 -8.5625 C 4.953125 -7.820312 4.953125 -7.113281 4.953125 -6.4375 L 5.640625 -6.4375 C 6.234375 -6.4375 6.695312 -6.539062 7.03125 -6.75 C 7.375 -6.957031 7.613281 -7.226562 7.75 -7.5625 C 7.894531 -7.894531 7.96875 -8.253906 7.96875 -8.640625 C 7.96875 -10.066406 7.210938 -10.78125 5.703125 -10.78125 Z M 0.59375 -10.859375 L 0.59375 -11.828125 L 6.4375 -11.828125 C 7.851562 -11.828125 8.941406 -11.5625 9.703125 -11.03125 C 10.472656 -10.5 10.859375 -9.769531 10.859375 -8.84375 C 10.859375 -8.445312 10.753906 -8.050781 10.546875 -7.65625 C 10.335938 -7.269531 10 -6.925781 9.53125 -6.625 C 9.070312 -6.332031 8.4375 -6.125 7.625 -6 C 8.3125 -5.914062 8.847656 -5.75 9.234375 -5.5 C 9.617188 -5.25 9.90625 -4.925781 10.09375 -4.53125 C 10.289062 -4.144531 10.429688 -3.671875 10.515625 -3.109375 L 10.859375 -1.109375 L 12.21875 -0.96875 L 12.21875 0 C 11.9375 0.0625 11.695312 0.113281 11.5 0.15625 C 11.3125 0.195312 11.125 0.222656 10.9375 0.234375 C 10.75 0.242188 10.515625 0.25 10.234375 0.25 C 9.472656 0.25 8.875 0.117188 8.4375 -0.140625 C 8 -0.410156 7.726562 -0.890625 7.625 -1.578125 L 7.3125 -3.671875 C 7.226562 -4.273438 7.054688 -4.71875 6.796875 -5 C 6.535156 -5.289062 6.132812 -5.4375 5.59375 -5.4375 L 4.953125 -5.4375 C 4.953125 -4.664062 4.953125 -3.925781 4.953125 -3.21875 C 4.960938 -2.507812 4.972656 -1.804688 4.984375 -1.109375 L 6.390625 -0.96875 L 6.390625 0 L 0.59375 0 L 0.59375 -0.96875 L 1.9375 -1.109375 C 1.96875 -1.847656 1.984375 -2.585938 1.984375 -3.328125 C 1.984375 -4.078125 1.984375 -4.828125 1.984375 -5.578125 L 1.984375 -6.25 C 1.984375 -6.988281 1.984375 -7.734375 1.984375 -8.484375 C 1.984375 -9.234375 1.96875 -9.972656 1.9375 -10.703125 Z M 0.59375 -10.859375 "/></g></g></g><g fill="#333333" fill-opacity="1"><g transform="translate(58.366227, 56.581113)"><g><path d="M 4.96875 -8.046875 C 4.632812 -8.046875 4.328125 -7.835938 4.046875 -7.421875 C 3.765625 -7.003906 3.601562 -6.242188 3.5625 -5.140625 L 5.09375 -5.140625 C 5.519531 -5.140625 5.804688 -5.226562 5.953125 -5.40625 C 6.109375 -5.582031 6.1875 -5.875 6.1875 -6.28125 C 6.1875 -6.882812 6.066406 -7.328125 5.828125 -7.609375 C 5.585938 -7.898438 5.300781 -8.046875 4.96875 -8.046875 Z M 5 0.265625 C 4.125 0.265625 3.347656 0.0820312 2.671875 -0.28125 C 2.003906 -0.644531 1.476562 -1.171875 1.09375 -1.859375 C 0.707031 -2.546875 0.515625 -3.375 0.515625 -4.34375 C 0.515625 -5.34375 0.738281 -6.1875 1.1875 -6.875 C 1.644531 -7.570312 2.226562 -8.097656 2.9375 -8.453125 C 3.644531 -8.804688 4.378906 -8.984375 5.140625 -8.984375 C 5.941406 -8.984375 6.617188 -8.8125 7.171875 -8.46875 C 7.734375 -8.132812 8.15625 -7.679688 8.4375 -7.109375 C 8.726562 -6.546875 8.875 -5.898438 8.875 -5.171875 C 8.875 -4.816406 8.835938 -4.5 8.765625 -4.21875 L 3.5625 -4.21875 C 3.625 -3.269531 3.882812 -2.566406 4.34375 -2.109375 C 4.8125 -1.660156 5.351562 -1.4375 5.96875 -1.4375 C 6.46875 -1.4375 6.890625 -1.53125 7.234375 -1.71875 C 7.585938 -1.90625 7.894531 -2.132812 8.15625 -2.40625 L 8.78125 -1.84375 C 8.40625 -1.132812 7.898438 -0.601562 7.265625 -0.25 C 6.628906 0.09375 5.875 0.265625 5 0.265625 Z M 5 0.265625 "/></g></g></g><g fill="#333333" fill-opacity="1"><g transform="translate(67.744202, 56.581113)"><g><path d="M 3.671875 0.265625 C 2.535156 0.265625 1.492188 -0.0078125 0.546875 -0.5625 L 0.59375 -2.75 L 2.03125 -2.75 L 2.34375 -0.96875 C 2.550781 -0.882812 2.765625 -0.820312 2.984375 -0.78125 C 3.203125 -0.738281 3.4375 -0.71875 3.6875 -0.71875 C 4.207031 -0.71875 4.601562 -0.800781 4.875 -0.96875 C 5.15625 -1.144531 5.296875 -1.414062 5.296875 -1.78125 C 5.296875 -2.0625 5.191406 -2.300781 4.984375 -2.5 C 4.785156 -2.707031 4.382812 -2.894531 3.78125 -3.0625 L 2.8125 -3.34375 C 2.113281 -3.550781 1.570312 -3.878906 1.1875 -4.328125 C 0.8125 -4.785156 0.625 -5.351562 0.625 -6.03125 C 0.625 -6.851562 0.945312 -7.550781 1.59375 -8.125 C 2.25 -8.695312 3.179688 -8.984375 4.390625 -8.984375 C 4.921875 -8.984375 5.410156 -8.921875 5.859375 -8.796875 C 6.304688 -8.671875 6.765625 -8.488281 7.234375 -8.25 L 7.109375 -6.28125 L 5.671875 -6.28125 L 5.3125 -7.828125 C 5.0625 -7.921875 4.726562 -7.96875 4.3125 -7.96875 C 3.90625 -7.96875 3.578125 -7.882812 3.328125 -7.71875 C 3.085938 -7.550781 2.96875 -7.300781 2.96875 -6.96875 C 2.96875 -6.726562 3.0625 -6.515625 3.25 -6.328125 C 3.445312 -6.140625 3.859375 -5.953125 4.484375 -5.765625 L 5.359375 -5.515625 C 6.210938 -5.253906 6.828125 -4.890625 7.203125 -4.421875 C 7.578125 -3.953125 7.765625 -3.382812 7.765625 -2.71875 C 7.765625 -1.769531 7.398438 -1.035156 6.671875 -0.515625 C 5.941406 0.00390625 4.941406 0.265625 3.671875 0.265625 Z M 3.671875 0.265625 "/></g></g></g><g fill="#333333" fill-opacity="1"><g transform="translate(75.934177, 56.581113)"><g><path d="M 5.09375 0.265625 C 4.15625 0.265625 3.34375 0.0703125 2.65625 -0.3125 C 1.976562 -0.707031 1.453125 -1.253906 1.078125 -1.953125 C 0.703125 -2.648438 0.515625 -3.460938 0.515625 -4.390625 C 0.515625 -5.316406 0.71875 -6.117188 1.125 -6.796875 C 1.53125 -7.484375 2.078125 -8.019531 2.765625 -8.40625 C 3.460938 -8.789062 4.238281 -8.984375 5.09375 -8.984375 C 5.945312 -8.984375 6.71875 -8.796875 7.40625 -8.421875 C 8.09375 -8.046875 8.640625 -7.515625 9.046875 -6.828125 C 9.460938 -6.140625 9.671875 -5.328125 9.671875 -4.390625 C 9.671875 -3.453125 9.484375 -2.632812 9.109375 -1.9375 C 8.734375 -1.25 8.203125 -0.707031 7.515625 -0.3125 C 6.835938 0.0703125 6.03125 0.265625 5.09375 0.265625 Z M 5.09375 -0.671875 C 5.59375 -0.671875 5.96875 -0.960938 6.21875 -1.546875 C 6.476562 -2.140625 6.609375 -3.070312 6.609375 -4.34375 C 6.609375 -5.625 6.476562 -6.554688 6.21875 -7.140625 C 5.96875 -7.734375 5.59375 -8.03125 5.09375 -8.03125 C 4.570312 -8.03125 4.1875 -7.734375 3.9375 -7.140625 C 3.6875 -6.554688 3.5625 -5.625 3.5625 -4.34375 C 3.5625 -3.070312 3.6875 -2.140625 3.9375 -1.546875 C 4.1875 -0.960938 4.570312 -0.671875 5.09375 -0.671875 Z M 5.09375 -0.671875 "/></g></g></g><g fill="#333333" fill-opacity="1"><g transform="translate(86.104152, 56.581113)"><g><path d="M 0.484375 0 L 0.484375 -0.84375 L 1.46875 -1.046875 C 1.488281 -1.484375 1.5 -1.953125 1.5 -2.453125 C 1.5 -2.960938 1.5 -3.40625 1.5 -3.78125 L 1.5 -4.84375 C 1.5 -5.175781 1.492188 -5.453125 1.484375 -5.671875 C 1.472656 -5.890625 1.460938 -6.085938 1.453125 -6.265625 C 1.453125 -6.453125 1.445312 -6.664062 1.4375 -6.90625 L 0.34375 -7.078125 L 0.34375 -7.78125 L 3.890625 -8.984375 L 4.21875 -8.78125 L 4.375 -6.65625 C 4.625 -7.425781 4.976562 -8.003906 5.4375 -8.390625 C 5.894531 -8.785156 6.34375 -8.984375 6.78125 -8.984375 C 7.175781 -8.984375 7.519531 -8.867188 7.8125 -8.640625 C 8.101562 -8.421875 8.285156 -8.09375 8.359375 -7.65625 C 8.335938 -7.1875 8.207031 -6.820312 7.96875 -6.5625 C 7.726562 -6.300781 7.429688 -6.171875 7.078125 -6.171875 C 6.566406 -6.171875 6.101562 -6.453125 5.6875 -7.015625 L 5.578125 -7.15625 C 5.316406 -6.90625 5.070312 -6.585938 4.84375 -6.203125 C 4.625 -5.828125 4.46875 -5.425781 4.375 -5 L 4.375 -3.78125 C 4.375 -3.40625 4.375 -2.976562 4.375 -2.5 C 4.375 -2.019531 4.378906 -1.570312 4.390625 -1.15625 L 5.8125 -0.84375 L 5.8125 0 Z M 0.484375 0 "/></g></g></g><g fill="#333333" fill-opacity="1"><g transform="translate(94.474132, 56.581113)"><g><path d="M 3.921875 0.265625 C 3.117188 0.265625 2.488281 0.0703125 2.03125 -0.3125 C 1.570312 -0.707031 1.34375 -1.347656 1.34375 -2.234375 C 1.34375 -2.546875 1.347656 -2.835938 1.359375 -3.109375 C 1.367188 -3.378906 1.375 -3.6875 1.375 -4.03125 L 1.375 -7.46875 L 0.203125 -7.46875 L 0.203125 -8.53125 L 1.53125 -8.71875 L 2.4375 -11.234375 L 4.265625 -11.234375 L 4.234375 -8.6875 L 6.125 -8.6875 L 6.125 -7.46875 L 4.234375 -7.46875 L 4.234375 -2.4375 C 4.234375 -2.007812 4.316406 -1.695312 4.484375 -1.5 C 4.660156 -1.300781 4.878906 -1.203125 5.140625 -1.203125 C 5.453125 -1.203125 5.78125 -1.335938 6.125 -1.609375 L 6.5625 -1.171875 C 6.320312 -0.710938 5.988281 -0.359375 5.5625 -0.109375 C 5.144531 0.140625 4.597656 0.265625 3.921875 0.265625 Z M 3.921875 0.265625 "/></g></g></g></svg>