<svg xmlns="http://www.w3.org/2000/svg" xmlns:xlink="http://www.w3.org/1999/xlink" width="500" zoomAndPan="magnify" viewBox="0 0 375 149.999998" height="200" preserveAspectRatio="xMidYMid meet" version="1.0"><defs><g/></defs><g fill="#315eff" fill-opacity="1"><g transform="translate(5.023481, 104.736704)"><g><path d="M 73.929688 0 L 85.847656 0 L 43.421875 -100.179688 L 42.429688 -100.179688 C 31.644531 -81.875 18.871094 -56.050781 11.351562 -35.757812 C 7.945312 -26.675781 5.960938 -18.730469 5.25 -12.488281 C 4.539062 -6.101562 6.101562 -1.84375 9.933594 -0.140625 C 10.925781 0.710938 11.351562 0.710938 12.203125 0.851562 C 18.589844 1.136719 21 -4.113281 23.695312 -11.210938 C 28.238281 -21.570312 33.773438 -36.183594 57.894531 -38.453125 Z M 57.46875 -39.449219 C 32.921875 -37.035156 27.246094 -22.136719 22.5625 -11.492188 C 20.292969 -4.964844 18.019531 0 12.34375 -0.425781 C 11.636719 -0.851562 11.210938 -0.851562 10.359375 -1.136719 C 6.953125 -2.269531 5.960938 -6.667969 6.242188 -12.488281 C 6.953125 -18.589844 8.941406 -26.394531 12.34375 -35.476562 C 18.304688 -51.933594 27.953125 -71.234375 36.609375 -87.976562 Z M 57.46875 -39.449219 "/></g></g></g><g fill="#36495d" fill-opacity="1"><g transform="translate(119.197112, 139.171651)"><g><path d="M 14.125 0 L 11.171875 0 L 8.609375 -4.765625 C 8.359375 -5.210938 8.054688 -5.53125 7.703125 -5.71875 C 7.359375 -5.90625 6.914062 -6 6.375 -6 L 4.296875 -6 L 4.296875 0 L 1.609375 0 L 1.609375 -14.9375 L 8.21875 -14.9375 C 9.914062 -14.9375 11.203125 -14.554688 12.078125 -13.796875 C 12.960938 -13.046875 13.40625 -11.957031 13.40625 -10.53125 C 13.40625 -9.382812 13.082031 -8.441406 12.4375 -7.703125 C 11.800781 -6.960938 10.894531 -6.476562 9.71875 -6.25 C 10.507812 -6.039062 11.144531 -5.484375 11.625 -4.578125 Z M 7.84375 -8.09375 C 8.875 -8.09375 9.628906 -8.285156 10.109375 -8.671875 C 10.585938 -9.066406 10.828125 -9.664062 10.828125 -10.46875 C 10.828125 -11.289062 10.585938 -11.882812 10.109375 -12.25 C 9.628906 -12.625 8.875 -12.8125 7.84375 -12.8125 L 4.28125 -12.8125 L 4.28125 -8.09375 Z M 7.84375 -8.09375 "/></g></g></g><g fill="#36495d" fill-opacity="1"><g transform="translate(146.480813, 139.171651)"><g><path d="M 1.609375 0 L 1.609375 -14.9375 L 11.609375 -14.9375 L 11.609375 -12.78125 L 4.28125 -12.78125 L 4.28125 -8.671875 L 11.1875 -8.671875 L 11.1875 -6.53125 L 4.28125 -6.53125 L 4.28125 -2.15625 L 11.609375 -2.15625 L 11.609375 0 Z M 1.609375 0 "/></g></g></g><g fill="#36495d" fill-opacity="1"><g transform="translate(171.519365, 139.171651)"><g><path d="M 6.671875 0.1875 C 5.523438 0.1875 4.453125 0.0351562 3.453125 -0.265625 C 2.453125 -0.578125 1.601562 -1.019531 0.90625 -1.59375 L 1.828125 -3.578125 C 2.546875 -3.023438 3.300781 -2.617188 4.09375 -2.359375 C 4.894531 -2.109375 5.757812 -1.984375 6.6875 -1.984375 C 7.71875 -1.984375 8.515625 -2.164062 9.078125 -2.53125 C 9.640625 -2.894531 9.921875 -3.398438 9.921875 -4.046875 C 9.921875 -4.609375 9.660156 -5.035156 9.140625 -5.328125 C 8.628906 -5.628906 7.769531 -5.914062 6.5625 -6.1875 C 5.320312 -6.457031 4.3125 -6.769531 3.53125 -7.125 C 2.757812 -7.476562 2.175781 -7.925781 1.78125 -8.46875 C 1.382812 -9.019531 1.1875 -9.722656 1.1875 -10.578125 C 1.1875 -11.453125 1.425781 -12.234375 1.90625 -12.921875 C 2.382812 -13.617188 3.0625 -14.160156 3.9375 -14.546875 C 4.8125 -14.929688 5.820312 -15.125 6.96875 -15.125 C 8.007812 -15.125 9.003906 -14.960938 9.953125 -14.640625 C 10.898438 -14.328125 11.675781 -13.894531 12.28125 -13.34375 L 11.375 -11.359375 C 10.050781 -12.421875 8.582031 -12.953125 6.96875 -12.953125 C 6.007812 -12.953125 5.25 -12.753906 4.6875 -12.359375 C 4.132812 -11.972656 3.859375 -11.429688 3.859375 -10.734375 C 3.859375 -10.160156 4.101562 -9.71875 4.59375 -9.40625 C 5.09375 -9.09375 5.9375 -8.800781 7.125 -8.53125 C 8.375 -8.25 9.390625 -7.9375 10.171875 -7.59375 C 10.960938 -7.25 11.566406 -6.804688 11.984375 -6.265625 C 12.398438 -5.734375 12.609375 -5.054688 12.609375 -4.234375 C 12.609375 -3.347656 12.367188 -2.566406 11.890625 -1.890625 C 11.421875 -1.222656 10.738281 -0.707031 9.84375 -0.34375 C 8.945312 0.0078125 7.890625 0.1875 6.671875 0.1875 Z M 6.671875 0.1875 "/></g></g></g><g fill="#36495d" fill-opacity="1"><g transform="translate(197.595762, 139.171651)"><g><path d="M 8.265625 0.1875 C 6.804688 0.1875 5.539062 -0.117188 4.46875 -0.734375 C 3.40625 -1.359375 2.582031 -2.25 2 -3.40625 C 1.425781 -4.570312 1.140625 -5.929688 1.140625 -7.484375 C 1.140625 -9.035156 1.425781 -10.382812 2 -11.53125 C 2.570312 -12.6875 3.394531 -13.570312 4.46875 -14.1875 C 5.539062 -14.8125 6.804688 -15.125 8.265625 -15.125 C 9.722656 -15.125 10.984375 -14.8125 12.046875 -14.1875 C 13.109375 -13.570312 13.925781 -12.6875 14.5 -11.53125 C 15.070312 -10.382812 15.359375 -9.035156 15.359375 -7.484375 C 15.359375 -5.929688 15.066406 -4.570312 14.484375 -3.40625 C 13.910156 -2.25 13.085938 -1.359375 12.015625 -0.734375 C 10.953125 -0.117188 9.703125 0.1875 8.265625 0.1875 Z M 8.265625 -1.984375 C 9.628906 -1.984375 10.695312 -2.457031 11.46875 -3.40625 C 12.238281 -4.351562 12.625 -5.710938 12.625 -7.484375 C 12.625 -9.242188 12.238281 -10.59375 11.46875 -11.53125 C 10.695312 -12.476562 9.628906 -12.953125 8.265625 -12.953125 C 6.878906 -12.953125 5.800781 -12.476562 5.03125 -11.53125 C 4.257812 -10.59375 3.875 -9.242188 3.875 -7.484375 C 3.875 -5.710938 4.257812 -4.351562 5.03125 -3.40625 C 5.800781 -2.457031 6.878906 -1.984375 8.265625 -1.984375 Z M 8.265625 -1.984375 "/></g></g></g><g fill="#36495d" fill-opacity="1"><g transform="translate(226.658647, 139.171651)"><g><path d="M 14.125 0 L 11.171875 0 L 8.609375 -4.765625 C 8.359375 -5.210938 8.054688 -5.53125 7.703125 -5.71875 C 7.359375 -5.90625 6.914062 -6 6.375 -6 L 4.296875 -6 L 4.296875 0 L 1.609375 0 L 1.609375 -14.9375 L 8.21875 -14.9375 C 9.914062 -14.9375 11.203125 -14.554688 12.078125 -13.796875 C 12.960938 -13.046875 13.40625 -11.957031 13.40625 -10.53125 C 13.40625 -9.382812 13.082031 -8.441406 12.4375 -7.703125 C 11.800781 -6.960938 10.894531 -6.476562 9.71875 -6.25 C 10.507812 -6.039062 11.144531 -5.484375 11.625 -4.578125 Z M 7.84375 -8.09375 C 8.875 -8.09375 9.628906 -8.285156 10.109375 -8.671875 C 10.585938 -9.066406 10.828125 -9.664062 10.828125 -10.46875 C 10.828125 -11.289062 10.585938 -11.882812 10.109375 -12.25 C 9.628906 -12.625 8.875 -12.8125 7.84375 -12.8125 L 4.28125 -12.8125 L 4.28125 -8.09375 Z M 7.84375 -8.09375 "/></g></g></g><g fill="#36495d" fill-opacity="1"><g transform="translate(253.942352, 139.171651)"><g><path d="M 5.125 0 L 5.125 -12.6875 L 0.25 -12.6875 L 0.25 -14.9375 L 12.734375 -14.9375 L 12.734375 -12.6875 L 7.859375 -12.6875 L 7.859375 0 Z M 5.125 0 "/></g></g></g><g fill="#315eff" fill-opacity="1"><g transform="translate(98.801839, 106.001107)"><g><path d="M 2.695312 -54.328125 L 2.695312 0 L 8.464844 0 L 8.464844 -53.789062 C 16.777344 -53.789062 22.933594 -47.558594 27.550781 -38.785156 C 33.246094 -27.625 36.089844 -12.234375 36.089844 0 L 41.863281 0 L 41.863281 -54.328125 L 36.089844 -54.328125 L 36.089844 -10.15625 C 34.9375 -20.085938 32.398438 -30.703125 27.859375 -39.09375 C 23.394531 -48.019531 16.851562 -54.328125 8.464844 -54.328125 Z M 2.695312 -54.328125 "/></g></g></g><g fill="#315eff" fill-opacity="1"><g transform="translate(150.745866, 106.001107)"><g><path d="M 45.09375 -5.773438 C 42.941406 -3.695312 40.324219 -1.769531 36.859375 -1 C 24.007812 2.539062 12.773438 -9.621094 9.695312 -21.394531 C 6.695312 -33.089844 10.15625 -49.25 23.238281 -52.867188 C 39.554688 -57.40625 47.789062 -40.015625 48.171875 -39.09375 L 48.171875 -47.097656 C 48.171875 -47.097656 40.09375 -58.101562 23.164062 -53.40625 C 8.464844 -49.558594 -0.230469 -34.476562 3.695312 -19.855469 C 7.695312 -5.234375 22.703125 3.617188 37.015625 -0.617188 C 42.785156 -2.078125 47.632812 -5.234375 50.945312 -9.464844 L 50.945312 -25.546875 L 21.546875 -25.546875 L 21.546875 -19.625 C 27.011719 -24.625 35.707031 -24.933594 45.09375 -24.933594 Z M 45.09375 -5.773438 "/></g></g></g><g fill="#315eff" fill-opacity="1"><g transform="translate(211.770476, 106.001107)"><g><path d="M 8.617188 -36.246094 C 10.851562 -27.164062 20.085938 -27.625 24.546875 -22.546875 L 24.546875 -28.628906 C 14.003906 -28.628906 8.617188 -30.78125 8.617188 -41.324219 L 8.617188 -53.789062 L 14.929688 -53.789062 C 24.316406 -53.789062 28.320312 -53.40625 33.78125 -48.171875 L 33.78125 -54.328125 L 2.695312 -54.328125 L 2.695312 0 L 33.320312 0 L 35.089844 -11.390625 C 32.320312 -3.617188 28.320312 -0.617188 21.625 -0.617188 L 8.617188 -0.617188 Z M 8.617188 -36.246094 "/></g></g></g><g fill="#315eff" fill-opacity="1"><g transform="translate(256.94255, 106.001107)"><g><path d="M 35.246094 -11.390625 C 32.398438 -3.617188 28.472656 -0.617188 21.855469 -0.617188 L 8.851562 -0.617188 L 8.851562 -54.328125 L 2.695312 -54.328125 L 2.695312 0 L 33.398438 0 Z M 35.246094 -11.390625 "/></g></g></g><g fill="#315eff" fill-opacity="1"><g transform="translate(302.268512, 106.001107)"><g><path d="M 6.617188 -41.246094 C 6.617188 -32.476562 14.699219 -28.089844 22.933594 -24.394531 C 40.863281 -16.160156 42.246094 -8.234375 37.167969 -4 C 27.472656 4.15625 10.234375 -2.539062 2.695312 -21.625 L 2.695312 -10.925781 C 11.390625 0.230469 29.011719 3.308594 37.785156 -3.386719 C 40.554688 -5.617188 42.246094 -8.851562 42.246094 -13.003906 C 42.246094 -22.085938 34.246094 -26.472656 25.855469 -30.089844 C 7.078125 -38.863281 6.464844 -47.328125 12.464844 -51.25 C 19.546875 -56.175781 33.550781 -55.023438 41.324219 -39.246094 L 41.324219 -47.328125 C 34.707031 -58.023438 6.617188 -58.410156 6.617188 -41.246094 Z M 6.617188 -41.246094 "/></g></g></g></svg>