<svg xmlns="http://www.w3.org/2000/svg" xmlns:xlink="http://www.w3.org/1999/xlink" width="500" zoomAndPan="magnify" viewBox="0 0 375 225" height="300" preserveAspectRatio="xMidYMid meet" version="1.0"><defs><g/><clipPath id="8cede05681"><path d="M 51.332031 1 L 206 1 L 206 97 L 51.332031 97 Z M 51.332031 1 " clip-rule="nonzero"/></clipPath><clipPath id="275312b0cf"><path d="M 133 26 L 208.082031 26 L 208.082031 60 L 133 60 Z M 133 26 " clip-rule="nonzero"/></clipPath></defs><rect x="-37.5" width="450" fill="#ffffff" y="-22.5" height="270" fill-opacity="1"/><rect x="-37.5" width="450" fill="#ffffff" y="-22.5" height="270" fill-opacity="1"/><rect x="-37.5" width="450" fill="#ffffff" y="-22.5" height="270" fill-opacity="1"/><g clip-path="url(#8cede05681)"><path fill="#1c75bc" d="M 100.324219 85.566406 C 116.6875 76.761719 125.679688 63.855469 134.675781 48.039062 C 148.035156 24.53125 177.417969 11.195312 202 3.074219 C 203.199219 2.648438 204.3125 2.304688 205.511719 1.964844 C 183.839844 0.253906 159.601562 7.777344 141.097656 19.828125 C 120.027344 33.59375 107.09375 56.589844 84.738281 68.898438 C 75.058594 74.199219 62.464844 78.214844 51.332031 78.214844 C 59.125 80.609375 68.804688 87.105469 64.949219 96.679688 C 77.285156 94.457031 89.191406 91.550781 100.324219 85.566406 Z M 100.324219 85.566406 " fill-opacity="1" fill-rule="nonzero"/></g><g clip-path="url(#275312b0cf)"><path fill="#00aeef" d="M 155.574219 31.285156 C 148.292969 37.097656 142.640625 43.421875 138.699219 50.347656 C 136.902344 53.425781 135.1875 56.417969 133.390625 59.238281 C 133.558594 59.152344 133.730469 59.066406 133.902344 58.894531 C 133.902344 58.894531 133.988281 58.894531 133.988281 58.808594 C 134.160156 58.726562 134.332031 58.554688 134.503906 58.46875 C 135.703125 57.699219 137.074219 56.84375 138.699219 55.902344 C 153.433594 47.097656 184.527344 30.515625 202.425781 36.15625 C 203.710938 36.585938 204.910156 37.097656 206.023438 37.695312 C 206.28125 37.78125 206.453125 37.953125 206.710938 38.125 C 206.882812 38.207031 207.054688 38.378906 207.308594 38.464844 C 207.394531 38.464844 207.394531 38.550781 207.480469 38.550781 C 207.652344 38.722656 207.824219 38.808594 208.082031 38.976562 C 207.910156 38.976562 193.261719 17.863281 155.574219 31.285156 Z M 155.574219 31.285156 " fill-opacity="1" fill-rule="nonzero"/></g><path fill="#00aeef" d="M 146.75 57.527344 C 146.75 57.527344 135.789062 64.367188 128.507812 66.417969 C 121.484375 76.078125 113.515625 83.6875 102.46875 89.671875 C 102.554688 89.671875 102.554688 89.671875 102.640625 89.671875 C 102.722656 89.671875 102.894531 89.585938 103.066406 89.585938 C 103.066406 89.585938 103.066406 89.585938 103.152344 89.585938 C 103.238281 89.585938 103.324219 89.585938 103.324219 89.585938 C 103.324219 89.585938 103.324219 89.585938 103.410156 89.585938 C 103.496094 89.585938 103.582031 89.585938 103.667969 89.5 L 103.753906 89.5 C 103.839844 89.5 103.839844 89.5 103.921875 89.5 L 104.007812 89.5 C 104.09375 89.5 104.179688 89.5 104.265625 89.414062 C 104.351562 89.414062 104.351562 89.414062 104.4375 89.414062 L 104.523438 89.414062 C 104.609375 89.414062 104.695312 89.414062 104.695312 89.414062 C 104.867188 89.414062 105.039062 89.328125 105.207031 89.328125 L 105.292969 89.328125 C 105.550781 89.242188 105.894531 89.242188 106.234375 89.15625 C 107.007812 88.988281 107.863281 88.816406 108.890625 88.558594 C 109.320312 88.472656 109.664062 88.386719 110.089844 88.21875 L 110.175781 88.21875 C 110.605469 88.132812 111.03125 88.046875 111.375 87.875 C 111.460938 87.875 111.460938 87.875 111.546875 87.789062 C 111.804688 87.703125 112.0625 87.703125 112.230469 87.617188 C 112.316406 87.617188 112.316406 87.617188 112.402344 87.617188 C 122.425781 84.882812 137.929688 79.328125 150.949219 68.8125 C 162.339844 59.578125 174.933594 58.640625 184.097656 59.664062 C 190.523438 60.433594 195.234375 62.144531 196.773438 62.828125 C 196.859375 62.828125 196.859375 62.914062 196.945312 62.914062 C 197.03125 62.914062 197.03125 62.914062 197.03125 63 L 197.203125 63 C 197.203125 63 169.277344 44.707031 146.75 57.527344 Z M 146.75 57.527344 " fill-opacity="1" fill-rule="nonzero"/><path fill="#00aeef" d="M 131.589844 85.652344 C 119.941406 91.378906 108.207031 94.371094 95.015625 93.261719 C 95.015625 93.261719 94.929688 93.261719 94.757812 93.347656 C 87.5625 96.339844 80.367188 98.304688 73.515625 99.757812 C 71.546875 100.355469 70.261719 100.785156 70.261719 100.785156 L 70.433594 100.785156 C 70.433594 100.785156 70.433594 100.785156 70.519531 100.785156 L 70.605469 100.785156 C 70.6875 100.785156 70.6875 100.785156 70.773438 100.785156 C 70.859375 100.785156 70.859375 100.785156 70.945312 100.785156 C 70.945312 100.785156 70.945312 100.785156 71.03125 100.785156 C 71.117188 100.785156 71.117188 100.785156 71.203125 100.785156 C 71.203125 100.785156 71.203125 100.785156 71.289062 100.785156 C 71.460938 100.785156 71.546875 100.867188 71.71875 100.953125 C 71.800781 100.953125 71.886719 101.039062 71.886719 101.039062 C 71.972656 101.039062 72.058594 101.125 72.144531 101.125 C 72.316406 101.210938 72.488281 101.296875 72.660156 101.382812 C 72.746094 101.382812 72.832031 101.46875 72.917969 101.46875 C 74.714844 102.320312 76.855469 103.433594 77.542969 103.691406 C 83.964844 106 90.648438 107.535156 97.5 107.964844 C 115.488281 109.246094 127.566406 101.980469 141.441406 91.636719 C 150.09375 85.226562 159.769531 79.839844 170.308594 80.183594 C 170.5625 80.183594 170.820312 80.183594 171.164062 80.183594 C 171.25 80.183594 171.335938 80.183594 171.335938 80.183594 C 171.589844 80.183594 171.847656 80.183594 172.105469 80.265625 C 172.363281 80.265625 172.621094 80.351562 172.875 80.351562 C 172.960938 80.351562 173.046875 80.351562 173.132812 80.351562 C 173.390625 80.351562 173.648438 80.4375 173.90625 80.4375 C 174.160156 80.523438 174.417969 80.523438 174.675781 80.609375 C 174.761719 80.609375 174.847656 80.609375 174.933594 80.609375 C 175.1875 80.695312 175.445312 80.695312 175.789062 80.78125 C 176.046875 80.867188 176.300781 80.949219 176.644531 80.949219 C 176.730469 80.949219 176.816406 80.949219 176.816406 81.035156 C 177.074219 81.121094 177.417969 81.207031 177.671875 81.292969 C 179.898438 81.976562 182.296875 82.832031 184.183594 84.199219 C 178.785156 80.351562 174.761719 77.019531 167.738281 75.738281 C 154.804688 73.429688 143.324219 79.839844 131.589844 85.652344 Z M 131.589844 85.652344 " fill-opacity="1" fill-rule="nonzero"/><g fill="#315eff" fill-opacity="1"><g transform="translate(4.75052, 176.62471)"><g><path d="M 75.824219 0 L 88.050781 0 L 44.535156 -102.75 L 43.515625 -102.75 C 32.453125 -83.976562 19.355469 -57.488281 11.644531 -36.675781 C 8.148438 -27.359375 6.113281 -19.210938 5.386719 -12.808594 C 4.65625 -6.257812 6.257812 -1.890625 10.1875 -0.144531 C 11.207031 0.726562 11.644531 0.726562 12.515625 0.875 C 19.066406 1.164062 21.539062 -4.21875 24.304688 -11.496094 C 28.960938 -22.121094 34.636719 -37.113281 59.378906 -39.441406 Z M 58.941406 -40.460938 C 33.765625 -37.984375 27.941406 -22.703125 23.140625 -11.789062 C 20.8125 -5.09375 18.484375 0 12.660156 -0.4375 C 11.933594 -0.875 11.496094 -0.875 10.625 -1.164062 C 7.132812 -2.328125 6.113281 -6.839844 6.402344 -12.808594 C 7.132812 -19.066406 9.167969 -27.070312 12.660156 -36.382812 C 18.773438 -53.265625 28.671875 -73.058594 37.546875 -90.234375 Z M 58.941406 -40.460938 "/></g></g></g><g fill="#36495d" fill-opacity="1"><g transform="translate(121.851562, 211.942554)"><g><path d="M 14.5 0 L 11.453125 0 L 8.828125 -4.890625 C 8.578125 -5.347656 8.269531 -5.671875 7.90625 -5.859375 C 7.550781 -6.054688 7.097656 -6.15625 6.546875 -6.15625 L 4.40625 -6.15625 L 4.40625 0 L 1.65625 0 L 1.65625 -15.328125 L 8.4375 -15.328125 C 10.175781 -15.328125 11.5 -14.9375 12.40625 -14.15625 C 13.3125 -13.382812 13.765625 -12.265625 13.765625 -10.796875 C 13.765625 -9.628906 13.429688 -8.664062 12.765625 -7.90625 C 12.109375 -7.144531 11.175781 -6.644531 9.96875 -6.40625 C 10.78125 -6.1875 11.4375 -5.613281 11.9375 -4.6875 Z M 8.046875 -8.296875 C 9.097656 -8.296875 9.867188 -8.492188 10.359375 -8.890625 C 10.859375 -9.296875 11.109375 -9.910156 11.109375 -10.734375 C 11.109375 -11.578125 10.859375 -12.191406 10.359375 -12.578125 C 9.867188 -12.960938 9.097656 -13.15625 8.046875 -13.15625 L 4.390625 -13.15625 L 4.390625 -8.296875 Z M 8.046875 -8.296875 "/></g></g></g><g fill="#36495d" fill-opacity="1"><g transform="translate(149.834819, 211.942554)"><g><path d="M 1.65625 0 L 1.65625 -15.328125 L 11.90625 -15.328125 L 11.90625 -13.109375 L 4.390625 -13.109375 L 4.390625 -8.890625 L 11.46875 -8.890625 L 11.46875 -6.6875 L 4.390625 -6.6875 L 4.390625 -2.21875 L 11.90625 -2.21875 L 11.90625 0 Z M 1.65625 0 "/></g></g></g><g fill="#36495d" fill-opacity="1"><g transform="translate(175.51536, 211.942554)"><g><path d="M 6.84375 0.203125 C 5.664062 0.203125 4.5625 0.0390625 3.53125 -0.28125 C 2.507812 -0.601562 1.644531 -1.050781 0.9375 -1.625 L 1.875 -3.671875 C 2.613281 -3.109375 3.390625 -2.695312 4.203125 -2.4375 C 5.023438 -2.175781 5.914062 -2.046875 6.875 -2.046875 C 7.925781 -2.046875 8.738281 -2.226562 9.3125 -2.59375 C 9.882812 -2.96875 10.171875 -3.488281 10.171875 -4.15625 C 10.171875 -4.726562 9.90625 -5.164062 9.375 -5.46875 C 8.84375 -5.78125 7.960938 -6.070312 6.734375 -6.34375 C 5.460938 -6.625 4.425781 -6.941406 3.625 -7.296875 C 2.832031 -7.660156 2.234375 -8.125 1.828125 -8.6875 C 1.421875 -9.257812 1.21875 -9.976562 1.21875 -10.84375 C 1.21875 -11.738281 1.460938 -12.539062 1.953125 -13.25 C 2.441406 -13.96875 3.132812 -14.523438 4.03125 -14.921875 C 4.9375 -15.316406 5.976562 -15.515625 7.15625 -15.515625 C 8.226562 -15.515625 9.25 -15.351562 10.21875 -15.03125 C 11.1875 -14.707031 11.984375 -14.257812 12.609375 -13.6875 L 11.671875 -11.65625 C 10.304688 -12.738281 8.800781 -13.28125 7.15625 -13.28125 C 6.164062 -13.28125 5.382812 -13.078125 4.8125 -12.671875 C 4.238281 -12.273438 3.953125 -11.722656 3.953125 -11.015625 C 3.953125 -10.421875 4.207031 -9.960938 4.71875 -9.640625 C 5.226562 -9.328125 6.085938 -9.035156 7.296875 -8.765625 C 8.585938 -8.472656 9.632812 -8.148438 10.4375 -7.796875 C 11.25 -7.441406 11.867188 -6.988281 12.296875 -6.4375 C 12.722656 -5.882812 12.9375 -5.1875 12.9375 -4.34375 C 12.9375 -3.4375 12.691406 -2.632812 12.203125 -1.9375 C 11.710938 -1.25 11.007812 -0.71875 10.09375 -0.34375 C 9.175781 0.0195312 8.09375 0.203125 6.84375 0.203125 Z M 6.84375 0.203125 "/></g></g></g><g fill="#36495d" fill-opacity="1"><g transform="translate(202.260358, 211.942554)"><g><path d="M 8.46875 0.203125 C 6.976562 0.203125 5.6875 -0.113281 4.59375 -0.75 C 3.5 -1.394531 2.65625 -2.3125 2.0625 -3.5 C 1.46875 -4.6875 1.171875 -6.078125 1.171875 -7.671875 C 1.171875 -9.265625 1.460938 -10.648438 2.046875 -11.828125 C 2.640625 -13.015625 3.484375 -13.925781 4.578125 -14.5625 C 5.679688 -15.195312 6.976562 -15.515625 8.46875 -15.515625 C 9.96875 -15.515625 11.265625 -15.195312 12.359375 -14.5625 C 13.453125 -13.925781 14.289062 -13.015625 14.875 -11.828125 C 15.457031 -10.648438 15.75 -9.265625 15.75 -7.671875 C 15.75 -6.078125 15.453125 -4.6875 14.859375 -3.5 C 14.265625 -2.3125 13.421875 -1.394531 12.328125 -0.75 C 11.234375 -0.113281 9.945312 0.203125 8.46875 0.203125 Z M 8.46875 -2.046875 C 9.875 -2.046875 10.972656 -2.53125 11.765625 -3.5 C 12.554688 -4.46875 12.953125 -5.859375 12.953125 -7.671875 C 12.953125 -9.484375 12.554688 -10.867188 11.765625 -11.828125 C 10.972656 -12.796875 9.875 -13.28125 8.46875 -13.28125 C 7.050781 -13.28125 5.945312 -12.796875 5.15625 -11.828125 C 4.375 -10.867188 3.984375 -9.484375 3.984375 -7.671875 C 3.984375 -5.859375 4.375 -4.46875 5.15625 -3.5 C 5.945312 -2.53125 7.050781 -2.046875 8.46875 -2.046875 Z M 8.46875 -2.046875 "/></g></g></g><g fill="#36495d" fill-opacity="1"><g transform="translate(232.068417, 211.942554)"><g><path d="M 14.5 0 L 11.453125 0 L 8.828125 -4.890625 C 8.578125 -5.347656 8.269531 -5.671875 7.90625 -5.859375 C 7.550781 -6.054688 7.097656 -6.15625 6.546875 -6.15625 L 4.40625 -6.15625 L 4.40625 0 L 1.65625 0 L 1.65625 -15.328125 L 8.4375 -15.328125 C 10.175781 -15.328125 11.5 -14.9375 12.40625 -14.15625 C 13.3125 -13.382812 13.765625 -12.265625 13.765625 -10.796875 C 13.765625 -9.628906 13.429688 -8.664062 12.765625 -7.90625 C 12.109375 -7.144531 11.175781 -6.644531 9.96875 -6.40625 C 10.78125 -6.1875 11.4375 -5.613281 11.9375 -4.6875 Z M 8.046875 -8.296875 C 9.097656 -8.296875 9.867188 -8.492188 10.359375 -8.890625 C 10.859375 -9.296875 11.109375 -9.910156 11.109375 -10.734375 C 11.109375 -11.578125 10.859375 -12.191406 10.359375 -12.578125 C 9.867188 -12.960938 9.097656 -13.15625 8.046875 -13.15625 L 4.390625 -13.15625 L 4.390625 -8.296875 Z M 8.046875 -8.296875 "/></g></g></g><g fill="#36495d" fill-opacity="1"><g transform="translate(260.051677, 211.942554)"><g><path d="M 5.265625 0 L 5.265625 -13.015625 L 0.265625 -13.015625 L 0.265625 -15.328125 L 13.0625 -15.328125 L 13.0625 -13.015625 L 8.0625 -13.015625 L 8.0625 0 Z M 5.265625 0 "/></g></g></g><g fill="#315eff" fill-opacity="1"><g transform="translate(100.933366, 177.921525)"><g><path d="M 2.761719 -55.722656 L 2.761719 0 L 8.683594 0 L 8.683594 -55.171875 C 17.207031 -55.171875 23.519531 -48.777344 28.257812 -39.78125 C 34.097656 -28.335938 37.015625 -12.550781 37.015625 0 L 42.9375 0 L 42.9375 -55.722656 L 37.015625 -55.722656 L 37.015625 -10.417969 C 35.832031 -20.601562 33.226562 -31.492188 28.570312 -40.09375 C 23.992188 -49.25 17.285156 -55.722656 8.683594 -55.722656 Z M 2.761719 -55.722656 "/></g></g></g><g fill="#315eff" fill-opacity="1"><g transform="translate(154.209245, 177.921525)"><g><path d="M 46.25 -5.917969 C 44.042969 -3.789062 41.359375 -1.816406 37.804688 -1.027344 C 24.625 2.605469 13.101562 -9.867188 9.945312 -21.941406 C 6.867188 -33.9375 10.417969 -50.511719 23.835938 -54.222656 C 40.570312 -58.878906 49.015625 -41.042969 49.410156 -40.09375 L 49.410156 -48.304688 C 49.410156 -48.304688 41.121094 -59.589844 23.757812 -54.777344 C 8.683594 -50.828125 -0.238281 -35.359375 3.789062 -20.363281 C 7.894531 -5.367188 23.285156 3.710938 37.964844 -0.632812 C 43.882812 -2.132812 48.855469 -5.367188 52.25 -9.707031 L 52.25 -26.203125 L 22.101562 -26.203125 L 22.101562 -20.125 C 27.703125 -25.257812 36.621094 -25.574219 46.25 -25.574219 Z M 46.25 -5.917969 "/></g></g></g><g fill="#315eff" fill-opacity="1"><g transform="translate(216.798533, 177.921525)"><g><path d="M 8.839844 -37.175781 C 11.128906 -27.863281 20.601562 -28.335938 25.179688 -23.125 L 25.179688 -29.359375 C 14.363281 -29.359375 8.839844 -31.570312 8.839844 -42.382812 L 8.839844 -55.171875 L 15.3125 -55.171875 C 24.941406 -55.171875 29.046875 -54.777344 34.648438 -49.410156 L 34.648438 -55.722656 L 2.761719 -55.722656 L 2.761719 0 L 34.175781 0 L 35.992188 -11.679688 C 33.148438 -3.710938 29.046875 -0.632812 22.179688 -0.632812 L 8.839844 -0.632812 Z M 8.839844 -37.175781 "/></g></g></g><g fill="#315eff" fill-opacity="1"><g transform="translate(263.128825, 177.921525)"><g><path d="M 36.148438 -11.679688 C 33.226562 -3.710938 29.203125 -0.632812 22.414062 -0.632812 L 9.078125 -0.632812 L 9.078125 -55.722656 L 2.761719 -55.722656 L 2.761719 0 L 34.253906 0 Z M 36.148438 -11.679688 "/></g></g></g><g fill="#315eff" fill-opacity="1"><g transform="translate(309.616951, 177.921525)"><g><path d="M 6.789062 -42.304688 C 6.789062 -33.308594 15.074219 -28.808594 23.519531 -25.019531 C 41.910156 -16.574219 43.332031 -8.445312 38.121094 -4.105469 C 28.175781 4.261719 10.496094 -2.605469 2.761719 -22.179688 L 2.761719 -11.207031 C 11.679688 0.238281 29.753906 3.394531 38.753906 -3.472656 C 41.59375 -5.761719 43.332031 -9.078125 43.332031 -13.339844 C 43.332031 -22.652344 35.121094 -27.152344 26.519531 -30.859375 C 7.261719 -39.859375 6.628906 -48.539062 12.785156 -52.566406 C 20.046875 -57.617188 34.414062 -56.433594 42.382812 -40.253906 L 42.382812 -48.539062 C 35.597656 -59.511719 6.789062 -59.90625 6.789062 -42.304688 Z M 6.789062 -42.304688 "/></g></g></g></svg>