<svg xmlns="http://www.w3.org/2000/svg" xmlns:xlink="http://www.w3.org/1999/xlink" width="50" zoomAndPan="magnify" viewBox="0 0 37.5 37.499999" height="50" preserveAspectRatio="xMidYMid meet" version="1.0"><defs><clipPath id="804a1c43bf"><path d="M 1.5 1.5 L 36 1.5 L 36 36 L 1.5 36 Z M 1.5 1.5 " clip-rule="nonzero"/></clipPath></defs><g clip-path="url(#804a1c43bf)"><path fill="#009dff" d="M 36 18.75 C 36 19.316406 35.972656 19.878906 35.917969 20.441406 C 35.863281 21.003906 35.78125 21.5625 35.671875 22.117188 C 35.558594 22.667969 35.421875 23.21875 35.257812 23.757812 C 35.09375 24.296875 34.90625 24.828125 34.6875 25.351562 C 34.472656 25.875 34.230469 26.382812 33.964844 26.882812 C 33.699219 27.378906 33.40625 27.863281 33.09375 28.335938 C 32.78125 28.804688 32.445312 29.257812 32.085938 29.695312 C 31.726562 30.132812 31.347656 30.550781 30.949219 30.949219 C 30.550781 31.347656 30.132812 31.726562 29.695312 32.085938 C 29.257812 32.445312 28.804688 32.78125 28.335938 33.09375 C 27.863281 33.40625 27.378906 33.699219 26.882812 33.964844 C 26.382812 34.230469 25.875 34.472656 25.351562 34.6875 C 24.828125 34.90625 24.296875 35.09375 23.757812 35.257812 C 23.21875 35.421875 22.667969 35.558594 22.117188 35.671875 C 21.5625 35.78125 21.003906 35.863281 20.441406 35.917969 C 19.878906 35.972656 19.316406 36 18.75 36 C 18.183594 36 17.621094 35.972656 17.058594 35.917969 C 16.496094 35.863281 15.9375 35.78125 15.382812 35.671875 C 14.832031 35.558594 14.28125 35.421875 13.742188 35.257812 C 13.203125 35.09375 12.671875 34.90625 12.148438 34.6875 C 11.625 34.472656 11.117188 34.230469 10.617188 33.964844 C 10.121094 33.699219 9.636719 33.40625 9.164062 33.09375 C 8.695312 32.78125 8.242188 32.445312 7.804688 32.085938 C 7.367188 31.726562 6.949219 31.347656 6.550781 30.949219 C 6.152344 30.550781 5.773438 30.132812 5.414062 29.695312 C 5.054688 29.257812 4.71875 28.804688 4.40625 28.335938 C 4.09375 27.863281 3.800781 27.378906 3.535156 26.882812 C 3.269531 26.382812 3.027344 25.875 2.8125 25.351562 C 2.59375 24.828125 2.40625 24.296875 2.242188 23.757812 C 2.078125 23.21875 1.941406 22.667969 1.828125 22.117188 C 1.71875 21.5625 1.636719 21.003906 1.582031 20.441406 C 1.527344 19.878906 1.5 19.316406 1.5 18.75 C 1.5 18.183594 1.527344 17.621094 1.582031 17.058594 C 1.636719 16.496094 1.71875 15.9375 1.828125 15.382812 C 1.941406 14.832031 2.078125 14.28125 2.242188 13.742188 C 2.40625 13.203125 2.59375 12.671875 2.8125 12.148438 C 3.027344 11.625 3.269531 11.117188 3.535156 10.617188 C 3.800781 10.121094 4.09375 9.636719 4.40625 9.164062 C 4.71875 8.695312 5.054688 8.242188 5.414062 7.804688 C 5.773438 7.367188 6.152344 6.949219 6.550781 6.550781 C 6.949219 6.152344 7.367188 5.773438 7.804688 5.414062 C 8.242188 5.054688 8.695312 4.71875 9.164062 4.40625 C 9.636719 4.09375 10.121094 3.800781 10.617188 3.535156 C 11.117188 3.269531 11.625 3.027344 12.148438 2.8125 C 12.671875 2.59375 13.203125 2.40625 13.742188 2.242188 C 14.28125 2.078125 14.832031 1.941406 15.382812 1.828125 C 15.9375 1.71875 16.496094 1.636719 17.058594 1.582031 C 17.621094 1.527344 18.183594 1.5 18.75 1.5 C 19.316406 1.5 19.878906 1.527344 20.441406 1.582031 C 21.003906 1.636719 21.5625 1.71875 22.117188 1.828125 C 22.667969 1.941406 23.21875 2.078125 23.757812 2.242188 C 24.296875 2.40625 24.828125 2.59375 25.351562 2.8125 C 25.875 3.027344 26.382812 3.269531 26.882812 3.535156 C 27.378906 3.800781 27.863281 4.09375 28.335938 4.40625 C 28.804688 4.71875 29.257812 5.054688 29.695312 5.414062 C 30.132812 5.773438 30.550781 6.152344 30.949219 6.550781 C 31.347656 6.949219 31.726562 7.367188 32.085938 7.804688 C 32.445312 8.242188 32.78125 8.695312 33.09375 9.164062 C 33.40625 9.636719 33.699219 10.121094 33.964844 10.617188 C 34.230469 11.117188 34.472656 11.625 34.6875 12.148438 C 34.90625 12.671875 35.09375 13.203125 35.257812 13.742188 C 35.421875 14.28125 35.558594 14.832031 35.671875 15.382812 C 35.78125 15.9375 35.863281 16.496094 35.917969 17.058594 C 35.972656 17.621094 36 18.183594 36 18.75 Z M 36 18.75 " fill-opacity="1" fill-rule="nonzero"/></g><path fill="#ffffff" d="M 18.75 29.351562 C 16.867188 29.351562 15.113281 28.886719 13.480469 27.949219 L 8.539062 29.273438 L 9.824219 24.472656 C 9.613281 24.144531 9.421875 23.804688 9.25 23.457031 C 9.078125 23.109375 8.925781 22.75 8.789062 22.386719 C 8.65625 22.019531 8.542969 21.648438 8.453125 21.269531 C 8.359375 20.890625 8.289062 20.511719 8.238281 20.125 C 8.1875 19.738281 8.15625 19.351562 8.148438 18.960938 C 8.140625 18.570312 8.15625 18.183594 8.191406 17.796875 C 8.226562 17.40625 8.28125 17.023438 8.359375 16.640625 C 8.4375 16.261719 8.535156 15.882812 8.652344 15.511719 C 8.773438 15.140625 8.910156 14.78125 9.070312 14.425781 C 9.230469 14.070312 9.40625 13.722656 9.605469 13.386719 C 9.800781 13.050781 10.015625 12.726562 10.25 12.414062 C 10.480469 12.101562 10.730469 11.804688 10.996094 11.519531 C 11.261719 11.234375 11.539062 10.964844 11.835938 10.710938 C 12.132812 10.457031 12.441406 10.222656 12.761719 10 C 13.082031 9.78125 13.414062 9.578125 13.757812 9.394531 C 14.101562 9.214844 14.453125 9.050781 14.816406 8.90625 C 15.175781 8.761719 15.546875 8.636719 15.921875 8.53125 C 16.296875 8.429688 16.675781 8.34375 17.058594 8.28125 C 17.445312 8.222656 17.832031 8.179688 18.21875 8.160156 C 18.609375 8.140625 18.996094 8.144531 19.386719 8.167969 C 19.773438 8.191406 20.160156 8.234375 20.542969 8.300781 C 20.925781 8.367188 21.304688 8.453125 21.679688 8.5625 C 22.054688 8.667969 22.421875 8.796875 22.78125 8.945312 C 23.140625 9.09375 23.492188 9.261719 23.835938 9.445312 C 24.175781 9.632812 24.507812 9.839844 24.824219 10.0625 C 25.144531 10.285156 25.449219 10.523438 25.742188 10.78125 C 26.035156 11.039062 26.3125 11.308594 26.574219 11.597656 C 26.839844 11.886719 27.085938 12.1875 27.3125 12.5 C 27.542969 12.816406 27.753906 13.140625 27.949219 13.480469 C 28.140625 13.816406 28.316406 14.164062 28.472656 14.519531 C 28.625 14.878906 28.761719 15.242188 28.878906 15.613281 C 28.992188 15.988281 29.085938 16.363281 29.160156 16.746094 C 29.234375 17.128906 29.285156 17.511719 29.316406 17.902344 C 29.347656 18.289062 29.359375 18.679688 29.347656 19.066406 C 29.335938 19.457031 29.300781 19.84375 29.246094 20.230469 C 29.191406 20.613281 29.117188 20.996094 29.019531 21.375 C 28.925781 21.75 28.808594 22.121094 28.671875 22.484375 C 28.535156 22.851562 28.375 23.207031 28.199219 23.550781 C 28.023438 23.898438 27.828125 24.234375 27.617188 24.5625 C 27.402344 24.886719 27.171875 25.199219 26.921875 25.5 C 26.675781 25.800781 26.414062 26.085938 26.132812 26.355469 C 25.851562 26.628906 25.558594 26.882812 25.253906 27.121094 C 24.945312 27.359375 24.625 27.582031 24.292969 27.785156 C 23.960938 27.988281 23.621094 28.175781 23.269531 28.339844 C 22.914062 28.503906 22.554688 28.652344 22.1875 28.777344 C 21.820312 28.90625 21.445312 29.011719 21.066406 29.09375 C 20.683594 29.179688 20.300781 29.242188 19.914062 29.285156 C 19.527344 29.328125 19.140625 29.351562 18.75 29.351562 Z M 13.839844 25.53125 L 14.257812 25.796875 C 14.546875 25.980469 14.84375 26.148438 15.15625 26.296875 C 15.464844 26.445312 15.78125 26.570312 16.105469 26.679688 C 16.433594 26.789062 16.761719 26.875 17.101562 26.945312 C 17.4375 27.011719 17.773438 27.058594 18.117188 27.085938 C 18.460938 27.113281 18.800781 27.117188 19.144531 27.101562 C 19.488281 27.085938 19.828125 27.046875 20.164062 26.988281 C 20.503906 26.929688 20.835938 26.851562 21.164062 26.753906 C 21.492188 26.65625 21.816406 26.535156 22.128906 26.398438 C 22.441406 26.257812 22.746094 26.101562 23.042969 25.925781 C 23.335938 25.75 23.617188 25.554688 23.890625 25.347656 C 24.160156 25.136719 24.417969 24.910156 24.660156 24.667969 C 24.902344 24.421875 25.128906 24.167969 25.339844 23.898438 C 25.550781 23.625 25.746094 23.34375 25.921875 23.050781 C 26.097656 22.757812 26.253906 22.453125 26.394531 22.140625 C 26.535156 21.824219 26.652344 21.503906 26.753906 21.175781 C 26.851562 20.847656 26.929688 20.515625 26.988281 20.175781 C 27.046875 19.839844 27.085938 19.5 27.101562 19.15625 C 27.121094 18.8125 27.113281 18.472656 27.089844 18.128906 C 27.0625 17.785156 27.019531 17.449219 26.949219 17.109375 C 26.882812 16.773438 26.796875 16.445312 26.6875 16.117188 C 26.578125 15.792969 26.453125 15.472656 26.304688 15.164062 C 26.160156 14.855469 25.992188 14.554688 25.808594 14.265625 C 25.625 13.976562 25.421875 13.699219 25.207031 13.433594 C 24.988281 13.167969 24.753906 12.917969 24.503906 12.683594 C 24.257812 12.445312 23.992188 12.226562 23.71875 12.023438 C 23.441406 11.820312 23.152344 11.632812 22.855469 11.464844 C 22.554688 11.296875 22.25 11.148438 21.929688 11.015625 C 21.613281 10.886719 21.289062 10.777344 20.957031 10.683594 C 20.628906 10.59375 20.292969 10.523438 19.953125 10.476562 C 19.613281 10.425781 19.273438 10.398438 18.929688 10.390625 C 18.585938 10.382812 18.246094 10.398438 17.902344 10.433594 C 17.5625 10.46875 17.222656 10.523438 16.890625 10.597656 C 16.554688 10.675781 16.226562 10.773438 15.90625 10.890625 C 15.582031 11.007812 15.269531 11.140625 14.960938 11.296875 C 14.65625 11.453125 14.359375 11.625 14.078125 11.820312 C 13.792969 12.011719 13.519531 12.21875 13.261719 12.445312 C 13.003906 12.667969 12.757812 12.910156 12.53125 13.164062 C 12.300781 13.421875 12.089844 13.6875 11.894531 13.96875 C 11.695312 14.25 11.519531 14.542969 11.359375 14.847656 C 11.199219 15.152344 11.058594 15.464844 10.9375 15.785156 C 10.8125 16.105469 10.710938 16.429688 10.632812 16.765625 C 10.550781 17.097656 10.488281 17.433594 10.449219 17.777344 C 10.410156 18.117188 10.390625 18.457031 10.390625 18.800781 C 10.394531 19.144531 10.417969 19.484375 10.460938 19.824219 C 10.507812 20.167969 10.570312 20.503906 10.65625 20.835938 C 10.742188 21.167969 10.847656 21.492188 10.972656 21.8125 C 11.097656 22.132812 11.242188 22.441406 11.40625 22.742188 C 11.570312 23.042969 11.753906 23.335938 11.953125 23.613281 L 12.261719 24.042969 L 11.710938 26.101562 Z M 13.839844 25.53125 " fill-opacity="1" fill-rule="nonzero"/><path fill="#009dff" d="M 18.75 9.269531 C 17.878906 9.269531 17.023438 9.390625 16.183594 9.625 C 15.347656 9.859375 14.554688 10.207031 13.8125 10.660156 C 13.066406 11.113281 12.398438 11.660156 11.804688 12.296875 C 11.214844 12.933594 10.71875 13.640625 10.320312 14.417969 C 9.921875 15.191406 9.636719 16.003906 9.460938 16.859375 C 9.289062 17.714844 9.234375 18.574219 9.296875 19.445312 C 9.359375 20.3125 9.539062 21.15625 9.835938 21.976562 C 10.132812 22.792969 10.535156 23.558594 11.042969 24.265625 L 10.125 27.6875 L 13.652344 26.742188 C 13.960938 26.941406 14.28125 27.117188 14.613281 27.277344 C 14.941406 27.4375 15.28125 27.578125 15.625 27.699219 C 15.972656 27.820312 16.324219 27.921875 16.683594 28 C 17.039062 28.082031 17.402344 28.140625 17.765625 28.179688 C 18.128906 28.21875 18.496094 28.234375 18.863281 28.230469 C 19.230469 28.226562 19.59375 28.199219 19.957031 28.152344 C 20.320312 28.105469 20.683594 28.039062 21.039062 27.949219 C 21.394531 27.863281 21.742188 27.753906 22.085938 27.625 C 22.429688 27.496094 22.765625 27.347656 23.089844 27.179688 C 23.414062 27.011719 23.730469 26.824219 24.035156 26.621094 C 24.339844 26.414062 24.632812 26.195312 24.910156 25.957031 C 25.1875 25.71875 25.453125 25.464844 25.703125 25.195312 C 25.953125 24.925781 26.183594 24.644531 26.402344 24.347656 C 26.617188 24.050781 26.816406 23.742188 26.996094 23.425781 C 27.175781 23.105469 27.339844 22.777344 27.480469 22.441406 C 27.625 22.101562 27.746094 21.757812 27.851562 21.40625 C 27.953125 21.054688 28.035156 20.695312 28.097656 20.335938 C 28.15625 19.972656 28.199219 19.609375 28.214844 19.242188 C 28.234375 18.878906 28.234375 18.511719 28.210938 18.144531 C 28.1875 17.777344 28.140625 17.414062 28.078125 17.054688 C 28.011719 16.695312 27.925781 16.339844 27.816406 15.988281 C 27.710938 15.636719 27.585938 15.292969 27.4375 14.957031 C 27.289062 14.621094 27.125 14.296875 26.941406 13.976562 C 26.757812 13.660156 26.554688 13.355469 26.332031 13.0625 C 26.113281 12.769531 25.878906 12.488281 25.625 12.222656 C 25.371094 11.957031 25.105469 11.707031 24.824219 11.472656 C 24.542969 11.238281 24.25 11.019531 23.941406 10.820312 C 23.636719 10.617188 23.316406 10.4375 22.988281 10.273438 C 22.660156 10.109375 22.324219 9.964844 21.980469 9.839844 C 21.636719 9.714844 21.285156 9.609375 20.929688 9.523438 C 20.570312 9.441406 20.210938 9.375 19.847656 9.335938 C 19.480469 9.292969 19.117188 9.269531 18.75 9.269531 Z M 18.75 9.269531 " fill-opacity="1" fill-rule="nonzero"/><path fill="#ffffff" d="M 24.121094 22.972656 C 24.296875 22.546875 24.382812 21.699219 23.941406 21.445312 C 23.609375 21.253906 23.214844 21.132812 22.863281 20.984375 C 22.464844 20.8125 22.066406 20.605469 21.65625 20.46875 C 21.074219 20.269531 20.707031 20.785156 20.332031 21.140625 C 20.25 21.214844 20.078125 21.453125 19.953125 21.480469 C 19.796875 21.515625 19.554688 21.308594 19.425781 21.230469 C 19.183594 21.082031 18.945312 20.925781 18.71875 20.761719 C 18 20.234375 17.375 19.617188 16.839844 18.90625 C 16.582031 18.566406 16.289062 18.179688 16.117188 17.785156 C 16.003906 17.519531 16.160156 17.4375 16.339844 17.25 C 16.703125 16.867188 17.257812 16.472656 17.066406 15.882812 C 16.9375 15.492188 16.734375 15.113281 16.574219 14.734375 C 16.414062 14.363281 16.28125 13.957031 16.089844 13.597656 C 15.839844 13.128906 15.15625 13.210938 14.730469 13.351562 C 14.535156 13.40625 14.359375 13.5 14.199219 13.628906 C 13.945312 13.855469 13.738281 14.117188 13.582031 14.421875 C 13.019531 15.394531 13.199219 16.878906 13.734375 17.808594 C 14.496094 19.128906 15.175781 20.421875 16.289062 21.492188 C 17.371094 22.542969 18.738281 23.332031 20.085938 24 C 20.722656 24.316406 21.453125 24.261719 22.144531 24.242188 C 22.851562 24.226562 23.839844 23.667969 24.121094 22.972656 Z M 24.121094 22.972656 " fill-opacity="1" fill-rule="nonzero"/></svg>